<?xml version="1.0" encoding="UTF-8"?>
<svg version="1.1" xmlns="http://www.w3.org/2000/svg" width="70" height="70">
<path d="M0 0 C4.18762531 1.16146884 6.46475361 3.43284236 9.20410156 6.69799805 C9.72681641 7.2703418 10.24953125 7.84268555 10.78808594 8.43237305 C12.05783859 9.83026587 13.29129399 11.26098812 14.51660156 12.69799805 C16.49660156 11.04799805 18.47660156 9.39799805 20.51660156 7.69799805 C20.20722656 7.09987305 19.89785156 6.50174805 19.57910156 5.88549805 C18.51660156 3.69799805 18.51660156 3.69799805 17.51660156 0.69799805 C24.77660156 0.69799805 32.03660156 0.69799805 39.51660156 0.69799805 C39.53722656 3.81237305 39.55785156 6.92674805 39.57910156 10.13549805 C39.58820557 11.11832764 39.59730957 12.10115723 39.60668945 13.11376953 C39.60918701 13.88277588 39.61168457 14.65178223 39.61425781 15.4440918 C39.61949463 16.23485107 39.62473145 17.02561035 39.63012695 17.84033203 C39.51660156 19.69799805 39.51660156 19.69799805 38.51660156 20.69799805 C38.49969337 22.51477406 38.55446695 24.33226941 38.63769531 26.1472168 C38.68611572 27.29609375 38.73453613 28.4449707 38.78442383 29.62866211 C38.84041748 30.86841797 38.89641113 32.10817383 38.95410156 33.38549805 C39.46519128 45.83401186 39.60866673 58.24162222 39.51660156 70.69799805 C23.90526564 70.77244113 8.31133039 70.54279412 -7.29589844 70.19799805 C-9.56086805 70.14961722 -11.82584201 70.10143911 -14.09082031 70.0534668 C-19.55506564 69.93730345 -25.01924568 69.81843426 -30.48339844 69.69799805 C-30.48339844 66.39799805 -30.48339844 63.09799805 -30.48339844 59.69799805 C-22.89339844 59.36799805 -15.30339844 59.03799805 -7.48339844 58.69799805 C-8.14339844 58.03799805 -8.80339844 57.37799805 -9.48339844 56.69799805 C-9.67082381 54.06839178 -9.73909197 51.5460647 -9.71386719 48.91674805 C-9.71317986 47.76281555 -9.71317986 47.76281555 -9.71247864 46.58557129 C-9.70945596 44.9581549 -9.70156918 43.3307414 -9.68920898 41.70336914 C-9.67097143 39.20798528 -9.66869916 36.71297279 -9.66894531 34.2175293 C-9.66402937 32.638099 -9.65820071 31.05867122 -9.65136719 29.47924805 C-9.65025436 28.73026245 -9.64914154 27.98127686 -9.647995 27.20959473 C-9.59947004 21.93014126 -9.59947004 21.93014126 -8.48339844 19.69799805 C-6.67097792 19.67112526 -4.8584461 19.65166089 -3.04589844 19.63549805 C-2.0365625 19.62389648 -1.02722656 19.61229492 0.01269531 19.6003418 C2.51660156 19.69799805 2.51660156 19.69799805 3.51660156 20.69799805 C3.60499827 23.07368324 3.63190461 25.42008479 3.61425781 27.7956543 C3.61284286 28.50451279 3.61142792 29.21337128 3.60997009 29.94371033 C3.60435599 32.21601517 3.59180119 34.4882228 3.57910156 36.76049805 C3.57408838 38.297606 3.56952515 39.8347155 3.56542969 41.37182617 C3.55438199 45.14725447 3.53710798 48.92260975 3.51660156 52.69799805 C6.47634104 50.18222076 6.47634104 50.18222076 7.9831543 46.73095703 C7.97227783 46.0587915 7.96140137 45.38662598 7.95019531 44.6940918 C7.96469727 43.58324219 7.96469727 43.58324219 7.97949219 42.44995117 C7.96252173 40.90302897 7.94166855 39.35614464 7.91699219 37.80932617 C7.95019531 35.5690918 7.95019531 35.5690918 8.51660156 31.69799805 C11.05175781 29.6706543 11.05175781 29.6706543 13.51660156 28.69799805 C12.73736328 28.02704102 12.73736328 28.02704102 11.94238281 27.3425293 C7.98862137 23.91496161 4.21760747 20.39900395 0.51660156 16.69799805 C-0.8062311 15.6841482 -2.13795375 14.68164248 -3.48339844 13.69799805 C-3.94713867 14.18792236 -4.41087891 14.67784668 -4.88867188 15.18261719 C-6.9904937 17.3881646 -9.11145569 19.57430963 -11.23339844 21.76049805 C-11.96300781 22.53200195 -12.69261719 23.30350586 -13.44433594 24.09838867 C-14.15332031 24.82348633 -14.86230469 25.54858398 -15.59277344 26.2956543 C-16.24213867 26.97120361 -16.89150391 27.64675293 -17.56054688 28.34277344 C-19.48339844 29.69799805 -19.48339844 29.69799805 -21.5546875 29.53955078 C-24.24849979 28.36416205 -26.26798444 26.60571566 -28.48339844 24.69799805 C-27.70302037 18.02200378 -23.1309158 14.4939295 -18.60839844 9.88549805 C-17.79886719 9.0018457 -16.98933594 8.11819336 -16.15527344 7.20776367 C-11.09311758 2.03781743 -7.41767519 -0.67308534 0 0 Z M30.51660156 15.69799805 C29.49555605 16.6765 28.49598947 17.67780231 27.51660156 18.69799805 C27.51660156 19.02799805 27.51660156 19.35799805 27.51660156 19.69799805 C29.82660156 19.69799805 32.13660156 19.69799805 34.51660156 19.69799805 C34.18660156 18.70799805 33.85660156 17.71799805 33.51660156 16.69799805 C32.52660156 16.36799805 31.53660156 16.03799805 30.51660156 15.69799805 Z M24.51660156 20.69799805 C25.51660156 22.69799805 25.51660156 22.69799805 25.51660156 22.69799805 Z " fill="#11201F" transform="translate(30.4833984375,-0.697998046875)"/>
<path d="M0 0 C1.81242052 -0.02687279 3.62495233 -0.04633715 5.4375 -0.0625 C6.44683594 -0.07410156 7.45617187 -0.08570312 8.49609375 -0.09765625 C11 0 11 0 12 1 C12.0883967 3.3756852 12.11530305 5.72208674 12.09765625 8.09765625 C12.0962413 8.80651474 12.09482635 9.51537323 12.09336853 10.24571228 C12.08775443 12.51801712 12.07519963 14.79022475 12.0625 17.0625 C12.05748681 18.59960796 12.05292359 20.13671745 12.04882812 21.67382812 C12.03778042 25.44925642 12.02050641 29.22461171 12 33 C13.65 32.34 15.3 31.68 17 31 C17 31.99 17 32.98 17 34 C20.3 34 23.6 34 27 34 C26.01 34.495 26.01 34.495 25 35 C25.185625 36.216875 25.37125 37.43375 25.5625 38.6875 C25.98993182 42.02977939 25.92258883 44.71968417 25 48 C25.66 47.34 26.32 46.68 27 46 C27 45.34 27 44.68 27 44 C33.0546875 43.0234375 33.0546875 43.0234375 35 43 C37 45 37 45 37 47 C37.99 47.495 37.99 47.495 39 48 C39 48.66 39 49.32 39 50 C30.99239048 50.80914304 23.15173208 51.0942048 15.109375 50.87890625 C13.50343475 50.84348976 13.50343475 50.84348976 11.86505127 50.80735779 C8.49320004 50.7316553 5.121635 50.6472375 1.75 50.5625 C-0.55597624 50.50918544 -2.86196586 50.45644596 -5.16796875 50.40429688 C-10.77882214 50.27616899 -16.38943662 50.14023229 -22 50 C-22 46.7 -22 43.4 -22 40 C-14.41 39.67 -6.82 39.34 1 39 C0.34 38.34 -0.32 37.68 -1 37 C-1.18742538 34.37039373 -1.25569353 31.84806665 -1.23046875 29.21875 C-1.22978142 28.0648175 -1.22978142 28.0648175 -1.2290802 26.88757324 C-1.22605753 25.26015685 -1.21817074 23.63274336 -1.20581055 22.00537109 C-1.18757299 19.50998723 -1.18530073 17.01497475 -1.18554688 14.51953125 C-1.18063093 12.94010095 -1.17480228 11.36067317 -1.16796875 9.78125 C-1.16685593 9.0322644 -1.1657431 8.28327881 -1.16459656 7.51159668 C-1.11607161 2.23214321 -1.11607161 2.23214321 0 0 Z " fill="#040D11" transform="translate(22,19)"/>
<path d="M0 0 C5.04332037 0.69036047 6.87717533 2.83648405 10.17578125 6.51171875 C10.71654297 7.0840625 11.25730469 7.65640625 11.81445312 8.24609375 C13.13891112 9.65259781 14.44093724 11.08016674 15.73828125 12.51171875 C17.71828125 10.86171875 19.69828125 9.21171875 21.73828125 7.51171875 C21.42890625 6.91359375 21.11953125 6.31546875 20.80078125 5.69921875 C19.73828125 3.51171875 19.73828125 3.51171875 18.73828125 0.51171875 C25.33828125 0.51171875 31.93828125 0.51171875 38.73828125 0.51171875 C38.73828125 6.12171875 38.73828125 11.73171875 38.73828125 17.51171875 C36.26328125 15.53171875 36.26328125 15.53171875 33.73828125 13.51171875 C31.67133127 13.23833578 31.67133127 13.23833578 29.73828125 14.51171875 C27.3343591 16.80816301 25.1052053 19.17384398 22.89257812 21.65039062 C20.84422873 23.83015435 19.20205971 25.36114133 16.33203125 26.29296875 C12.04709138 25.00232421 9.61787374 21.70330408 6.67578125 18.44921875 C5.46781591 17.11396517 4.24822229 15.78911205 3.015625 14.4765625 C2.48187256 13.88480225 1.94812012 13.29304199 1.39819336 12.68334961 C-0.19613173 11.29993373 -0.19613173 11.29993373 -2.25952148 11.62670898 C-4.60509319 12.66349687 -5.84127071 13.82157137 -7.57421875 15.70703125 C-8.17492187 16.33996094 -8.775625 16.97289063 -9.39453125 17.625 C-10.64322357 18.97034842 -11.88800125 20.31934047 -13.12890625 21.671875 C-13.72960938 22.30222656 -14.3303125 22.93257812 -14.94921875 23.58203125 C-15.75939453 24.46012451 -15.75939453 24.46012451 -16.5859375 25.35595703 C-18.26171875 26.51171875 -18.26171875 26.51171875 -20.34375 26.31982422 C-22.26171875 25.51171875 -22.26171875 25.51171875 -24.26171875 23.51171875 C-24.13524569 20.52063097 -23.24347966 19.49283792 -21.15234375 17.328125 C-19.84523438 16.21244141 -19.84523438 16.21244141 -18.51171875 15.07421875 C-17.60550781 14.28660156 -16.69929688 13.49898437 -15.765625 12.6875 C-14.93933594 11.96949219 -14.11304688 11.25148438 -13.26171875 10.51171875 C-10.66595539 7.97363902 -8.22883206 5.47277398 -5.88671875 2.69921875 C-3.26171875 0.51171875 -3.26171875 0.51171875 0 0 Z " fill="#079295" transform="translate(29.26171875,-0.51171875)"/>
<path d="M0 0 C0.5669458 0.24508301 1.1338916 0.49016602 1.71801758 0.74267578 C0.59923375 1.91530482 -0.52721293 3.08062716 -1.65698242 4.24267578 C-2.2834668 4.89236328 -2.90995117 5.54205078 -3.55541992 6.21142578 C-5.28198242 7.74267578 -5.28198242 7.74267578 -7.28198242 7.74267578 C-7.5165918 8.31501953 -7.75120117 8.88736328 -7.99291992 9.47705078 C-9.57604827 12.25951879 -11.48113492 13.91337793 -13.90698242 15.99267578 C-14.72424805 16.69908203 -15.54151367 17.40548828 -16.38354492 18.13330078 C-17.32327148 18.92994141 -17.32327148 18.92994141 -18.28198242 19.74267578 C-17.95198242 21.06267578 -17.62198242 22.38267578 -17.28198242 23.74267578 C-15.47113505 24.53825875 -15.47113505 24.53825875 -13.28198242 24.74267578 C-11.40513357 23.4762654 -11.40513357 23.4762654 -9.75073242 21.52392578 C-9.10491211 20.83943359 -8.4590918 20.15494141 -7.79370117 19.44970703 C-7.12983398 18.72138672 -6.4659668 17.99306641 -5.78198242 17.24267578 C-4.47110349 15.80452705 -3.14865477 14.37681354 -1.81323242 12.96142578 C-0.94021484 12.00139648 -0.94021484 12.00139648 -0.04956055 11.02197266 C1.71801758 9.74267578 1.71801758 9.74267578 3.74755859 9.85766602 C5.96818229 10.85503448 7.14039723 11.88974077 8.77661133 13.68408203 C9.32768555 14.26738281 9.87875977 14.85068359 10.4465332 15.45166016 C11.58601406 16.68750854 12.72144179 17.92710631 13.8527832 19.17041016 C17.06889273 22.58740779 17.06889273 22.58740779 21.24926758 24.52392578 C25.04026119 23.32424426 27.21328888 20.57032633 29.78051758 17.68017578 C31.69144786 15.53067743 33.55613358 13.66666333 35.71801758 11.74267578 C39.33301483 12.02341351 40.00069604 13.02535425 42.71801758 15.74267578 C43.04801758 10.46267578 43.37801758 5.18267578 43.71801758 -0.25732422 C44.37801758 -0.25732422 45.03801758 -0.25732422 45.71801758 -0.25732422 C45.74690272 2.88849001 45.76477681 6.03427047 45.78051758 9.18017578 C45.78889648 10.07800781 45.79727539 10.97583984 45.8059082 11.90087891 C45.80913086 12.75488281 45.81235352 13.60888672 45.81567383 14.48876953 C45.82091064 15.27952881 45.82614746 16.07028809 45.83154297 16.88500977 C45.71801758 18.74267578 45.71801758 18.74267578 44.71801758 19.74267578 C44.7010816 22.12075376 44.7467162 24.46578241 44.83911133 26.84033203 C44.86272232 27.54919052 44.88633331 28.25804901 44.91065979 28.98838806 C44.98746404 31.260846 45.07141533 33.53297735 45.15551758 35.80517578 C45.20872154 37.34226897 45.26146204 38.87937828 45.3137207 40.41650391 C45.44310163 44.19210281 45.57889448 47.96742381 45.71801758 51.74267578 C44.59213743 50.78537662 43.46734608 49.82679683 42.34301758 48.86767578 C41.7165332 48.33400391 41.09004883 47.80033203 40.44458008 47.25048828 C39.15965107 46.12835571 37.92429782 44.94895603 36.71801758 43.74267578 C34.14740447 43.09499785 34.14740447 43.09499785 31.71801758 42.74267578 C31.71801758 41.75267578 31.71801758 40.76267578 31.71801758 39.74267578 C30.39801758 39.74267578 29.07801758 39.74267578 27.71801758 39.74267578 C27.71801758 40.73267578 27.71801758 41.72267578 27.71801758 42.74267578 C26.97551758 42.82517578 26.23301758 42.90767578 25.46801758 42.99267578 C22.18877878 43.88701363 21.04156004 45.3416819 18.71801758 47.74267578 C17.72801758 47.74267578 16.73801758 47.74267578 15.71801758 47.74267578 C15.71801758 42.79267578 15.71801758 37.84267578 15.71801758 32.74267578 C16.04801758 32.74267578 16.37801758 32.74267578 16.71801758 32.74267578 C16.71801758 37.03267578 16.71801758 41.32267578 16.71801758 45.74267578 C21.03200074 42.96989871 21.03200074 42.96989871 23.33911133 38.62939453 C23.56462842 36.67606956 23.6514016 34.7078472 23.71801758 32.74267578 C29.01032527 30.52729117 29.01032527 30.52729117 32.59301758 31.61767578 C33.29426758 31.98892578 33.99551758 32.36017578 34.71801758 32.74267578 C35.04801758 30.10267578 35.37801758 27.46267578 35.71801758 24.74267578 C33.73801758 24.74267578 31.75801758 24.74267578 29.71801758 24.74267578 C29.71801758 26.06267578 29.71801758 27.38267578 29.71801758 28.74267578 C29.05801758 28.74267578 28.39801758 28.74267578 27.71801758 28.74267578 C27.71801758 28.08267578 27.71801758 27.42267578 27.71801758 26.74267578 C26.06801758 26.74267578 24.41801758 26.74267578 22.71801758 26.74267578 C22.38801758 27.40267578 22.05801758 28.06267578 21.71801758 28.74267578 C21.71801758 28.08267578 21.71801758 27.42267578 21.71801758 26.74267578 C21.03739258 26.72205078 20.35676758 26.70142578 19.65551758 26.68017578 C15.22428114 25.26595139 12.80931699 22.1104905 9.71801758 18.74267578 C8.09602616 16.98551841 6.48523703 15.36262694 4.71801758 13.74267578 C1.74008549 13.4206166 1.74008549 13.4206166 0.06396484 15.13549805 C-0.52328369 15.77028076 -1.11053223 16.40506348 -1.71557617 17.05908203 C-2.68914063 18.08098633 -2.68914063 18.08098633 -3.68237305 19.12353516 C-5.04058028 20.57810608 -6.39475653 22.03645141 -7.74487305 23.49853516 C-8.72037109 24.51850586 -8.72037109 24.51850586 -9.71557617 25.55908203 C-10.30395264 26.19273682 -10.8923291 26.8263916 -11.49853516 27.47924805 C-13.28198242 28.74267578 -13.28198242 28.74267578 -15.33300781 28.57055664 C-18.04862025 27.41702516 -20.05874568 25.65712964 -22.28198242 23.74267578 C-21.53636383 16.96691364 -16.60634817 13.44679302 -11.96948242 8.86767578 C-11.10129883 7.97564453 -10.23311523 7.08361328 -9.33862305 6.16455078 C-8.49879883 5.32666016 -7.65897461 4.48876953 -6.79370117 3.62548828 C-6.02501709 2.8560791 -5.25633301 2.08666992 -4.46435547 1.29394531 C-2.28198242 -0.25732422 -2.28198242 -0.25732422 0 0 Z M36.71801758 14.74267578 C35.69697207 15.72117773 34.69740548 16.72248005 33.71801758 17.74267578 C33.71801758 18.07267578 33.71801758 18.40267578 33.71801758 18.74267578 C36.02801758 18.74267578 38.33801758 18.74267578 40.71801758 18.74267578 C40.38801758 17.75267578 40.05801758 16.76267578 39.71801758 15.74267578 C38.72801758 15.41267578 37.73801758 15.08267578 36.71801758 14.74267578 Z M30.71801758 19.74267578 C31.71801758 21.74267578 31.71801758 21.74267578 31.71801758 21.74267578 Z " fill="#222329" transform="translate(24.281982421875,0.25732421875)"/>
<path d="M0 0 C3.5 0.125 3.5 0.125 4.5 1.125 C4.5883967 3.5006852 4.61530305 5.84708674 4.59765625 8.22265625 C4.5962413 8.93151474 4.59482635 9.64037323 4.59336853 10.37071228 C4.58775443 12.64301712 4.57519963 14.91522475 4.5625 17.1875 C4.55748681 18.72460796 4.55292359 20.26171745 4.54882812 21.79882812 C4.53778042 25.57425642 4.52050641 29.34961171 4.5 33.125 C7.47 33.125 10.44 33.125 13.5 33.125 C13.5 33.455 13.5 33.785 13.5 34.125 C11.52 34.125 9.54 34.125 7.5 34.125 C7.5 34.785 7.5 35.445 7.5 36.125 C9.48 36.125 11.46 36.125 13.5 36.125 C13.5 37.115 13.5 38.105 13.5 39.125 C-0.03 39.125 -13.56 39.125 -27.5 39.125 C-27.5 38.795 -27.5 38.465 -27.5 38.125 C-19.91 37.795 -12.32 37.465 -4.5 37.125 C-4.83 36.465 -5.16 35.805 -5.5 35.125 C-2.2 35.455 1.1 35.785 4.5 36.125 C4.5 35.465 4.5 34.805 4.5 34.125 C1.53 34.125 -1.44 34.125 -4.5 34.125 C-4.52465288 29.44360746 -4.54283739 24.76225241 -4.55493164 20.08081055 C-4.55997157 18.48705386 -4.5668035 16.89330181 -4.57543945 15.29956055 C-4.58751999 13.01349747 -4.59323155 10.72749533 -4.59765625 8.44140625 C-4.60281754 7.72473282 -4.60797882 7.00805939 -4.61329651 6.26966858 C-4.61349263 4.55436328 -4.56192007 2.83918734 -4.5 1.125 C-3.5 0.125 -3.5 0.125 0 0 Z " fill="#5179B9" transform="translate(27.5,20.875)"/>
<path d="M0 0 C1.50046875 0.00386719 1.50046875 0.00386719 3.03125 0.0078125 C4.0315625 0.00523438 5.031875 0.00265625 6.0625 0 C8.53125 0.1328125 8.53125 0.1328125 9.53125 1.1328125 C9.78381877 5.10557065 9.71647451 9.09047425 9.71875 13.0703125 C9.73099609 14.19373047 9.74324219 15.31714844 9.75585938 16.47460938 C9.75875977 18.08239258 9.75875977 18.08239258 9.76171875 19.72265625 C9.76582764 20.71128662 9.76993652 21.69991699 9.77416992 22.71850586 C9.53125 25.1328125 9.53125 25.1328125 7.53125 27.1328125 C5.4375 27.3984375 5.4375 27.3984375 3.03125 27.3828125 C2.2371875 27.38796875 1.443125 27.393125 0.625 27.3984375 C-1.46875 27.1328125 -1.46875 27.1328125 -3.46875 25.1328125 C-3.71166992 22.71850586 -3.71166992 22.71850586 -3.69921875 19.72265625 C-3.69728516 18.65080078 -3.69535156 17.57894531 -3.69335938 16.47460938 C-3.68111328 15.35119141 -3.66886719 14.22777344 -3.65625 13.0703125 C-3.65560547 11.94302734 -3.65496094 10.81574219 -3.65429688 9.65429688 C-3.60303609 0.19383422 -3.60303609 0.19383422 0 0 Z " fill="#4F71A6" transform="translate(7.46875,30.8671875)"/>
<path d="M0 0 C1.32 0 2.64 0 4 0 C4 0.99 4 1.98 4 3 C4.680625 2.87625 5.36125 2.7525 6.0625 2.625 C10.47219002 3.18793915 12.977005 5.87040064 16 9 C18.67927341 13.01891012 18.15601248 15.24161923 18 20 C17.01 20 16.02 20 15 20 C15 19.34 15 18.68 15 18 C14.34 18 13.68 18 13 18 C13 17.01 13 16.02 13 15 C7.96521559 15.23413974 7.96521559 15.23413974 4.0625 18.0625 C3.711875 18.701875 3.36125 19.34125 3 20 C2.67 18.02 2.34 16.04 2 14 C1.01 13.67 0.02 13.34 -1 13 C-1.33 12.01 -1.66 11.02 -2 10 C-4.64 9.67 -7.28 9.34 -10 9 C-8.02 6.69 -6.04 4.38 -4 2 C-2.68 2.33 -1.36 2.66 0 3 C0 2.01 0 1.02 0 0 Z " fill="#9A6142" transform="translate(52,40)"/>
<path d="M0 0 C0.5669458 0.24508301 1.1338916 0.49016602 1.71801758 0.74267578 C0.59923375 1.91530482 -0.52721293 3.08062716 -1.65698242 4.24267578 C-2.2834668 4.89236328 -2.90995117 5.54205078 -3.55541992 6.21142578 C-5.28198242 7.74267578 -5.28198242 7.74267578 -7.28198242 7.74267578 C-7.5165918 8.31501953 -7.75120117 8.88736328 -7.99291992 9.47705078 C-9.57604827 12.25951879 -11.48113492 13.91337793 -13.90698242 15.99267578 C-14.72424805 16.69908203 -15.54151367 17.40548828 -16.38354492 18.13330078 C-17.32327148 18.92994141 -17.32327148 18.92994141 -18.28198242 19.74267578 C-17.95198242 21.06267578 -17.62198242 22.38267578 -17.28198242 23.74267578 C-15.47113505 24.53825875 -15.47113505 24.53825875 -13.28198242 24.74267578 C-11.40513357 23.4762654 -11.40513357 23.4762654 -9.75073242 21.52392578 C-9.10491211 20.83943359 -8.4590918 20.15494141 -7.79370117 19.44970703 C-7.12983398 18.72138672 -6.4659668 17.99306641 -5.78198242 17.24267578 C-4.47110349 15.80452705 -3.14865477 14.37681354 -1.81323242 12.96142578 C-0.94021484 12.00139648 -0.94021484 12.00139648 -0.04956055 11.02197266 C1.71801758 9.74267578 1.71801758 9.74267578 3.74536133 9.86206055 C5.94535093 10.84415987 7.15981078 11.86751442 8.81176758 13.61376953 C9.64514648 14.47518555 9.64514648 14.47518555 10.49536133 15.35400391 C11.06383789 15.95664062 11.63231445 16.55927734 12.21801758 17.18017578 C13.34858878 18.37099284 14.48386972 19.55735968 15.62426758 20.73876953 C16.12249023 21.26656006 16.62071289 21.79435059 17.1340332 22.33813477 C18.87585068 23.88262859 20.60236861 24.79149144 22.71801758 25.74267578 C20.46801758 26.46923828 20.46801758 26.46923828 17.71801758 26.74267578 C15.65551758 25.26611328 15.65551758 25.26611328 13.71801758 23.11767578 C13.03352539 22.38291016 12.3490332 21.64814453 11.64379883 20.89111328 C11.00829102 20.18212891 10.3727832 19.47314453 9.71801758 18.74267578 C8.0963996 16.98349124 6.48742763 15.36042211 4.71801758 13.74267578 C1.74008549 13.4206166 1.74008549 13.4206166 0.06396484 15.13549805 C-0.52328369 15.77028076 -1.11053223 16.40506348 -1.71557617 17.05908203 C-2.68914063 18.08098633 -2.68914063 18.08098633 -3.68237305 19.12353516 C-5.04058028 20.57810608 -6.39475653 22.03645141 -7.74487305 23.49853516 C-8.72037109 24.51850586 -8.72037109 24.51850586 -9.71557617 25.55908203 C-10.30395264 26.19273682 -10.8923291 26.8263916 -11.49853516 27.47924805 C-13.28198242 28.74267578 -13.28198242 28.74267578 -15.33300781 28.57055664 C-18.04862025 27.41702516 -20.05874568 25.65712964 -22.28198242 23.74267578 C-21.53636383 16.96691364 -16.60634817 13.44679302 -11.96948242 8.86767578 C-11.10129883 7.97564453 -10.23311523 7.08361328 -9.33862305 6.16455078 C-8.49879883 5.32666016 -7.65897461 4.48876953 -6.79370117 3.62548828 C-6.02501709 2.8560791 -5.25633301 2.08666992 -4.46435547 1.29394531 C-2.28198242 -0.25732422 -2.28198242 -0.25732422 0 0 Z " fill="#202B2E" transform="translate(24.281982421875,0.25732421875)"/>
<path d="M0 0 C9.9 0 19.8 0 30 0 C30 1.98 30 3.96 30 6 C20.1 6 10.2 6 0 6 C0 4.02 0 2.04 0 0 Z " fill="#0B4561" transform="translate(2,61)"/>
<path d="M0 0 C0.33 -0.66 0.66 -1.32 1 -2 C1.02578125 -1.41992188 1.0515625 -0.83984375 1.078125 -0.2421875 C1.48567151 5.3708394 2.49364211 8.58877555 6 13 C3.03 12.01 0.06 11.02 -3 10 C-3 9.01 -3 8.02 -3 7 C-4.32 7 -5.64 7 -7 7 C-7 7.99 -7 8.98 -7 10 C-8.11375 10.12375 -8.11375 10.12375 -9.25 10.25 C-12.52923879 11.14433785 -13.67645754 12.59900612 -16 15 C-16.99 15 -17.98 15 -19 15 C-19 10.05 -19 5.1 -19 0 C-18.67 0 -18.34 0 -18 0 C-18 4.29 -18 8.58 -18 13 C-13.68601684 10.22722293 -13.68601684 10.22722293 -11.37890625 5.88671875 C-11.15338916 3.93339378 -11.06661598 1.96517142 -11 0 C-6.66370819 -2.2956839 -4.46535773 -1.86921951 0 0 Z " fill="#0F171C" transform="translate(59,33)"/>
<path d="M0 0 C1.81242052 -0.02687279 3.62495233 -0.04633715 5.4375 -0.0625 C6.44683594 -0.07410156 7.45617187 -0.08570312 8.49609375 -0.09765625 C11 0 11 0 12 1 C12.0883967 3.3756852 12.11530305 5.72208674 12.09765625 8.09765625 C12.0962413 8.80651474 12.09482635 9.51537323 12.09336853 10.24571228 C12.08775443 12.51801712 12.07519963 14.79022475 12.0625 17.0625 C12.05748681 18.59960796 12.05292359 20.13671745 12.04882812 21.67382812 C12.03778042 25.44925642 12.02050641 29.22461171 12 33 C13.32 32.34 14.64 31.68 16 31 C15.67 31.99 15.34 32.98 15 34 C13.68 34 12.36 34 11 34 C11 23.77 11 13.54 11 3 C8.03 3 5.06 3 2 3 C1.67 13.89 1.34 24.78 1 36 C3.97 36 6.94 36 10 36 C10 36.66 10 37.32 10 38 C8.741875 38.020625 7.48375 38.04125 6.1875 38.0625 C5.12595703 38.07990234 5.12595703 38.07990234 4.04296875 38.09765625 C2 38 2 38 -1 37 C-1.0246826 32.05208706 -1.04285166 27.1042098 -1.05493164 22.15625 C-1.05996653 20.47232438 -1.06679481 18.78840314 -1.07543945 17.10449219 C-1.08754196 14.68683797 -1.09323668 12.26924144 -1.09765625 9.8515625 C-1.10281754 9.0963028 -1.10797882 8.34104309 -1.11329651 7.56289673 C-1.11387171 2.22774341 -1.11387171 2.22774341 0 0 Z " fill="#303134" transform="translate(22,19)"/>
<path d="M0 0 C2.33294775 -0.04241723 4.66702567 -0.04092937 7 0 C8 1 8 1 8.11352539 3.31665039 C8.10828857 4.31688232 8.10305176 5.31711426 8.09765625 6.34765625 C8.09443359 7.42724609 8.09121094 8.50683594 8.08789062 9.61914062 C8.07951172 10.75544922 8.07113281 11.89175781 8.0625 13.0625 C8.05798828 14.20267578 8.05347656 15.34285156 8.04882812 16.51757812 C8.03699747 19.34510351 8.0205141 22.1725264 8 25 C4.67131574 23.42019793 2.7475182 22.34987513 1 19 C0.99609375 15.46875 0.99609375 15.46875 1.4375 11.5 C2.25898156 5.43606675 2.25898156 5.43606675 0 0 Z " fill="#5278B5" transform="translate(59,21)"/>
<path d="M0 0 C1.47906892 -0.02689216 2.95827483 -0.04634621 4.4375 -0.0625 C5.26121094 -0.07410156 6.08492187 -0.08570312 6.93359375 -0.09765625 C9 0 9 0 10 1 C10.25256877 4.97275815 10.18522451 8.95766175 10.1875 12.9375 C10.19974609 14.06091797 10.21199219 15.18433594 10.22460938 16.34179688 C10.22750977 17.94958008 10.22750977 17.94958008 10.23046875 19.58984375 C10.23457764 20.57847412 10.23868652 21.56710449 10.24291992 22.58569336 C10 25 10 25 8 27 C5.87109375 27.23046875 5.87109375 27.23046875 3.4375 27.1875 C2.63183594 27.18105469 1.82617188 27.17460938 0.99609375 27.16796875 C-1 27 -1 27 -2 26 C-2.08713831 24.29227642 -2.10700007 22.58101351 -2.09765625 20.87109375 C-2.09443359 19.83662109 -2.09121094 18.80214844 -2.08789062 17.73632812 C-2.07951172 16.64771484 -2.07113281 15.55910156 -2.0625 14.4375 C-2.05798828 13.34501953 -2.05347656 12.25253906 -2.04882812 11.12695312 C-2.03699826 8.41791505 -2.02051543 5.70898401 -2 3 C-1.67 3 -1.34 3 -1 3 C-1 9.93 -1 16.86 -1 24 C1.97 24 4.94 24 8 24 C7.67 17.07 7.34 10.14 7 3 C4.36 2.67 1.72 2.34 -1 2 C-0.67 1.34 -0.34 0.68 0 0 Z " fill="#212328" transform="translate(7,31)"/>
<path d="M0 0 C0.33 0 0.66 0 1 0 C1 10.56 1 21.12 1 32 C3.97 32 6.94 32 10 32 C10 32.33 10 32.66 10 33 C8.02 33 6.04 33 4 33 C4 33.66 4 34.32 4 35 C5.98 35 7.96 35 10 35 C10 35.99 10 36.98 10 38 C-3.53 38 -17.06 38 -31 38 C-31 37.67 -31 37.34 -31 37 C-23.41 36.67 -15.82 36.34 -8 36 C-8.33 35.34 -8.66 34.68 -9 34 C-5.7 34.33 -2.4 34.66 1 35 C0.67 34.34 0.34 33.68 0 33 C-0.08649451 30.51900266 -0.11565054 28.06655072 -0.09765625 25.5859375 C-0.0962413 24.85629791 -0.09482635 24.12665833 -0.09336853 23.37490845 C-0.08776531 21.04156415 -0.07521235 18.70831536 -0.0625 16.375 C-0.05748541 14.79427222 -0.05292243 13.21354293 -0.04882812 11.6328125 C-0.03779484 7.75517146 -0.02052811 3.87760193 0 0 Z " fill="#416371" transform="translate(31,22)"/>
<path d="M0 0 C0.66 0 1.32 0 2 0 C2 6.27 2 12.54 2 19 C-2 18 -2 18 -4.625 16.9375 C-6.88449553 15.87761116 -6.88449553 15.87761116 -9 16 C-9.33 16.99 -9.66 17.98 -10 19 C-11.98075027 20.36176581 -13.98079663 21.69593116 -16 23 C-16.33 23.66 -16.66 24.32 -17 25 C-16.34 25 -15.68 25 -15 25 C-15 25.66 -15 26.32 -15 27 C-16.98 27 -18.96 27 -21 27 C-21.33 27.66 -21.66 28.32 -22 29 C-22 28.34 -22 27.68 -22 27 C-22.66 26.67 -23.32 26.34 -24 26 C-23.28972656 25.62359375 -22.57945313 25.2471875 -21.84765625 24.859375 C-17.99006205 22.34056178 -15.08130168 19.07242662 -12.01757812 15.67578125 C-10.62109375 14.203125 -10.62109375 14.203125 -8 12 C-5.84765625 11.984375 -5.84765625 11.984375 -4 13 C-3.01 13.99 -2.02 14.98 -1 16 C-0.67 10.72 -0.34 5.44 0 0 Z " fill="#182325" transform="translate(68,0)"/>
<path d="M0 0 C5.04806914 0.35991718 7.52239866 3.04398041 10.8125 6.5625 C11.31458984 7.08263672 11.81667969 7.60277344 12.33398438 8.13867188 C13.56529127 9.4168857 14.7839407 10.70727147 16 12 C17.98 10.35 19.96 8.7 22 7 C21.690625 6.401875 21.38125 5.80375 21.0625 5.1875 C20 3 20 3 19 0 C19.99 0 20.98 0 22 0 C22 0.66 22 1.32 22 2 C22.66 2 23.32 2 24 2 C26 5 26 5 25.84765625 6.953125 C24.79697154 9.49026227 23.42738716 10.86865214 21.4375 12.75 C20.47650391 13.67039062 20.47650391 13.67039062 19.49609375 14.609375 C19.00238281 15.06828125 18.50867188 15.5271875 18 16 C15.07502076 14.66838999 12.8931508 13.18561693 10.546875 10.99609375 C9.928125 10.42052734 9.309375 9.84496094 8.671875 9.25195312 C8.03765625 8.65318359 7.4034375 8.05441406 6.75 7.4375 C6.1003125 6.83486328 5.450625 6.23222656 4.78125 5.61132812 C1.26519798 2.32056935 1.26519798 2.32056935 0 1 C0 0.67 0 0.34 0 0 Z " fill="#212E2F" transform="translate(29,0)"/>
<path d="M0 0 C2.21418199 0.96822625 3.41458026 1.98456147 5.07128906 3.73583984 C5.626875 4.31011719 6.18246094 4.88439453 6.75488281 5.47607422 C7.32335937 6.07871094 7.89183594 6.68134766 8.47753906 7.30224609 C9.60811026 8.49306315 10.7433912 9.67943 11.88378906 10.86083984 C12.38201172 11.38863037 12.88023438 11.9164209 13.39355469 12.46020508 C15.13537217 14.00469891 16.8618901 14.91356176 18.97753906 15.86474609 C16.72753906 16.59130859 16.72753906 16.59130859 13.97753906 16.86474609 C11.91503906 15.38818359 11.91503906 15.38818359 9.97753906 13.23974609 C9.29304688 12.50498047 8.60855469 11.77021484 7.90332031 11.01318359 C7.2678125 10.30419922 6.63230469 9.59521484 5.97753906 8.86474609 C4.35592108 7.10556155 2.74694911 5.48249243 0.97753906 3.86474609 C-2.25190854 3.53202811 -2.25190854 3.53202811 -4.72167969 6.27099609 C-5.72548336 7.29474289 -6.72131743 8.3263515 -7.70996094 9.36474609 C-8.22107422 9.88939453 -8.7321875 10.41404297 -9.25878906 10.95458984 C-10.52018802 12.25135513 -11.77223306 13.55720726 -13.02246094 14.86474609 C-14.01246094 14.53474609 -15.00246094 14.20474609 -16.02246094 13.86474609 C-13.79294345 11.49042581 -11.53586893 9.14424465 -9.27246094 6.80224609 C-8.63824219 6.12613281 -8.00402344 5.45001953 -7.35058594 4.75341797 C-6.73183594 4.11855469 -6.11308594 3.48369141 -5.47558594 2.82958984 C-4.91000977 2.23782959 -4.34443359 1.64606934 -3.76171875 1.03637695 C-2.02246094 -0.13525391 -2.02246094 -0.13525391 0 0 Z " fill="#242828" transform="translate(28.0224609375,10.13525390625)"/>
<path d="M0 0 C1 2 1 2 1 9 C-5.6 9 -12.2 9 -19 9 C-19 8.67 -19 8.34 -19 8 C-15.37 8 -11.74 8 -8 8 C-8 6.35 -8 4.7 -8 3 C-5.18144066 0.08077783 -4.20010777 0 0 0 Z " fill="#675747" transform="translate(69,61)"/>
<path d="M0 0 C1.98 0 3.96 0 6 0 C6.125 5.75 6.125 5.75 5 8 C4.0925 7.814375 3.185 7.62875 2.25 7.4375 C-0.68314324 7.04265379 -2.2644657 7.05308428 -5 8 C-5.33 6.02 -5.66 4.04 -6 2 C-4.68 2 -3.36 2 -2 2 C-2 2.66 -2 3.32 -2 4 C-1.34 4 -0.68 4 0 4 C0 2.68 0 1.36 0 0 Z " fill="#8C5B3F" transform="translate(54,25)"/>
<path d="M0 0 C1.98 0 3.96 0 6 0 C6.62645012 8.14385151 6.62645012 8.14385151 4.125 11.5625 C2 13 2 13 0 13 C0 8.71 0 4.42 0 0 Z " fill="#5178B5" transform="translate(42,32)"/>
<path d="M0 0 C4.29 0 8.58 0 13 0 C13 1.98 13 3.96 13 6 C11.35 5.67 9.7 5.34 8 5 C8 5.33 8 5.66 8 6 C5.36 6 2.72 6 0 6 C0 4.02 0 2.04 0 0 Z " fill="#155C5E" transform="translate(33,61)"/>
<path d="M0 0 C0.99 0 1.98 0 3 0 C3 0.66 3 1.32 3 2 C3.66 2 4.32 2 5 2 C7 5 7 5 6.84765625 6.984375 C5.79964732 9.47641468 4.53888041 10.56889567 2.4375 12.25 C1.79683594 12.77078125 1.15617187 13.2915625 0.49609375 13.828125 C0.00238281 14.21484375 -0.49132813 14.6015625 -1 15 C-1.66 14.34 -2.32 13.68 -3 13 C-1.02 11.02 0.96 9.04 3 7 C2.690625 6.401875 2.38125 5.80375 2.0625 5.1875 C1 3 1 3 0 0 Z " fill="#2C3536" transform="translate(48,0)"/>
<path d="M0 0 C0 1.98 0 3.96 0 6 C-3.96 5.67 -7.92 5.34 -12 5 C-11.67 3.68 -11.34 2.36 -11 1 C-7.27569643 0.30710631 -3.78916254 -0.11144596 0 0 Z " fill="#0B3639" transform="translate(46,54)"/>
<path d="M0 0 C0.33 1.98 0.66 3.96 1 6 C-1.31 5.67 -3.62 5.34 -6 5 C-5.67 9.62 -5.34 14.24 -5 19 C-5.66 19 -6.32 19 -7 19 C-7.27565727 16.39623726 -7.52127265 13.79544032 -7.75 11.1875 C-7.83121094 10.44951172 -7.91242187 9.71152344 -7.99609375 8.95117188 C-8.171875 6.79296875 -8.171875 6.79296875 -8 3 C-5.3149353 -0.11443316 -4.21079181 0 0 0 Z " fill="#353E4B" transform="translate(48,27)"/>
<path d="M0 0 C2.18847656 0.34204102 2.18847656 0.34204102 4 1 C-0.03330598 5.24809742 -3.88413503 9.09325854 -9 12 C-9.99 12 -10.98 12 -12 12 C-10.09797311 9.96339574 -8.18061509 7.94668664 -6.25 5.9375 C-5.71117187 5.35677734 -5.17234375 4.77605469 -4.6171875 4.17773438 C-3.015625 2.52734375 -3.015625 2.52734375 0 0 Z " fill="#313D3F" transform="translate(22,0)"/>
<path d="M0 0 C0 0.66 0 1.32 0 2 C0.66 2.33 1.32 2.66 2 3 C2 3.66 2 4.32 2 5 C-2.29 4.67 -6.58 4.34 -11 4 C-10.67 2.35 -10.34 0.7 -10 -1 C-3.375 -2.25 -3.375 -2.25 0 0 Z " fill="#05191C" transform="translate(59,64)"/>
<path d="M0 0 C0.33 0 0.66 0 1 0 C1 5.61 1 11.22 1 17 C4.3 17.33 7.6 17.66 11 18 C11 18.33 11 18.66 11 19 C8.36 19 5.72 19 3 19 C3 19.99 3 20.98 3 22 C2.01 22 1.02 22 0 22 C-1.26798493 17.31315199 -0.91105063 12.96705063 -0.5625 8.1875 C-0.51029297 7.39923828 -0.45808594 6.61097656 -0.40429688 5.79882812 C-0.27540731 3.86548471 -0.13850506 1.93267836 0 0 Z " fill="#615046" transform="translate(39,31)"/>
<path d="M0 0 C4.04675616 0.52423887 5.77650056 2.52279598 8.5 5.4375 C11.18459196 8.30137121 13.35138817 10.48250917 17 12 C14.75390625 12.73046875 14.75390625 12.73046875 12 13 C9.90234375 11.48828125 9.90234375 11.48828125 7.9375 9.3125 C7.28652344 8.60738281 6.63554688 7.90226562 5.96484375 7.17578125 C5.31644531 6.45777344 4.66804688 5.73976563 4 5 C3.25878906 4.27167969 2.51757812 3.54335938 1.75390625 2.79296875 C0 1 0 1 0 0 Z " fill="#2B3133" transform="translate(30,14)"/>
<path d="M0 0 C1.32 0.66 2.64 1.32 4 2 C4 2.33 4 2.66 4 3 C0.7 3.33 -2.6 3.66 -6 4 C-6 4.99 -6 5.98 -6 7 C-7.32 7 -8.64 7 -10 7 C-10 8.65 -10 10.3 -10 12 C-10.66 12 -11.32 12 -12 12 C-11.67 10.68 -11.34 9.36 -11 8 C-11.66 8 -12.32 8 -13 8 C-12 5 -12 5 -9.875 3.375 C-6.56218738 1.79061135 -3.63739284 1.35660714 0 1 C0 0.67 0 0.34 0 0 Z " fill="#46413E" transform="translate(64,17)"/>
<path d="M0 0 C2.05078125 0.03255208 4.1015625 0.06510417 6.15234375 0.09765625 C6.15234375 2.07765625 6.15234375 4.05765625 6.15234375 6.09765625 C3.18234375 6.09765625 0.21234375 6.09765625 -2.84765625 6.09765625 C-2.89037725 4.4315372 -2.88829457 2.7638274 -2.84765625 1.09765625 C-1.84765625 0.09765625 -1.84765625 0.09765625 0 0 Z " fill="#186F6F" transform="translate(49.84765625,60.90234375)"/>
<path d="M0 0 C0.99 0.33 1.98 0.66 3 1 C0.66666667 3.33333333 -1.66666667 5.66666667 -4 8 C-3.34 8 -2.68 8 -2 8 C-2 8.66 -2 9.32 -2 10 C-3.98 10 -5.96 10 -8 10 C-8.33 10.66 -8.66 11.32 -9 12 C-9 11.34 -9 10.68 -9 10 C-9.66 9.67 -10.32 9.34 -11 9 C-10.29875 8.62875 -9.5975 8.2575 -8.875 7.875 C-5.38973488 5.60200101 -2.87223102 3.00582316 0 0 Z " fill="#0D1111" transform="translate(55,17)"/>
<path d="M0 0 C2.31 0 4.62 0 7 0 C6.67 0.99 6.34 1.98 6 3 C6.33 3.66 6.66 4.32 7 5 C0.25 6.125 0.25 6.125 -2 5 C-1.34 3.35 -0.68 1.7 0 0 Z " fill="#59432C" transform="translate(58,55)"/>
<path d="M0 0 C1.98 0 3.96 0 6 0 C6 1.98 6 3.96 6 6 C4.33388095 6.042721 2.66617115 6.04063832 1 6 C0 5 0 5 -0.0625 2.4375 C-0.041875 1.633125 -0.02125 0.82875 0 0 Z " fill="#9C6242" transform="translate(54,25)"/>
<path d="M0 0 C2.88575819 0.39803561 3.82189513 0.79009069 5.75 3.0625 C6.36875 4.0215625 6.36875 4.0215625 7 5 C4.36 4.67 1.72 4.34 -1 4 C-1 4.66 -1 5.32 -1 6 C-1.99 5.67 -2.98 5.34 -4 5 C-2.68 3.35 -1.36 1.7 0 0 Z " fill="#1F2C2F" transform="translate(60,12)"/>
<path d="M0 0 C0.66 0.33 1.32 0.66 2 1 C-1.63 4.63 -5.26 8.26 -9 12 C-9.33 11.01 -9.66 10.02 -10 9 C-6.7 6.03 -3.4 3.06 0 0 Z " fill="#0B8788" transform="translate(15,11)"/>
<path d="M0 0 C0.33 0.66 0.66 1.32 1 2 C1.99 2 2.98 2 4 2 C4 2.66 4 3.32 4 4 C4.99 4 5.98 4 7 4 C6.67 4.99 6.34 5.98 6 7 C6 6.34 6 5.68 6 5 C3.36 5.99 0.72 6.98 -2 8 C-2 6.02 -2 4.04 -2 2 C-1.34 2 -0.68 2 0 2 C0 1.34 0 0.68 0 0 Z " fill="#24170E" transform="translate(63,56)"/>
<path d="M0 0 C2.97 0 5.94 0 9 0 C8.67 0.99 8.34 1.98 8 3 C5.36 3 2.72 3 0 3 C0 2.01 0 1.02 0 0 Z " fill="#145656" transform="translate(42,50)"/>
<path d="M0 0 C1.9375 0.875 1.9375 0.875 3.9375 3.875 C3.195 3.648125 2.4525 3.42125 1.6875 3.1875 C-1.12164993 2.58023302 -1.12164993 2.58023302 -3.375 4.3125 C-3.931875 4.828125 -4.48875 5.34375 -5.0625 5.875 C-5.0625 2.875 -5.0625 2.875 -3.8125 1.125 C-2.0625 -0.125 -2.0625 -0.125 0 0 Z " fill="#192021" transform="translate(28.0625,10.125)"/>
<path d="M0 0 C0.66 0 1.32 0 2 0 C2 1.98 2 3.96 2 6 C1.01 6 0.02 6 -1 6 C-1.33 6.99 -1.66 7.98 -2 9 C-2 7.02 -2 5.04 -2 3 C-1.34 3 -0.68 3 0 3 C0 2.01 0 1.02 0 0 Z " fill="#103A4D" transform="translate(52,33)"/>
<path d="M0 0 C1.32 0 2.64 0 4 0 C4 1.98 4 3.96 4 6 C2.68 5.67 1.36 5.34 0 5 C0 3.35 0 1.7 0 0 Z " fill="#104447" transform="translate(57,61)"/>
<path d="M0 0 C2.64 0 5.28 0 8 0 C6.515 1.98 6.515 1.98 5 4 C3.0625 3.6875 3.0625 3.6875 1 3 C0.67 2.01 0.34 1.02 0 0 Z " fill="#343939" transform="translate(6,25)"/>
<path d="M0 0 C0.66 0.99 1.32 1.98 2 3 C0.35 4.32 -1.3 5.64 -3 7 C-3.66 6.34 -4.32 5.68 -5 5 C-3.35 3.35 -1.7 1.7 0 0 Z " fill="#3E494A" transform="translate(50,8)"/>
<path d="M0 0 C0.99 0 1.98 0 3 0 C3 1.98 3 3.96 3 6 C2.01 6 1.02 6 0 6 C0 4.02 0 2.04 0 0 Z " fill="#BC914C" transform="translate(47,54)"/>
<path d="M0 0 C2.31 0 4.62 0 7 0 C6.67 0.99 6.34 1.98 6 3 C4.35 3 2.7 3 1 3 C0.67 2.01 0.34 1.02 0 0 Z " fill="#705132" transform="translate(58,55)"/>
</svg>
