<?xml version="1.0" encoding="UTF-8"?>
<svg version="1.1" xmlns="http://www.w3.org/2000/svg" width="70" height="69">
<path d="M0 0 C2.64 0 5.28 0 8 0 C8 3.96 8 7.92 8 12 C8.804375 12.061875 9.60875 12.12375 10.4375 12.1875 C17.91183862 13.89217372 23.46848094 17.46288439 27.78125 23.82421875 C31.41551081 30.31230616 33.37475837 37.07773296 31.3203125 44.43359375 C30.595988 46.64450807 29.82814695 48.82611425 29 51 C29.54140625 51.2165625 30.0828125 51.433125 30.640625 51.65625 C33.81645344 53.46499997 36.20728081 55.91723799 38.75 58.5 C39.25660156 58.99886719 39.76320312 59.49773438 40.28515625 60.01171875 C44 63.74658861 44 63.74658861 44 66 C44.66 66 45.32 66 46 66 C46.33 66.99 46.66 67.98 47 69 C44.54159395 69.02691685 42.08348118 69.04679802 39.625 69.0625 C38.92632812 69.07087891 38.22765625 69.07925781 37.5078125 69.08789062 C32.2265625 69.11328125 32.2265625 69.11328125 30 68 C30 67.34 30 66.68 30 66 C29.360625 65.731875 28.72125 65.46375 28.0625 65.1875 C26 64 26 64 25 61 C24.34 61 23.68 61 23 61 C23 60.34 23 59.68 23 59 C22.52691406 59.33773437 22.05382813 59.67546875 21.56640625 60.0234375 C14.58089795 64.73491093 7.77122017 66.89102072 -0.67578125 65.59375 C-9.02838179 63.45997642 -15.20312531 59.14201343 -20 52 C-23.43653456 46.0106112 -23.62874619 39.77190567 -23 33 C-22 29.3125 -22 29.3125 -21 27 C-20.34 27 -19.68 27 -19 27 C-19 25.68 -19 24.36 -19 23 C-18.34 23 -17.68 23 -17 23 C-16.79375 22.443125 -16.5875 21.88625 -16.375 21.3125 C-13.97722124 17.27987209 -11.05016687 14.6521738 -6.60546875 13.23828125 C-4.40845622 12.75044067 -2.22558725 12.33136521 0 12 C0 11.05125 0 10.1025 0 9.125 C0 6.08333333 0 3.04166667 0 0 Z " fill="#E6EEF1" transform="translate(23,0)"/>
<path d="M0 0 C1.37140538 4.11421615 1.31493942 8.24772818 1.4296875 12.55078125 C1.58022015 16.48745583 1.58022015 16.48745583 3.46484375 19.83203125 C3.97144531 20.21746094 4.47804688 20.60289063 5 21 C6.1875 23.1875 6.1875 23.1875 7 25 C7.66 24.34 8.32 23.68 9 23 C11.33203125 22.59765625 11.33203125 22.59765625 14 23 C16.38671875 24.93359375 16.38671875 24.93359375 18.6875 27.4375 C21.52056245 30.64840802 21.52056245 30.64840802 25 33 C25 33.66 25 34.32 25 35 C25.54140625 35.2165625 26.0828125 35.433125 26.640625 35.65625 C29.81645344 37.46499997 32.20728081 39.91723799 34.75 42.5 C35.25660156 42.99886719 35.76320312 43.49773438 36.28515625 44.01171875 C40 47.74658861 40 47.74658861 40 50 C40.66 50 41.32 50 42 50 C42.33 50.99 42.66 51.98 43 53 C40.54159395 53.02691685 38.08348118 53.04679802 35.625 53.0625 C34.92632812 53.07087891 34.22765625 53.07925781 33.5078125 53.08789062 C28.2265625 53.11328125 28.2265625 53.11328125 26 52 C26 51.34 26 50.68 26 50 C25.360625 49.731875 24.72125 49.46375 24.0625 49.1875 C22 48 22 48 21 45 C20.34 45 19.68 45 19 45 C19 44.34 19 43.68 19 43 C18.34 43 17.68 43 17 43 C16.071875 42.0409375 16.071875 42.0409375 15.125 41.0625 C13.24388249 38.87814522 13.24388249 38.87814522 11.0625 38.5625 C7.70920525 37.64796507 6.16657402 35.63502246 4 33 C3.1875 29.6875 3.1875 29.6875 3 27 C1.35 27 -0.3 27 -2 27 C-2.66 25.68 -3.32 24.36 -4 23 C-9.94 23 -15.88 23 -22 23 C-19.91142384 10.12044702 -19.91142384 10.12044702 -14.2421875 5.59765625 C-9.66892683 2.50397992 -5.3955197 1.05983423 0 0 Z " fill="#80D9DD" transform="translate(27,16)"/>
<path d="M0 0 C4.18417403 1.63873844 6.98397805 4.71294346 10.078125 7.84765625 C10.93528107 8.70549965 10.93528107 8.70549965 11.80975342 9.58067322 C13.01226448 10.78619786 14.21235172 11.99414454 15.41015625 13.2043457 C17.25205899 15.06457948 19.10191366 16.91661217 20.953125 18.76757812 C22.12026614 19.93963188 23.28694913 21.11214207 24.453125 22.28515625 C25.00929504 22.84243912 25.56546509 23.39972198 26.13848877 23.97389221 C30 27.88393472 30 27.88393472 30 29 C26.00482674 30.12130642 23.00104937 30.15555421 19 29 C15.36619723 26.24096695 12.33188949 22.9094522 9.30444336 19.51147461 C5.69272349 15.48206956 3.3701724 13.42681953 -2 12 C-2.66 11.01 -3.32 10.02 -4 9 C-3.34 9 -2.68 9 -2 9 C-2 8.34 -2 7.68 -2 7 C-1.484375 6.54625 -0.96875 6.0925 -0.4375 5.625 C0.036875 5.08875 0.51125 4.5525 1 4 C0.77242269 1.83700789 0.77242269 1.83700789 0 0 Z " fill="#FADE7C" transform="translate(38,40)"/>
<path d="M0 0 C0.33 0 0.66 0 1 0 C1.03738281 0.61488281 1.07476562 1.22976562 1.11328125 1.86328125 C1.21189453 3.07564453 1.21189453 3.07564453 1.3125 4.3125 C1.39951172 5.51326172 1.39951172 5.51326172 1.48828125 6.73828125 C2.0906803 9.40079309 2.98334151 10.23027928 5 12 C6.1875 14.1875 6.1875 14.1875 7 16 C7.66 15.34 8.32 14.68 9 14 C11.33203125 13.59765625 11.33203125 13.59765625 14 14 C16.38671875 15.93359375 16.38671875 15.93359375 18.6875 18.4375 C21.52056245 21.64840802 21.52056245 21.64840802 25 24 C25 24.66 25 25.32 25 26 C25.54140625 26.2165625 26.0828125 26.433125 26.640625 26.65625 C29.81645344 28.46499997 32.20728081 30.91723799 34.75 33.5 C35.25660156 33.99886719 35.76320312 34.49773438 36.28515625 35.01171875 C40 38.74658861 40 38.74658861 40 41 C40.66 41 41.32 41 42 41 C42.33 41.99 42.66 42.98 43 44 C38.80374091 42.36221955 36.01323215 39.26676818 32.921875 36.1171875 C32.35043762 35.54292023 31.77900024 34.96865295 31.19024658 34.37698364 C29.37207055 32.5476419 27.56098508 30.71145807 25.75 28.875 C24.51608671 27.63105226 23.28171678 26.3875573 22.046875 25.14453125 C19.02593257 22.10157633 16.01132908 19.05246746 13 16 C12.67 16.66 12.34 17.32 12 18 C12.66 18.33 13.32 18.66 14 19 C13.34 19 12.68 19 12 19 C11.67 19.99 11.34 20.98 11 22 C10.34 22 9.68 22 9 22 C9 23.32 9 24.64 9 26 C10.00160156 26.34675781 11.00320312 26.69351563 12.03515625 27.05078125 C16.79516397 29.09078456 19.92137984 32.47790021 23.4375 36.1875 C24.39172852 37.16879883 24.39172852 37.16879883 25.36523438 38.16992188 C26.91972888 39.7711681 28.46404153 41.38099948 30 43 C29.01 43.495 29.01 43.495 28 44 C27.01 43.505 27.01 43.505 26 43 C26 42.34 26 41.68 26 41 C25.360625 40.731875 24.72125 40.46375 24.0625 40.1875 C22 39 22 39 21 36 C20.34 36 19.68 36 19 36 C19 35.34 19 34.68 19 34 C18.34 34 17.68 34 17 34 C16.38125 33.360625 15.7625 32.72125 15.125 32.0625 C13.24388249 29.87814522 13.24388249 29.87814522 11.0625 29.5625 C7.70920525 28.64796507 6.16657402 26.63502246 4 24 C3.1875 20.6875 3.1875 20.6875 3 18 C1.35 18 -0.3 18 -2 18 C-2.66 16.68 -3.32 15.36 -4 14 C-7.3 14 -10.6 14 -14 14 C-14 13.67 -14 13.34 -14 13 C-10.7 13 -7.4 13 -4 13 C-3.34 11.68 -2.68 10.36 -2 9 C-1.34 9 -0.68 9 0 9 C0 6.03 0 3.06 0 0 Z " fill="#252629" transform="translate(27,25)"/>
<path d="M0 0 C2.64 0 5.28 0 8 0 C8 3.96 8 7.92 8 12 C8.804375 12.061875 9.60875 12.12375 10.4375 12.1875 C17.91183862 13.89217372 23.46848094 17.46288439 27.78125 23.82421875 C31.04126918 29.64418889 32.63253406 35.29513897 32 42 C31 45.4375 31 45.4375 30 48 C29.34 48 28.68 48 28 48 C28.165 47.360625 28.33 46.72125 28.5 46.0625 C29.82034675 37.97537615 29.22125434 31.19396866 25 24 C19.3330743 17.18178014 12.69605133 14.52178348 4.0625 13.5625 C-3.97339086 13.91467052 -10.83950362 18.17874196 -17 23 C-15.48591126 18.91196041 -12.69210079 16.19049167 -9 14 C-6.03304511 13.0561889 -3.07695535 12.45812446 0 12 C0 11.05125 0 10.1025 0 9.125 C0 6.08333333 0 3.04166667 0 0 Z " fill="#504937" transform="translate(23,0)"/>
<path d="M0 0 C0.66 0 1.32 0 2 0 C1.835 0.763125 1.67 1.52625 1.5 2.3125 C0.20898653 11.83372432 0.61354067 19.39931727 5.625 27.6875 C11.28304056 33.19664476 17.34852785 35.72839755 25.21875 36.1484375 C29.76580608 35.90575754 33.74804728 34.53100615 38 33 C39.32908739 32.65012059 40.66129145 32.3110439 42 32 C37.69827146 36.84320486 33.2540644 37.95197558 27 39 C19.13453373 39.4542761 11.78783902 36.32590743 5.91796875 31.171875 C-0.5269485 24.27920561 -2.4855218 17.92250918 -2.23828125 8.56640625 C-1.95295994 5.49335544 -1.22428134 2.83115059 0 0 Z " fill="#242529" transform="translate(2,27)"/>
<path d="M0 0 C0.67095703 0.58007812 0.67095703 0.58007812 1.35546875 1.171875 C1.96003906 1.69265625 2.56460938 2.2134375 3.1875 2.75 C3.82171875 3.2965625 4.4559375 3.843125 5.109375 4.40625 C6.68220486 5.73210658 8.30440766 6.99912076 9.9375 8.25 C10.618125 8.8275 11.29875 9.405 12 10 C12 10.66 12 11.32 12 12 C12.81210937 12.32484375 12.81210937 12.32484375 13.640625 12.65625 C16.81645344 14.46499997 19.20728081 16.91723799 21.75 19.5 C22.25660156 19.99886719 22.76320313 20.49773438 23.28515625 21.01171875 C27 24.74658861 27 24.74658861 27 27 C27.66 27 28.32 27 29 27 C29.33 27.99 29.66 28.98 30 30 C25.82791008 28.36033597 23.01878371 25.30728471 19.921875 22.1875 C19.35043762 21.61797607 18.77900024 21.04845215 18.19024658 20.46166992 C16.98765211 19.2604332 15.78756666 18.05668003 14.58984375 16.85058594 C12.74959283 14.99959045 10.89887367 13.15954554 9.046875 11.3203125 C7.87956616 10.15168276 6.71287749 8.98243316 5.546875 7.8125 C4.99070496 7.26037842 4.43453491 6.70825684 3.86151123 6.1394043 C0 2.22993635 0 2.22993635 0 0 Z " fill="#1C1D20" transform="translate(40,39)"/>
<path d="M0 0 C8.76407148 3.43689078 12.92655609 7.49631418 17 16 C19.80545083 22.67964483 19.62477149 28.27402305 17 35 C16.34 35 15.68 35 15 35 C15.165 34.360625 15.33 33.72125 15.5 33.0625 C16.81698158 24.99598782 16.24492939 18.16553541 12 11 C8.3657295 6.88773567 4.36786001 3.50971063 -1 2 C-0.67 1.34 -0.34 0.68 0 0 Z " fill="#232429" transform="translate(36,13)"/>
<path d="M0 0 C2 2 2 2 2 4 C3.73322841 6.31097122 4.82030507 6.9561333 7.65625 7.6484375 C12.27768061 9.51644567 14.98504393 12.55103797 18.375 16.125 C19.01566406 16.78371094 19.65632813 17.44242188 20.31640625 18.12109375 C21.88709883 19.73867268 23.44765097 21.36484203 25 23 C24.34 23.33 23.68 23.66 23 24 C22.34 23.67 21.68 23.34 21 23 C21 22.34 21 21.68 21 21 C20.360625 20.731875 19.72125 20.46375 19.0625 20.1875 C17 19 17 19 16 16 C15.34 16 14.68 16 14 16 C14 15.34 14 14.68 14 14 C13.34 14 12.68 14 12 14 C11.38125 13.360625 10.7625 12.72125 10.125 12.0625 C8.24388249 9.87814522 8.24388249 9.87814522 6.0625 9.5625 C2.73330021 8.65453642 1.13029246 6.61721645 -1 4 C-0.8125 1.6875 -0.8125 1.6875 0 0 Z " fill="#29292A" transform="translate(32,45)"/>
<path d="M0 0 C2.31 1.65 4.62 3.3 7 5 C7.33 4.01 7.66 3.02 8 2 C8.99 2 9.98 2 11 2 C11 2.66 11 3.32 11 4 C11.66 4.33 12.32 4.66 13 5 C12.34 5 11.68 5 11 5 C10.67 5.99 10.34 6.98 10 8 C9.34 8 8.68 8 8 8 C8 8.66 8 9.32 8 10 C6.68 9.67 5.36 9.34 4 9 C4 8.34 4 7.68 4 7 C3.34 6.67 2.68 6.34 2 6 C1.27306096 4.02111039 0.60183749 2.02045442 0 0 Z " fill="#9C8C59" transform="translate(28,39)"/>
<path d="M0 0 C0.33 1.32 0.66 2.64 1 4 C0.34 3.67 -0.32 3.34 -1 3 C-0.67 2.01 -0.34 1.02 0 0 Z M-1 4 C-1 4.66 -1 5.32 -1 6 C-1.96099609 6.34611328 -1.96099609 6.34611328 -2.94140625 6.69921875 C-8.64262034 8.84885685 -13.2016964 11.24480588 -18 15 C-16.47848431 10.89190765 -13.56070382 8.38222029 -10 6 C-6.73680253 4.65633045 -4.52216067 4 -1 4 Z " fill="#232428" transform="translate(24,8)"/>
<path d="M0 0 C4.52615993 3.67832017 8.39424999 7.41086363 12 12 C10.68 11.67 9.36 11.34 8 11 C8 10.34 8 9.68 8 9 C7.360625 8.731875 6.72125 8.46375 6.0625 8.1875 C4 7 4 7 3 4 C2.34 4 1.68 4 1 4 C0.67 2.68 0.34 1.36 0 0 Z " fill="#1D2022" transform="translate(45,57)"/>
<path d="M0 0 C2.125 0.375 2.125 0.375 4 1 C3.67 1.66 3.34 2.32 3 3 C2.01 3 1.02 3 0 3 C-0.33 3.99 -0.66 4.98 -1 6 C-1.625 4.125 -1.625 4.125 -2 2 C-1.34 1.34 -0.68 0.68 0 0 Z " fill="#A6ACB5" transform="translate(26,35)"/>
</svg>
