<?xml version="1.0" encoding="UTF-8"?>
<svg version="1.1" xmlns="http://www.w3.org/2000/svg" width="512" height="512">
<path d="M0 0 C0.96465179 -0.0159874 1.92930359 -0.03197479 2.92318726 -0.04844666 C3.96383331 -0.05380936 5.00447937 -0.05917206 6.07666016 -0.06469727 C7.14816315 -0.07372574 8.21966614 -0.08275421 9.32363892 -0.09205627 C11.5915446 -0.10657072 13.85949228 -0.11544847 16.12744141 -0.11914062 C19.59560797 -0.13103453 23.06199434 -0.18020869 26.52978516 -0.23071289 C28.73290147 -0.24017722 30.93602871 -0.24741221 33.13916016 -0.25219727 C34.17575775 -0.27172958 35.21235535 -0.2912619 36.28036499 -0.31138611 C40.98872159 -0.28191401 43.46324664 -0.23979969 47.39306641 2.52099609 C49.36079113 5.48740352 49.88183711 6.91706687 49.90478516 10.43139648 C49.91123047 11.38530273 49.91767578 12.33920898 49.92431641 13.32202148 C49.90498047 14.30686523 49.88564453 15.29170898 49.86572266 16.30639648 C49.88505859 17.29124023 49.90439453 18.27608398 49.92431641 19.29077148 C49.89199656 24.07410839 49.82782644 26.52619212 46.88916016 30.43139648 C42.37100175 33.6300927 38.37981504 33.42937308 33.05322266 33.36889648 C32.30363281 33.36438477 31.55404297 33.35987305 30.78173828 33.35522461 C28.93469883 33.34346003 27.08770052 33.32552514 25.24072266 33.30639648 C25.24072266 37.92639648 25.24072266 42.54639648 25.24072266 47.30639648 C26.48208984 47.25999023 27.72345703 47.21358398 29.00244141 47.16577148 C30.64434436 47.12824227 32.28627343 47.09184335 33.92822266 47.05639648 C34.74484375 47.02288086 35.56146484 46.98936523 36.40283203 46.95483398 C40.54364273 46.88777632 42.66821116 46.94792874 46.26025391 49.19702148 C49.88513574 53.05784237 49.37095079 56.55307788 49.33837891 61.59545898 C49.33625648 62.82309464 49.33625648 62.82309464 49.33409119 64.07553101 C49.32848555 66.69418973 49.31593214 69.31276352 49.30322266 71.93139648 C49.29820838 73.70483275 49.29364535 75.47827036 49.28955078 77.25170898 C49.2785143 81.6033043 49.26124591 85.95483598 49.24072266 90.30639648 C50.074021 90.42611816 50.90731934 90.54583984 51.76586914 90.66918945 C83.01638045 95.29375477 113.25718227 107.85956409 138.24072266 127.30639648 C139.02833984 127.88518555 139.81595703 128.46397461 140.62744141 129.06030273 C147.09063356 133.87578701 152.93461458 139.38878295 158.77929688 144.92407227 C160.00006671 146.07876635 161.23055954 147.22316983 162.46337891 148.36499023 C196.21959783 180.59628756 216.20102184 230.84106922 217.47900391 277.01733398 C217.85532952 302.9227758 217.42011009 335.56905442 203.24072266 358.30639648 C199.99072266 359.36889648 199.99072266 359.36889648 197.24072266 359.30639648 C195.53407188 362.73256504 194.88512681 365.47556109 195.24072266 369.30639648 C198.49881535 374.40938788 202.84112713 378.38147592 207.19091797 382.55541992 C208.50030688 383.85487256 209.80703287 385.15701318 211.11128235 386.46162415 C213.9234012 389.26292675 216.75350033 392.04417298 219.59918976 394.81136322 C224.09852533 399.18658617 228.55594785 403.60292876 233.00872803 408.02545166 C240.05608138 415.01485396 247.13174501 421.9748005 254.219486 428.92322087 C266.91210964 441.36818258 279.55644213 453.86211868 292.18982196 466.36718583 C296.62481129 470.75484735 301.07217807 475.12945872 305.53030348 479.49360704 C308.30158624 482.20956185 311.06492057 484.93350419 313.82652855 487.65929222 C315.10893961 488.92143573 316.39484366 490.18004143 317.68446541 491.43481636 C319.4448141 493.14835496 321.19242277 494.8739592 322.93756104 496.60296631 C323.45059572 497.09616419 323.96363039 497.58936206 324.49221158 498.09750533 C327.63967909 501.24876054 329.29324436 503.94153641 330.24072266 508.30639648 C329.24072266 510.68139648 329.24072266 510.68139648 327.24072266 512.30639648 C324.30322266 512.80639648 324.30322266 512.80639648 321.24072266 512.30639648 C320.68406921 511.64734314 320.12741577 510.98828979 319.55389404 510.30926514 C316.2983176 507.49041132 313.27644529 507.73336299 309.16748047 507.76049805 C308.35735001 507.75016037 307.54721954 507.73982269 306.71253967 507.72917175 C304.03944014 507.69971502 301.36709683 507.698244 298.69384766 507.69702148 C296.83866936 507.68204174 294.98350442 507.66531503 293.12835693 507.64691162 C288.2490376 507.60320266 283.36989816 507.58323116 278.49041748 507.56817627 C273.50994208 507.54861797 268.52966134 507.50664653 263.54931641 507.46655273 C253.77984514 507.39121222 244.01041737 507.340944 234.24072266 507.30639648 C234.09634766 507.94577148 233.95197266 508.58514648 233.80322266 509.24389648 C233.24072266 511.30639648 233.24072266 511.30639648 232.24072266 512.30639648 C226.71131089 512.5416906 226.71131089 512.5416906 224.24072266 511.30639648 C224.24072266 510.64639648 224.24072266 509.98639648 224.24072266 509.30639648 C223.58072266 509.30639648 222.92072266 509.30639648 222.24072266 509.30639648 C222.24072266 508.64639648 222.24072266 507.98639648 222.24072266 507.30639648 C221.58072266 507.30639648 220.92072266 507.30639648 220.24072266 507.30639648 C220.24072266 506.64639648 220.24072266 505.98639648 220.24072266 505.30639648 C219.58072266 505.30639648 218.92072266 505.30639648 218.24072266 505.30639648 C218.24072266 504.64639648 218.24072266 503.98639648 218.24072266 503.30639648 C217.58072266 503.30639648 216.92072266 503.30639648 216.24072266 503.30639648 C216.24072266 502.64639648 216.24072266 501.98639648 216.24072266 501.30639648 C215.58072266 501.30639648 214.92072266 501.30639648 214.24072266 501.30639648 C214.24072266 500.64639648 214.24072266 499.98639648 214.24072266 499.30639648 C213.58072266 499.30639648 212.92072266 499.30639648 212.24072266 499.30639648 C212.24072266 498.64639648 212.24072266 497.98639648 212.24072266 497.30639648 C211.58072266 497.30639648 210.92072266 497.30639648 210.24072266 497.30639648 C210.24072266 496.64639648 210.24072266 495.98639648 210.24072266 495.30639648 C209.58072266 495.30639648 208.92072266 495.30639648 208.24072266 495.30639648 C208.24072266 494.64639648 208.24072266 493.98639648 208.24072266 493.30639648 C207.58072266 493.30639648 206.92072266 493.30639648 206.24072266 493.30639648 C206.24072266 492.64639648 206.24072266 491.98639648 206.24072266 491.30639648 C205.58072266 491.30639648 204.92072266 491.30639648 204.24072266 491.30639648 C204.24072266 490.64639648 204.24072266 489.98639648 204.24072266 489.30639648 C203.58072266 489.30639648 202.92072266 489.30639648 202.24072266 489.30639648 C202.24072266 488.64639648 202.24072266 487.98639648 202.24072266 487.30639648 C201.58072266 487.30639648 200.92072266 487.30639648 200.24072266 487.30639648 C200.24072266 486.64639648 200.24072266 485.98639648 200.24072266 485.30639648 C199.58072266 485.30639648 198.92072266 485.30639648 198.24072266 485.30639648 C198.24072266 484.64639648 198.24072266 483.98639648 198.24072266 483.30639648 C197.58072266 483.30639648 196.92072266 483.30639648 196.24072266 483.30639648 C196.24072266 482.64639648 196.24072266 481.98639648 196.24072266 481.30639648 C195.58072266 481.30639648 194.92072266 481.30639648 194.24072266 481.30639648 C194.24072266 480.64639648 194.24072266 479.98639648 194.24072266 479.30639648 C193.58072266 479.30639648 192.92072266 479.30639648 192.24072266 479.30639648 C192.24072266 478.64639648 192.24072266 477.98639648 192.24072266 477.30639648 C191.58072266 477.30639648 190.92072266 477.30639648 190.24072266 477.30639648 C190.24072266 476.64639648 190.24072266 475.98639648 190.24072266 475.30639648 C189.58072266 475.30639648 188.92072266 475.30639648 188.24072266 475.30639648 C188.24072266 474.64639648 188.24072266 473.98639648 188.24072266 473.30639648 C187.58072266 473.30639648 186.92072266 473.30639648 186.24072266 473.30639648 C186.24072266 472.64639648 186.24072266 471.98639648 186.24072266 471.30639648 C185.58072266 471.30639648 184.92072266 471.30639648 184.24072266 471.30639648 C184.24072266 470.64639648 184.24072266 469.98639648 184.24072266 469.30639648 C183.58072266 469.30639648 182.92072266 469.30639648 182.24072266 469.30639648 C182.24072266 468.64639648 182.24072266 467.98639648 182.24072266 467.30639648 C181.58072266 467.30639648 180.92072266 467.30639648 180.24072266 467.30639648 C180.24072266 466.64639648 180.24072266 465.98639648 180.24072266 465.30639648 C179.58072266 465.30639648 178.92072266 465.30639648 178.24072266 465.30639648 C178.24072266 464.64639648 178.24072266 463.98639648 178.24072266 463.30639648 C177.58072266 463.30639648 176.92072266 463.30639648 176.24072266 463.30639648 C176.24072266 462.64639648 176.24072266 461.98639648 176.24072266 461.30639648 C175.58072266 461.30639648 174.92072266 461.30639648 174.24072266 461.30639648 C174.24072266 460.64639648 174.24072266 459.98639648 174.24072266 459.30639648 C173.58072266 459.30639648 172.92072266 459.30639648 172.24072266 459.30639648 C172.24072266 458.64639648 172.24072266 457.98639648 172.24072266 457.30639648 C171.58072266 457.30639648 170.92072266 457.30639648 170.24072266 457.30639648 C170.24072266 456.64639648 170.24072266 455.98639648 170.24072266 455.30639648 C169.58072266 455.30639648 168.92072266 455.30639648 168.24072266 455.30639648 C168.24072266 454.64639648 168.24072266 453.98639648 168.24072266 453.30639648 C167.58072266 453.30639648 166.92072266 453.30639648 166.24072266 453.30639648 C166.24072266 452.64639648 166.24072266 451.98639648 166.24072266 451.30639648 C165.58072266 451.30639648 164.92072266 451.30639648 164.24072266 451.30639648 C164.24072266 450.64639648 164.24072266 449.98639648 164.24072266 449.30639648 C163.58072266 449.30639648 162.92072266 449.30639648 162.24072266 449.30639648 C162.24072266 448.64639648 162.24072266 447.98639648 162.24072266 447.30639648 C161.58072266 447.30639648 160.92072266 447.30639648 160.24072266 447.30639648 C160.24072266 446.64639648 160.24072266 445.98639648 160.24072266 445.30639648 C159.58072266 445.30639648 158.92072266 445.30639648 158.24072266 445.30639648 C158.24072266 444.64639648 158.24072266 443.98639648 158.24072266 443.30639648 C157.58072266 443.30639648 156.92072266 443.30639648 156.24072266 443.30639648 C156.24072266 442.64639648 156.24072266 441.98639648 156.24072266 441.30639648 C155.58072266 441.30639648 154.92072266 441.30639648 154.24072266 441.30639648 C154.24072266 440.64639648 154.24072266 439.98639648 154.24072266 439.30639648 C153.58072266 439.30639648 152.92072266 439.30639648 152.24072266 439.30639648 C152.24072266 438.64639648 152.24072266 437.98639648 152.24072266 437.30639648 C151.58072266 437.30639648 150.92072266 437.30639648 150.24072266 437.30639648 C150.24072266 436.64639648 150.24072266 435.98639648 150.24072266 435.30639648 C149.58072266 435.30639648 148.92072266 435.30639648 148.24072266 435.30639648 C148.24072266 434.64639648 148.24072266 433.98639648 148.24072266 433.30639648 C146.26072266 433.63639648 144.28072266 433.96639648 142.24072266 434.30639648 C142.11697266 434.86327148 141.99322266 435.42014648 141.86572266 435.99389648 C138.89110712 446.99997398 128.57196964 451.6402169 119.24462891 457.04858398 C99.72021207 468.14986688 79.30233956 475.98453076 57.24072266 480.30639648 C56.03706055 480.55196289 56.03706055 480.55196289 54.80908203 480.80249023 C15.18028738 488.61843832 -27.43297954 482.46347172 -63.75927734 465.30639648 C-64.4622998 464.98026367 -65.16532227 464.65413086 -65.88964844 464.31811523 C-87.16848255 454.38370489 -104.97009364 440.61154661 -121.75927734 424.30639648 C-122.65404785 423.44340942 -122.65404785 423.44340942 -123.56689453 422.56298828 C-127.45282368 418.75797192 -130.94500298 414.80318344 -134.25927734 410.49389648 C-134.73284668 409.88280029 -135.20641602 409.2717041 -135.69433594 408.64208984 C-156.02387584 382.25111706 -169.99111112 352.23852442 -175.75927734 319.30639648 C-175.93587891 318.32050537 -176.11248047 317.33461426 -176.29443359 316.31884766 C-177.90931835 306.36207385 -178.158448 296.56231683 -178.13427734 286.49389648 C-178.13373352 285.63878479 -178.1331897 284.7836731 -178.13262939 283.90264893 C-178.05727633 258.03363968 -173.45259279 233.65880456 -163.63427734 209.68139648 C-163.14749512 208.48087646 -163.14749512 208.48087646 -162.65087891 207.25610352 C-159.69475357 200.3759844 -159.69475357 200.3759844 -155.75927734 198.30639648 C-155.07865234 198.22389648 -154.39802734 198.14139648 -153.69677734 198.05639648 C-151.34913548 197.38058052 -151.34913548 197.38058052 -149.88427734 194.05639648 C-148.37119691 190.48008053 -148.37119691 190.48008053 -149.82177734 187.86889648 C-150.75927734 185.30639648 -150.75927734 185.30639648 -150.11865234 183.29077148 C-148.32921804 179.578363 -147.26837823 177.64579708 -143.75927734 175.30639648 C-142.97552734 175.40952148 -142.19177734 175.51264648 -141.38427734 175.61889648 C-138.2435526 175.24500068 -137.8622237 174.71020027 -135.94677734 172.30639648 C-133.76562641 169.40714354 -133.76454331 168.19789559 -133.94677734 164.44311523 C-134.04532518 160.8224257 -133.75806253 160.30463703 -131.52880859 157.07592773 C-130.56303819 156.07073813 -129.57661308 155.08503508 -128.57177734 154.11889648 C-128.08902344 153.62454102 -127.60626953 153.13018555 -127.10888672 152.62084961 C-125.67754688 151.16261211 -124.22247208 149.73259262 -122.75927734 148.30639648 C-120.42763198 145.98862996 -118.10485057 143.67762051 -115.86474609 141.27124023 C-89.0520826 112.92954502 -48.83218407 95.8356568 -10.75927734 90.30639648 C-10.76975098 89.30261963 -10.78022461 88.29884277 -10.79101562 87.26464844 C-10.82731188 83.5280313 -10.85021274 79.79142965 -10.86914062 76.0546875 C-10.87917631 74.43975196 -10.89280786 72.82483448 -10.91015625 71.20996094 C-10.93451199 68.88398773 -10.94578482 66.55825553 -10.95458984 64.23217773 C-10.96491241 63.51427567 -10.97523499 62.7963736 -10.98587036 62.05671692 C-10.9870665 56.66976277 -10.32243966 53.06383327 -6.71630859 49.00952148 C-2.56828844 46.62043722 0.86153639 46.86384109 5.55322266 47.05639648 C6.38917969 47.07444336 7.22513672 47.09249023 8.08642578 47.11108398 C10.13835494 47.15798522 12.18969021 47.22972237 14.24072266 47.30639648 C14.24072266 42.68639648 14.24072266 38.06639648 14.24072266 33.30639648 C12.61263672 33.35860352 12.61263672 33.35860352 10.95166016 33.41186523 C9.50636323 33.44002037 8.06104944 33.46731867 6.61572266 33.49389648 C5.90287109 33.5190332 5.19001953 33.54416992 4.45556641 33.57006836 C-0.37650091 33.6365647 -3.54504727 32.91972534 -7.75927734 30.30639648 C-11.59304853 26.4726253 -10.97136447 21.59702605 -11.00927734 16.43139648 C-11.04021484 15.38918945 -11.04021484 15.38918945 -11.07177734 14.32592773 C-11.10771792 9.55481676 -10.32804879 6.32760413 -7.75927734 2.30639648 C-4.56023877 0.1737041 -3.68284731 0.04616833 0 0 Z " fill="#EBF3F6" transform="translate(179.75927734375,-0.306396484375)"/>
<path d="M0 0 C3.0625 0.25 3.0625 0.25 6 1 C7.57255046 4.14510093 7.22572668 7.48765445 7.25 10.9375 C7.2809375 12.03094727 7.2809375 12.03094727 7.3125 13.14648438 C7.35170589 18.49318786 7.35170589 18.49318786 5.609375 21.00390625 C4 22 4 22 2 22 C2 34.87 2 47.74 2 61 C3.32 61.33 4.64 61.66 6 62 C7.41697193 64.83394387 7.11945929 67.20873738 7.11352539 70.37744141 C7.11367142 71.03122269 7.11381744 71.68500397 7.1139679 72.3585968 C7.11327036 74.52295227 7.1054854 76.68722204 7.09765625 78.8515625 C7.09579151 80.35086012 7.09436787 81.85015834 7.09336853 83.34945679 C7.08954779 87.29831622 7.07972128 91.24713896 7.06866455 95.19598389 C7.05844091 99.22440087 7.05386887 103.25282378 7.04882812 107.28125 C7.03809862 115.18751685 7.0210275 123.09375386 7 131 C7.61950531 131.13014496 8.23901062 131.26028992 8.87728882 131.39437866 C9.68912628 131.56893585 10.50096375 131.74349304 11.33740234 131.92333984 C12.14253265 132.0947348 12.94766296 132.26612976 13.77719116 132.44271851 C21.38657861 134.35047177 27.65642855 140.72095111 32 147 C36.51237117 154.66302086 36.62970171 162.28740587 36 171 C35.70609375 171.99773437 35.4121875 172.99546875 35.109375 174.0234375 C34.98329843 177.45452125 35.30864624 177.79253165 37.52734375 180.2109375 C38.64675218 181.2839799 39.78434319 182.33831075 40.9375 183.375 C41.51435547 183.92027344 42.09121094 184.46554687 42.68554688 185.02734375 C44.10845158 186.36793165 45.55229961 187.68622784 47 189 C50.29389931 187.57045136 52.36751596 185.82524799 54.828125 183.2265625 C55.54613281 182.4840625 56.26414063 181.7415625 57.00390625 180.9765625 C58.48995128 179.42073796 59.97179929 177.86089276 61.44921875 176.296875 C66.80921446 170.77445518 71.56291836 166.71244758 79.30859375 165.46875 C98.46789826 165.66010385 108.76917749 179.62027409 121.40429688 192.35969734 C123.60396508 194.57695286 125.80732785 196.79047676 128.01171875 199.0030365 C134.27076667 205.28638748 140.52391662 211.57558532 146.77294922 217.86889648 C150.61224192 221.73488144 154.45631958 225.59605379 158.30343628 229.45425224 C159.76622112 230.92325718 161.22710421 232.39415829 162.68606567 233.86696053 C164.71331329 235.91330142 166.7465331 237.9535215 168.78125 239.99243164 C169.38484848 240.60479172 169.98844696 241.21715179 170.6103363 241.84806824 C173.29712198 244.96117141 173.29712198 244.96117141 177 246 C178.28988171 247.31155968 178.28988171 247.31155968 179.84867859 249.22055054 C185.03057642 255.30619502 190.74986206 260.84854402 196.42114258 266.47119141 C197.67039433 267.71360195 198.91939044 268.95626959 200.16815186 270.19917297 C202.84376704 272.86152509 205.52080208 275.52243826 208.19886208 278.18233109 C212.43405979 282.38956199 216.66373168 286.60231862 220.89225769 290.81625366 C222.34308794 292.26194119 223.79392513 293.70762175 225.2447691 295.15329552 C225.97088906 295.87682992 226.69700902 296.60036432 227.44513261 297.345824 C237.28131897 307.14601378 247.12227908 316.9413729 256.97338867 326.7265625 C263.63279325 333.34149341 270.28507075 339.9635022 276.92933005 346.59364641 C280.4417255 350.0979697 283.95774668 353.59847838 287.48261452 357.09025955 C290.79327119 360.36988802 294.09454962 363.65866753 297.38885498 366.95471764 C298.59876309 368.16192856 299.81210865 369.36570566 301.02911949 370.56575584 C302.69054167 372.20502021 304.3391503 373.85619929 305.98518372 375.51089478 C306.91079007 376.43151514 307.83639643 377.35213551 308.79005146 378.30065346 C311.1492807 381.18233924 312.19441688 383.37870266 313 387 C312 389.375 312 389.375 310 391 C307.0625 391.5 307.0625 391.5 304 391 C303.44334656 390.34094666 302.88669312 389.68189331 302.31317139 389.00286865 C299.05759495 386.18401483 296.03572264 386.4269665 291.92675781 386.45410156 C291.11662735 386.44376389 290.30649689 386.43342621 289.47181702 386.42277527 C286.79871748 386.39331854 284.12637417 386.39184752 281.453125 386.390625 C279.59794671 386.37564526 277.74278177 386.35891855 275.88763428 386.34051514 C271.00831494 386.29680617 266.1291755 386.27683468 261.24969482 386.26177979 C256.26921943 386.24222149 251.28893868 386.20025004 246.30859375 386.16015625 C236.53912249 386.08481573 226.76969471 386.03454752 217 386 C216.855625 386.639375 216.71125 387.27875 216.5625 387.9375 C216 390 216 390 215 391 C209.47058824 391.23529412 209.47058824 391.23529412 207 390 C207 389.34 207 388.68 207 388 C206.34 388 205.68 388 205 388 C205 387.34 205 386.68 205 386 C204.34 386 203.68 386 203 386 C203 385.34 203 384.68 203 384 C202.34 384 201.68 384 201 384 C201 383.34 201 382.68 201 382 C200.34 382 199.68 382 199 382 C199 381.34 199 380.68 199 380 C198.34 380 197.68 380 197 380 C197 379.34 197 378.68 197 378 C196.34 378 195.68 378 195 378 C195 377.34 195 376.68 195 376 C194.34 376 193.68 376 193 376 C193 375.34 193 374.68 193 374 C192.34 374 191.68 374 191 374 C191 373.34 191 372.68 191 372 C190.34 372 189.68 372 189 372 C189 371.34 189 370.68 189 370 C188.34 370 187.68 370 187 370 C187 369.34 187 368.68 187 368 C186.34 368 185.68 368 185 368 C185 367.34 185 366.68 185 366 C184.34 366 183.68 366 183 366 C183 365.34 183 364.68 183 364 C182.34 364 181.68 364 181 364 C181 363.34 181 362.68 181 362 C180.34 362 179.68 362 179 362 C179 361.34 179 360.68 179 360 C178.34 360 177.68 360 177 360 C177 359.34 177 358.68 177 358 C176.34 358 175.68 358 175 358 C175 357.34 175 356.68 175 356 C174.34 356 173.68 356 173 356 C173 355.34 173 354.68 173 354 C172.34 354 171.68 354 171 354 C171 353.34 171 352.68 171 352 C170.34 352 169.68 352 169 352 C169 351.34 169 350.68 169 350 C168.34 350 167.68 350 167 350 C167 349.34 167 348.68 167 348 C166.34 348 165.68 348 165 348 C165 347.34 165 346.68 165 346 C164.34 346 163.68 346 163 346 C163 345.34 163 344.68 163 344 C162.34 344 161.68 344 161 344 C161 343.34 161 342.68 161 342 C160.34 342 159.68 342 159 342 C159 341.34 159 340.68 159 340 C158.34 340 157.68 340 157 340 C157 339.34 157 338.68 157 338 C156.34 338 155.68 338 155 338 C155 337.34 155 336.68 155 336 C154.34 336 153.68 336 153 336 C153 335.34 153 334.68 153 334 C152.34 334 151.68 334 151 334 C151 333.34 151 332.68 151 332 C150.34 332 149.68 332 149 332 C149 331.34 149 330.68 149 330 C148.34 330 147.68 330 147 330 C147 329.34 147 328.68 147 328 C146.34 328 145.68 328 145 328 C145 327.34 145 326.68 145 326 C144.34 326 143.68 326 143 326 C143 325.34 143 324.68 143 324 C142.34 324 141.68 324 141 324 C141 323.34 141 322.68 141 322 C140.34 322 139.68 322 139 322 C139 321.34 139 320.68 139 320 C138.34 320 137.68 320 137 320 C137 319.34 137 318.68 137 318 C136.34 318 135.68 318 135 318 C135 317.34 135 316.68 135 316 C134.34 316 133.68 316 133 316 C133 315.34 133 314.68 133 314 C132.34 314 131.68 314 131 314 C131 313.34 131 312.68 131 312 C130.09048584 311.59696655 130.09048584 311.59696655 129.16259766 311.18579102 C126.41243573 309.67782799 124.81953808 307.53841516 122.84667969 305.14404297 C119.02927871 300.71194152 114.77803831 296.6770294 110.625 292.5625 C109.23474609 291.17901367 109.23474609 291.17901367 107.81640625 289.76757812 C105.54654154 287.50941375 103.27436462 285.25363058 101 283 C100.33033203 283.21148682 99.66066406 283.42297363 98.97070312 283.64086914 C98.08318359 283.91535889 97.19566406 284.18984863 96.28125 284.47265625 C94.96737305 284.88269897 94.96737305 284.88269897 93.62695312 285.30102539 C85.73591579 287.40065735 79.11321971 285.80752583 72 282 C68.49577319 279.28075294 65.43592387 276.20891073 62.34375 273.03515625 C61.47480103 272.16483261 60.60585205 271.29450897 59.71057129 270.39781189 C57.88843104 268.56665531 56.07353971 266.72825959 54.265625 264.88305664 C51.49632989 262.05875699 48.70353678 259.2594418 45.90625 256.46289062 C44.1339909 254.67589205 42.36310825 252.88752709 40.59375 251.09765625 C39.76049194 250.26105972 38.92723389 249.4244632 38.06872559 248.56251526 C36.91612244 247.38120277 36.91612244 247.38120277 35.74023438 246.17602539 C35.06424194 245.48859756 34.38824951 244.80116974 33.69177246 244.09291077 C29.83632522 239.32329356 29.58402477 234.59466685 29.6640625 228.671875 C30.14933221 224.81228803 31.48366089 222.90951709 34 220 C30.09582269 211.38136738 21.85290746 203.10698034 14 198 C8.36974937 196.29700297 2.75061557 197.18063795 -2.99560547 197.85986328 C-9.98069855 198.34822423 -15.23657882 194.05727619 -20.3125 189.8125 C-26.0975194 184.29126293 -29.51652525 178.84388285 -31 171 C-31.8054425 170.99413376 -32.61088501 170.98826752 -33.44073486 170.98222351 C-41.03322857 170.92430717 -48.62539371 170.85223701 -56.21759415 170.76428509 C-60.12079044 170.71956727 -64.02388202 170.68031451 -67.92724609 170.65356445 C-71.69460155 170.62754516 -75.46155435 170.58715318 -79.22866058 170.53681374 C-80.66550435 170.52013558 -82.10241778 170.50862718 -83.53934479 170.50238609 C-85.55270928 170.49275628 -87.56594702 170.46300123 -89.57910156 170.43237305 C-91.29785492 170.41571846 -91.29785492 170.41571846 -93.05133057 170.39872742 C-96.29594945 169.95998088 -97.7387151 169.34867412 -100 167 C-100 166.01 -100 165.02 -100 164 C-113.2 164 -126.4 164 -140 164 C-140.99 165.98 -140.99 165.98 -142 168 C-145.53236092 170.35490728 -147.24720368 170.32743705 -151.4375 170.375 C-152.57058594 170.40335938 -153.70367187 170.43171875 -154.87109375 170.4609375 C-158 170 -158 170 -160.41796875 168.140625 C-162 166 -162 166 -161.875 163.375 C-161 161 -161 161 -159 159 C-158.01 159 -157.02 159 -156 159 C-156.03480469 158.33097656 -156.06960937 157.66195312 -156.10546875 156.97265625 C-157.03789461 123.8937388 -141.83818676 87.41750016 -120 63 C-119.44828125 62.4328125 -118.8965625 61.865625 -118.328125 61.28125 C-116.42657932 59.27287591 -115.06899277 57.74484028 -114.80859375 54.93359375 C-114.86874696 52.95561483 -114.9340735 50.97779491 -115 49 C-112 47 -112 47 -108.875 47.375 C-103.72682251 46.87678928 -102.00334052 44.6980531 -98.36328125 41.2109375 C-76.02706891 20.31458017 -38.5543698 5.56105716 -8.0625 5.9375 C-7.10472656 5.94652344 -6.14695313 5.95554687 -5.16015625 5.96484375 C-4.44730469 5.97644531 -3.73445312 5.98804687 -3 6 C-2.814375 5.071875 -2.814375 5.071875 -2.625 4.125 C-2 2 -2 2 0 0 Z " fill="#82E0E4" transform="translate(197,121)"/>
<path d="M0 0 C4.61778156 0.1950723 6.66062713 2.19706164 9.78686523 5.42797852 C10.70809677 6.36887833 11.62932831 7.30977814 12.57847595 8.27919006 C13.30661656 9.03691051 13.30661656 9.03691051 14.04946709 9.80993843 C15.57457042 11.39551644 17.11278108 12.96723313 18.6552887 14.53587341 C23.03665598 18.99663598 27.39209742 23.48241097 31.74145508 27.97436523 C34.40592384 30.72430334 37.0848928 33.45943578 39.77287483 36.1863842 C40.79261551 37.22724264 41.806484 38.27388835 42.81423759 39.32635689 C44.22354497 40.79810829 45.65325004 42.25024501 47.08374023 43.70141602 C47.89028549 44.53334976 48.69683075 45.36528351 49.52781677 46.22242737 C52.57943982 48.41663432 54.31961432 48.44235885 58 48 C59.22074971 46.96821552 59.22074971 46.96821552 59.40625 44.80078125 C58.82133845 40.76826602 56.37122905 38.829454 53.5 36.1875 C52.97535156 35.68541016 52.45070313 35.18332031 51.91015625 34.66601562 C50.61777468 33.43237867 49.31030401 32.21458375 48 31 C48.99 29.68 49.98 28.36 51 27 C56.07507984 27.63294647 58.44130349 31.45195745 61.68359375 35.06640625 C63.85204018 37.23075734 63.85204018 37.23075734 66.72265625 37.33984375 C68.96176142 37.23657126 68.96176142 37.23657126 70 36 C70.50202931 33.18514187 70.50202931 33.18514187 70 30 C67.84923893 27.12496757 67.84923893 27.12496757 65 24.625 C64.071875 23.75101562 63.14375 22.87703125 62.1875 21.9765625 C61.1046875 20.99816406 61.1046875 20.99816406 60 20 C60.66 18.68 61.32 17.36 62 16 C65 16 65 16 67.05078125 17.93359375 C68.55379058 19.59754709 70.05381482 21.26420186 71.55078125 22.93359375 C74.44068847 25.37180893 76.24786293 25.88096669 80 26 C82.2951652 24.15382813 82.2951652 24.15382813 82.125 21.3125 C80.65654912 16.98872797 78.25034729 15.2744362 74.71484375 12.515625 C74.14894531 12.01546875 73.58304687 11.5153125 73 11 C73 10.34 73 9.68 73 9 C79.22285529 8.62662868 83.09572615 9.50458355 87.8967998 13.62977242 C90.15414183 15.77208049 92.35277185 17.96278342 94.54208374 20.17459106 C95.81159124 21.43919531 95.81159124 21.43919531 97.10674536 22.72934711 C99.44741289 25.06400022 101.78117984 27.40518079 104.11224961 29.7493937 C106.63026624 32.27832402 109.1569462 34.79857293 111.68255615 37.31991577 C116.62496634 42.25669672 121.5593722 47.20140429 126.4911534 52.14880098 C132.23130587 57.90649272 137.97951047 63.65611727 143.72811003 69.4053732 C153.97992985 79.65888046 164.22467072 89.91943125 174.46533203 100.18408203 C184.41104944 110.15308115 194.36132324 120.11750142 204.31689453 130.07666016 C204.93063928 130.69062767 205.54438403 131.30459519 206.1767271 131.93716778 C207.41306573 133.173949 208.64940464 134.41072993 209.88574383 135.64751058 C210.49556238 136.25754869 211.10538092 136.8675868 211.73367882 137.49611092 C212.64604573 138.40880181 212.64604573 138.40880181 213.5768443 139.3399309 C223.05537844 148.8221612 232.53007995 158.30822049 242.00424921 167.7948117 C245.44258196 171.23758553 248.88141717 174.67985657 252.32059829 178.12178291 C257.77200523 183.57761333 263.22174583 189.03509668 268.66805618 194.49601521 C271.15794053 196.99252583 273.64860719 199.48824224 276.14141464 201.98183441 C278.83694863 204.67829456 281.5286017 207.37860648 284.21981812 210.07937622 C285.01726075 210.87595237 285.81470338 211.67252852 286.63631094 212.49324334 C287.35019023 213.21096378 288.06406953 213.92868422 288.79958153 214.66815376 C289.4221082 215.29192693 290.04463486 215.91570009 290.68602598 216.55837548 C292 218 292 218 292 219 C281.37777975 219.1389672 270.75577541 219.24560421 260.13283157 219.31087303 C255.20020715 219.3421978 250.2682042 219.38469129 245.3359375 219.45263672 C240.57670734 219.51778879 235.8180752 219.55369741 231.05843353 219.56926346 C229.24185519 219.58035733 227.4253099 219.60202161 225.6089859 219.63438034 C223.06575089 219.67789085 220.52499211 219.68393672 217.98144531 219.68115234 C217.22906586 219.702724 216.4766864 219.72429565 215.70150757 219.746521 C213.59405518 219.7215271 213.59405518 219.7215271 210 219 C208.12799072 216.60043335 208.12799072 216.60043335 207.22451401 214.94363594 C204.28455773 210.27712772 199.86444796 206.58847892 195.97070312 202.71191406 C194.9417194 201.68021741 193.91316101 200.6480964 192.88499451 199.61558533 C190.10251982 196.82402257 187.31379181 194.03878748 184.52359581 191.2549448 C181.60098642 188.33741123 178.68327375 185.41498715 175.76477051 182.49334717 C170.86581464 177.59075743 165.96266725 172.6923894 161.05712891 167.79638672 C155.3865889 162.13674228 149.7233061 156.46991254 144.06371546 150.79932046 C139.20020181 145.92673194 134.33280288 141.05805035 129.46213293 136.19261527 C126.55475564 133.28835501 123.64874424 130.38276267 120.74623108 127.47364044 C118.01912598 124.74075921 115.28717698 122.01281473 112.55140877 119.28860664 C111.54833248 118.28817498 110.54695447 117.28603722 109.54740715 116.2820797 C108.1830008 114.91220925 106.81182059 113.54909559 105.44030762 112.18634033 C104.67488396 111.42167072 103.9094603 110.65700111 103.12084198 109.8691597 C99.15082391 106.37026735 96.27429235 105.67928164 90.93359375 105.796875 C88.87150599 105.91912567 88.87150599 105.91912567 86.625 107 C83.98069683 108.00735359 81.99921621 108.32881484 79.1875 108.5 C78.39730469 108.5515625 77.60710937 108.603125 76.79296875 108.65625 C69.39145868 106.91715393 63.43897607 99.72628005 58.25390625 94.484375 C57.20903297 93.43881439 57.20903297 93.43881439 56.14305115 92.37213135 C54.68616429 90.91224613 53.23168527 89.44995432 51.77954102 87.98535156 C49.54958534 85.73697868 47.31156927 83.4968716 45.07226562 81.2578125 C43.65317033 79.83380704 42.2345337 78.40934431 40.81640625 76.984375 C40.14670303 76.31355896 39.47699982 75.64274292 38.78700256 74.95159912 C38.17223557 74.33045227 37.55746857 73.70930542 36.92407227 73.06933594 C36.38194595 72.52339783 35.83981964 71.97745972 35.28126526 71.41497803 C32.5782852 68.42991513 32.91545323 65.88915154 33 62 C34.32 61.34 35.64 60.68 37 60 C37.39791748 60.41886475 37.79583496 60.83772949 38.20581055 61.26928711 C40.02237712 63.16922842 41.85459322 65.0533231 43.6875 66.9375 C44.31333984 67.59685547 44.93917969 68.25621094 45.58398438 68.93554688 C49.22451674 72.69078693 49.22451674 72.69078693 53.83203125 75.00390625 C56.04949517 75.16091962 56.04949517 75.16091962 58 74 C58.50942066 69.49414864 58.42425507 67.57187708 55.67747498 63.86933899 C54.59769764 62.78453344 53.49849536 61.71884864 52.38452148 60.66918945 C51.78794739 60.07962463 51.19137329 59.49005981 50.57672119 58.88262939 C49.28307637 57.60888186 47.98132165 56.34332982 46.67248344 55.08519936 C44.60266076 53.09556236 42.55470721 51.08556942 40.51100159 49.06913757 C36.90980415 45.52295702 33.29029781 41.99615309 29.66442871 38.47521973 C23.85389061 32.83221673 18.05928331 27.17341626 12.28822517 21.49004173 C10.265066 19.50687843 8.2267934 17.54020463 6.18711853 15.5740509 C4.95277697 14.36425272 3.7190638 13.15381294 2.48608398 11.94262695 C1.91209366 11.39761032 1.33810333 10.85259369 0.74671936 10.2910614 C-0.80445862 8.74971008 -0.80445862 8.74971008 -3 6 C-2.9555189 2.88904883 -2.21347711 2.21347711 0 0 Z " fill="#FCDE7E" transform="translate(204,288)"/>
<path d="M0 0 C0.94875 0.268125 1.8975 0.53625 2.875 0.8125 C4.29197193 3.64644387 3.99445929 6.02123738 3.98852539 9.18994141 C3.98867142 9.84372269 3.98881744 10.49750397 3.9889679 11.1710968 C3.98827036 13.33545227 3.9804854 15.49972204 3.97265625 17.6640625 C3.97079151 19.16336012 3.96936787 20.66265834 3.96836853 22.16195679 C3.96454779 26.11081622 3.95472128 30.05963896 3.94366455 34.00848389 C3.93344091 38.03690087 3.92886887 42.06532378 3.92382812 46.09375 C3.91309862 54.00001685 3.8960275 61.90625386 3.875 69.8125 C4.49450531 69.94264496 5.11401062 70.07278992 5.75228882 70.20687866 C6.56412628 70.38143585 7.37596375 70.55599304 8.21240234 70.73583984 C9.01753265 70.9072348 9.82266296 71.07862976 10.65219116 71.25521851 C18.26157861 73.16297177 24.53142855 79.53345111 28.875 85.8125 C33.38737117 93.47552086 33.50470171 101.09990587 32.875 109.8125 C32.58109375 110.81023437 32.2871875 111.80796875 31.984375 112.8359375 C31.85829843 116.26702125 32.18364624 116.60503165 34.40234375 119.0234375 C35.52175218 120.0964799 36.65934319 121.15081075 37.8125 122.1875 C38.38935547 122.73277344 38.96621094 123.27804687 39.56054688 123.83984375 C40.98345158 125.18043165 42.42729961 126.49872784 43.875 127.8125 C47.16889931 126.38295136 49.24251596 124.63774799 51.703125 122.0390625 C52.42113281 121.2965625 53.13914063 120.5540625 53.87890625 119.7890625 C55.36495128 118.23323796 56.84679929 116.67339276 58.32421875 115.109375 C63.68421446 109.58695518 68.43791836 105.52494758 76.18359375 104.28125 C95.34289826 104.47260385 105.64417749 118.43277409 118.27929688 131.17219734 C120.47896508 133.38945286 122.68232785 135.60297676 124.88671875 137.8155365 C131.14576667 144.09888748 137.39891662 150.38808532 143.64794922 156.68139648 C147.48724192 160.54738144 151.33131958 164.40855379 155.17843628 168.26675224 C156.64122112 169.73575718 158.10210421 171.20665829 159.56106567 172.67946053 C161.58831329 174.72580142 163.6215331 176.7660215 165.65625 178.80493164 C166.25984848 179.41729172 166.86344696 180.02965179 167.4853363 180.66056824 C170.17212198 183.77367141 170.17212198 183.77367141 173.875 184.8125 C175.16488171 186.12405968 175.16488171 186.12405968 176.72367859 188.03305054 C181.90557642 194.11869502 187.62486206 199.66104402 193.29614258 205.28369141 C194.54539433 206.52610195 195.79439044 207.76876959 197.04315186 209.01167297 C199.71876704 211.67402509 202.39580208 214.33493826 205.07386208 216.99483109 C209.30905979 221.20206199 213.53873168 225.41481862 217.76725769 229.62875366 C219.21808794 231.07444119 220.66892513 232.52012175 222.1197691 233.96579552 C222.84588906 234.68932992 223.57200902 235.41286432 224.32013261 236.158324 C234.15631897 245.95851378 243.99727908 255.7538729 253.84838867 265.5390625 C260.50779325 272.15399341 267.16007075 278.7760022 273.80433005 285.40614641 C277.3167255 288.9104697 280.83274668 292.41097838 284.35761452 295.90275955 C287.66827119 299.18238802 290.96954962 302.47116753 294.26385498 305.76721764 C295.47376309 306.97442856 296.68710865 308.17820566 297.90411949 309.37825584 C299.56554167 311.01752021 301.2141503 312.66869929 302.86018372 314.32339478 C303.78579007 315.24401514 304.71139643 316.16463551 305.66505146 317.11315346 C308.0242807 319.99483924 309.06941688 322.19120266 309.875 325.8125 C308.875 328.1875 308.875 328.1875 306.875 329.8125 C304.29601383 330.4162426 304.29601383 330.4162426 300.875 329.8125 C297.62979586 327.47643887 294.9264411 324.63297375 292.13877869 321.77761841 C291.27146687 320.91331644 290.40415505 320.04901447 289.51056105 319.15852153 C287.10549406 316.75582067 284.71464957 314.34038802 282.32878768 311.91870427 C279.75276536 309.31062602 277.15939061 306.71990671 274.56800842 304.12710571 C270.079638 299.63164576 265.60223483 295.12549724 261.13191032 290.61209488 C254.66463445 284.08279477 248.1794352 277.57153752 241.68942399 271.06484447 C231.15540051 260.50304561 220.63374853 249.9290148 210.12084961 239.34619141 C209.17689095 238.39596284 209.17689095 238.39596284 208.21386243 237.42653774 C207.58376784 236.79225656 206.95367326 236.15797538 206.3044849 235.50447357 C197.37236836 226.5130616 188.43734791 217.52454885 179.4987793 208.53955078 C178.55551974 207.5913824 178.55551974 207.5913824 177.59320443 206.6240591 C167.11270385 196.08951295 156.6261208 185.56103512 146.13640696 175.03566349 C139.6648064 168.54127633 133.19951305 162.04072112 126.74222792 155.53209947 C122.31867479 151.0738701 117.89006672 146.62070692 113.45743196 142.17150702 C110.89897085 139.60304089 108.34313741 137.03208756 105.7938652 134.45449829 C103.03204378 131.66205378 100.25873697 128.88120046 97.48423767 126.10134888 C96.67801356 125.28229352 95.87178944 124.46323817 95.0411343 123.61936295 C94.29639939 122.87690099 93.55166448 122.13443903 92.78436184 121.36947823 C92.1455072 120.72623199 91.50665255 120.08298575 90.84843868 119.4202472 C86.65933304 116.00741106 82.13240255 115.43101795 76.875 114.8125 C76.875 115.4725 76.875 116.1325 76.875 116.8125 C77.46667969 117.07417969 78.05835938 117.33585937 78.66796875 117.60546875 C82.24352334 119.56094905 84.71892334 122.37463207 86.875 125.8125 C86.875 128.625 86.875 128.625 85.875 130.8125 C85.215 131.4725 84.555 132.1325 83.875 132.8125 C79.91839327 132.72937801 78.17740763 132.06166685 75.1015625 129.52734375 C74.24304688 128.61082031 73.38453125 127.69429688 72.5 126.75 C71.62601563 125.83089844 70.75203125 124.91179687 69.8515625 123.96484375 C69.19929687 123.25457031 68.54703125 122.54429687 67.875 121.8125 C66.885 122.4725 65.895 123.1325 64.875 123.8125 C66.33208888 127.26349998 68.22274721 129.20887655 71 131.6875 C74.79319372 135.37074607 74.79319372 135.37074607 75.5 139.1875 C74.875 141.8125 74.875 141.8125 72.875 143.8125 C70.56640625 144.25390625 70.56640625 144.25390625 67.875 143.8125 C65.33984375 141.58984375 65.33984375 141.58984375 62.8125 138.75 C60.40389127 135.92302991 60.40389127 135.92302991 57.875 133.8125 C55.60334519 133.86320174 55.60334519 133.86320174 53.875 134.8125 C53.53078684 137.97943634 53.53078684 137.97943634 56.0625 140.1171875 C57.93490851 141.82836083 59.80990565 143.53670597 61.6875 145.2421875 C63.875 147.8125 63.875 147.8125 64.3125 150.5078125 C63.875 152.8125 63.875 152.8125 61.875 154.8125 C58.16821082 155.33037014 56.47513516 155.24401488 53.40281677 153.03492737 C52.59627151 152.20299362 51.78972626 151.37105988 50.95874023 150.51391602 C49.57216469 149.10729454 49.57216469 149.10729454 48.15757751 147.67225647 C47.1662339 146.63698809 46.17490637 145.60170431 45.18359375 144.56640625 C44.1520134 143.51346295 43.11878879 142.46212825 42.08399963 141.41233826 C39.36551647 138.64832687 36.66381032 135.86855872 33.96704102 133.08337402 C29.65036455 128.62624792 25.31876409 124.18409027 20.9683094 119.75993156 C19.45419682 118.21246321 17.95357564 116.65272948 16.45347595 115.09169006 C15.53224442 114.15079025 14.61101288 113.20989044 13.66186523 112.24047852 C12.85611557 111.40774918 12.05036591 110.57501984 11.22019958 109.71705627 C8.66531166 107.64221034 7.15081741 106.95088273 3.875 106.8125 C3.215 107.4725 2.555 108.1325 1.875 108.8125 C1.9251746 112.54240432 4.27388488 114.53687201 6.80709839 117.0401001 C7.64327194 117.84359894 7.64327194 117.84359894 8.49633789 118.66333008 C9.37437828 119.52516151 9.37437828 119.52516151 10.27015686 120.40440369 C11.54111445 121.65056485 12.81536232 122.89337708 14.09248543 124.13321877 C16.11315036 126.09708988 18.12256808 128.07182576 20.12901306 130.05021667 C25.83470156 135.67339016 31.55524535 141.28115453 37.29516602 146.86938477 C40.80604909 150.28902488 44.29965082 153.72553891 47.78301811 157.17319298 C49.11340128 158.48311021 50.45032273 159.7864213 51.79380989 161.08289528 C53.6731899 162.89731278 55.52988095 164.73236657 57.38305664 166.57348633 C57.94252991 167.10307953 58.50200317 167.63267273 59.07843018 168.17831421 C61.86813683 170.99732069 62.84567799 172.60449942 63.40574646 176.57743835 C63.23060013 177.6450087 63.0554538 178.71257904 62.875 179.8125 C59.875 181.8125 59.875 181.8125 57.64453125 181.87890625 C53.33909747 180.22110171 50.69847926 177.05392047 47.5625 173.75 C46.91732422 173.08677734 46.27214844 172.42355469 45.60742188 171.74023438 C44.02052982 170.10632329 42.44373672 168.46381853 40.875 166.8125 C39.885 167.1425 38.895 167.4725 37.875 167.8125 C37.3672668 170.71383255 37.25020347 172.89123306 38.95239258 175.40112305 C44.79427784 181.8709723 50.92825075 188.05184872 57.09130859 194.21411133 C59.00778151 196.13279046 60.91608362 198.05936111 62.82421875 199.98632812 C64.05159379 201.2166344 65.27944183 202.44646904 66.5078125 203.67578125 C67.35486252 204.53360954 67.35486252 204.53360954 68.21902466 205.4087677 C73.4948435 210.69300748 73.4948435 210.69300748 80.375 213.17578125 C85.09772775 213.07985084 88.49648259 212.65608628 92.875 210.8125 C99.32417077 210.19829326 101.50124461 210.98797637 106.875 214.8125 C108.49502019 216.25441778 110.0745126 217.74294879 111.6139679 219.27058411 C112.51267105 220.15786697 113.41137421 221.04514984 114.33731079 221.95932007 C115.31524023 222.93475949 116.29304998 223.91031891 117.27075195 224.88598633 C118.31395699 225.9199231 119.35755166 226.95346686 120.40150452 227.98664856 C123.22436588 230.78338648 126.04063574 233.58666826 128.85491586 236.39203858 C130.61459017 238.1458358 132.3754256 239.89845907 134.13661766 241.65073204 C139.65087038 247.13767779 145.16113411 252.62858298 150.66561824 258.12532884 C157.0131154 264.46385206 163.37349692 270.78906127 169.74536926 277.10307866 C174.67666302 281.99114752 179.59637468 286.89067747 184.50744027 291.79906863 C187.43845006 294.7279832 190.37410864 297.65184391 193.32189369 300.56388283 C196.09225839 303.30129694 198.84795681 306.05266729 201.59309959 308.81536674 C202.6017363 309.8255444 203.61550691 310.83062632 204.63475037 311.83010101 C206.02733847 313.19725135 207.3996825 314.58493112 208.77095032 315.97346497 C209.54391606 316.74349759 210.31688181 317.51353022 211.11327076 318.30689716 C213.35910496 321.50101373 213.73690658 323.94046836 213.875 327.8125 C211.875 329.8125 211.875 329.8125 208.875 330 C205.875 329.8125 205.875 329.8125 203.875 328.8125 C203.875 328.1525 203.875 327.4925 203.875 326.8125 C203.215 326.8125 202.555 326.8125 201.875 326.8125 C201.875 326.1525 201.875 325.4925 201.875 324.8125 C201.215 324.8125 200.555 324.8125 199.875 324.8125 C199.875 324.1525 199.875 323.4925 199.875 322.8125 C199.215 322.8125 198.555 322.8125 197.875 322.8125 C197.875 322.1525 197.875 321.4925 197.875 320.8125 C197.215 320.8125 196.555 320.8125 195.875 320.8125 C195.875 320.1525 195.875 319.4925 195.875 318.8125 C195.215 318.8125 194.555 318.8125 193.875 318.8125 C193.875 318.1525 193.875 317.4925 193.875 316.8125 C193.215 316.8125 192.555 316.8125 191.875 316.8125 C191.875 316.1525 191.875 315.4925 191.875 314.8125 C191.215 314.8125 190.555 314.8125 189.875 314.8125 C189.875 314.1525 189.875 313.4925 189.875 312.8125 C189.215 312.8125 188.555 312.8125 187.875 312.8125 C187.875 312.1525 187.875 311.4925 187.875 310.8125 C187.215 310.8125 186.555 310.8125 185.875 310.8125 C185.875 310.1525 185.875 309.4925 185.875 308.8125 C185.215 308.8125 184.555 308.8125 183.875 308.8125 C183.875 308.1525 183.875 307.4925 183.875 306.8125 C183.215 306.8125 182.555 306.8125 181.875 306.8125 C181.875 306.1525 181.875 305.4925 181.875 304.8125 C181.215 304.8125 180.555 304.8125 179.875 304.8125 C179.875 304.1525 179.875 303.4925 179.875 302.8125 C179.215 302.8125 178.555 302.8125 177.875 302.8125 C177.875 302.1525 177.875 301.4925 177.875 300.8125 C177.215 300.8125 176.555 300.8125 175.875 300.8125 C175.875 300.1525 175.875 299.4925 175.875 298.8125 C175.215 298.8125 174.555 298.8125 173.875 298.8125 C173.875 298.1525 173.875 297.4925 173.875 296.8125 C173.215 296.8125 172.555 296.8125 171.875 296.8125 C171.875 296.1525 171.875 295.4925 171.875 294.8125 C171.215 294.8125 170.555 294.8125 169.875 294.8125 C169.875 294.1525 169.875 293.4925 169.875 292.8125 C169.215 292.8125 168.555 292.8125 167.875 292.8125 C167.875 292.1525 167.875 291.4925 167.875 290.8125 C167.215 290.8125 166.555 290.8125 165.875 290.8125 C165.875 290.1525 165.875 289.4925 165.875 288.8125 C165.215 288.8125 164.555 288.8125 163.875 288.8125 C163.875 288.1525 163.875 287.4925 163.875 286.8125 C163.215 286.8125 162.555 286.8125 161.875 286.8125 C161.875 286.1525 161.875 285.4925 161.875 284.8125 C161.215 284.8125 160.555 284.8125 159.875 284.8125 C159.875 284.1525 159.875 283.4925 159.875 282.8125 C159.215 282.8125 158.555 282.8125 157.875 282.8125 C157.875 282.1525 157.875 281.4925 157.875 280.8125 C157.215 280.8125 156.555 280.8125 155.875 280.8125 C155.875 280.1525 155.875 279.4925 155.875 278.8125 C155.215 278.8125 154.555 278.8125 153.875 278.8125 C153.875 278.1525 153.875 277.4925 153.875 276.8125 C153.215 276.8125 152.555 276.8125 151.875 276.8125 C151.875 276.1525 151.875 275.4925 151.875 274.8125 C151.215 274.8125 150.555 274.8125 149.875 274.8125 C149.875 274.1525 149.875 273.4925 149.875 272.8125 C149.215 272.8125 148.555 272.8125 147.875 272.8125 C147.875 272.1525 147.875 271.4925 147.875 270.8125 C147.215 270.8125 146.555 270.8125 145.875 270.8125 C145.875 270.1525 145.875 269.4925 145.875 268.8125 C145.215 268.8125 144.555 268.8125 143.875 268.8125 C143.875 268.1525 143.875 267.4925 143.875 266.8125 C143.215 266.8125 142.555 266.8125 141.875 266.8125 C141.875 266.1525 141.875 265.4925 141.875 264.8125 C141.215 264.8125 140.555 264.8125 139.875 264.8125 C139.875 264.1525 139.875 263.4925 139.875 262.8125 C139.215 262.8125 138.555 262.8125 137.875 262.8125 C137.875 262.1525 137.875 261.4925 137.875 260.8125 C137.215 260.8125 136.555 260.8125 135.875 260.8125 C135.875 260.1525 135.875 259.4925 135.875 258.8125 C135.215 258.8125 134.555 258.8125 133.875 258.8125 C133.875 258.1525 133.875 257.4925 133.875 256.8125 C133.215 256.8125 132.555 256.8125 131.875 256.8125 C131.875 256.1525 131.875 255.4925 131.875 254.8125 C131.215 254.8125 130.555 254.8125 129.875 254.8125 C129.875 254.1525 129.875 253.4925 129.875 252.8125 C129.215 252.8125 128.555 252.8125 127.875 252.8125 C127.875 252.1525 127.875 251.4925 127.875 250.8125 C127.26865723 250.54381104 126.66231445 250.27512207 126.03759766 249.99829102 C123.28743573 248.49032799 121.69453808 246.35091516 119.72167969 243.95654297 C115.90427871 239.52444152 111.65303831 235.4895294 107.5 231.375 C106.10974609 229.99151367 106.10974609 229.99151367 104.69140625 228.58007812 C102.42154154 226.32191375 100.14936462 224.06613058 97.875 221.8125 C97.20533203 222.02398682 96.53566406 222.23547363 95.84570312 222.45336914 C94.95818359 222.72785889 94.07066406 223.00234863 93.15625 223.28515625 C92.28033203 223.55851807 91.40441406 223.83187988 90.50195312 224.11352539 C82.61091579 226.21315735 75.98821971 224.62002583 68.875 220.8125 C65.37077319 218.09325294 62.31092387 215.02141073 59.21875 211.84765625 C58.34980103 210.97733261 57.48085205 210.10700897 56.58557129 209.21031189 C54.76343104 207.37915531 52.94853971 205.54075959 51.140625 203.69555664 C48.37132989 200.87125699 45.57853678 198.0719418 42.78125 195.27539062 C41.0089909 193.48839205 39.23810825 191.70002709 37.46875 189.91015625 C36.63549194 189.07355972 35.80223389 188.2369632 34.94372559 187.37501526 C33.79112244 186.19370277 33.79112244 186.19370277 32.61523438 184.98852539 C31.93924194 184.30109756 31.26324951 183.61366974 30.56677246 182.90541077 C26.71132522 178.13579356 26.45902477 173.40716685 26.5390625 167.484375 C27.02433221 163.62478803 28.35866089 161.72201709 30.875 158.8125 C26.97082269 150.19386738 18.72790746 141.91948034 10.875 136.8125 C5.24474937 135.10950297 -0.37438443 135.99313795 -6.12060547 136.67236328 C-13.10569855 137.16072423 -18.36157882 132.86977619 -23.4375 128.625 C-29.2225194 123.10376293 -32.64152525 117.65638285 -34.125 109.8125 C-35.33316376 109.80370064 -35.33316376 109.80370064 -36.56573486 109.79472351 C-44.15822857 109.73680717 -51.75039371 109.66473701 -59.34259415 109.57678509 C-63.24579044 109.53206727 -67.14888202 109.49281451 -71.05224609 109.46606445 C-74.81960155 109.44004516 -78.58655435 109.39965318 -82.35366058 109.34931374 C-83.79050435 109.33263558 -85.22741778 109.32112718 -86.66434479 109.31488609 C-88.67770928 109.30525628 -90.69094702 109.27550123 -92.70410156 109.24487305 C-93.84993713 109.23376999 -94.99577271 109.22266693 -96.17633057 109.21122742 C-99.41974806 108.77264333 -100.82883268 108.1131707 -103.125 105.8125 C-103.61671988 103.0026721 -103.6323962 101.54833265 -101.99760437 99.17753601 C-99.24593308 97.17170368 -97.10528468 97.45261266 -93.72583008 97.47192383 C-92.75956947 97.47126671 -92.75956947 97.47126671 -91.77378845 97.47059631 C-89.64705979 97.47268441 -87.52112198 97.49601487 -85.39453125 97.51953125 C-83.91908702 97.52512717 -82.44363722 97.52939729 -80.96818542 97.53239441 C-77.08660466 97.54384363 -73.20536117 97.57331113 -69.32391357 97.60650635 C-65.36247317 97.63720576 -61.40097822 97.65089945 -57.43945312 97.66601562 C-49.66781506 97.69818106 -41.89645481 97.74937795 -34.125 97.8125 C-33.97949707 96.87011475 -33.83399414 95.92772949 -33.68408203 94.95678711 C-32.29458855 87.14225152 -27.22071881 80.6939322 -21.125 75.8125 C-16.54414153 72.77433614 -12.53300859 70.82209929 -7.125 69.8125 C-7.11620064 68.5634211 -7.11620064 68.5634211 -7.10722351 67.28910828 C-7.04934891 59.44614765 -6.97730265 51.60347341 -6.88928509 43.76079082 C-6.84453412 39.72864971 -6.80528872 35.69661073 -6.77856445 31.66430664 C-6.75257818 27.77376837 -6.71220977 23.88362217 -6.66181374 19.99332619 C-6.64511319 18.50820602 -6.63361877 17.02301799 -6.62738609 15.537817 C-6.6177791 13.45928095 -6.58976379 11.38175515 -6.55737305 9.3034668 C-6.54626999 8.11988083 -6.53516693 6.93629486 -6.52372742 5.71684265 C-6.125 2.8125 -6.125 2.8125 -4.79328918 0.89509583 C-3.125 -0.1875 -3.125 -0.1875 0 0 Z " fill="#212225" transform="translate(200.125,182.1875)"/>
<path d="M0 0 C0.96465179 -0.0159874 1.92930359 -0.03197479 2.92318726 -0.04844666 C3.96383331 -0.05380936 5.00447937 -0.05917206 6.07666016 -0.06469727 C7.14816315 -0.07372574 8.21966614 -0.08275421 9.32363892 -0.09205627 C11.5915446 -0.10657072 13.85949228 -0.11544847 16.12744141 -0.11914062 C19.59560797 -0.13103453 23.06199434 -0.18020869 26.52978516 -0.23071289 C28.73290147 -0.24017722 30.93602871 -0.24741221 33.13916016 -0.25219727 C34.17575775 -0.27172958 35.21235535 -0.2912619 36.28036499 -0.31138611 C40.98872159 -0.28191401 43.46324664 -0.23979969 47.39306641 2.52099609 C49.36079113 5.48740352 49.88183711 6.91706687 49.90478516 10.43139648 C49.91123047 11.38530273 49.91767578 12.33920898 49.92431641 13.32202148 C49.90498047 14.30686523 49.88564453 15.29170898 49.86572266 16.30639648 C49.88505859 17.29124023 49.90439453 18.27608398 49.92431641 19.29077148 C49.89199656 24.07410839 49.82782644 26.52619212 46.88916016 30.43139648 C42.37100175 33.6300927 38.37981504 33.42937308 33.05322266 33.36889648 C32.30363281 33.36438477 31.55404297 33.35987305 30.78173828 33.35522461 C28.93469883 33.34346003 27.08770052 33.32552514 25.24072266 33.30639648 C25.24072266 37.92639648 25.24072266 42.54639648 25.24072266 47.30639648 C26.48208984 47.25999023 27.72345703 47.21358398 29.00244141 47.16577148 C30.64434436 47.12824227 32.28627343 47.09184335 33.92822266 47.05639648 C34.74484375 47.02288086 35.56146484 46.98936523 36.40283203 46.95483398 C40.54364273 46.88777632 42.66821116 46.94792874 46.26025391 49.19702148 C49.88513574 53.05784237 49.37095079 56.55307788 49.33837891 61.59545898 C49.33625648 62.82309464 49.33625648 62.82309464 49.33409119 64.07553101 C49.32848555 66.69418973 49.31593214 69.31276352 49.30322266 71.93139648 C49.29820838 73.70483275 49.29364535 75.47827036 49.28955078 77.25170898 C49.2785143 81.6033043 49.26124591 85.95483598 49.24072266 90.30639648 C50.074021 90.42611816 50.90731934 90.54583984 51.76586914 90.66918945 C83.01638045 95.29375477 113.25718227 107.85956409 138.24072266 127.30639648 C139.02833984 127.88518555 139.81595703 128.46397461 140.62744141 129.06030273 C147.09063356 133.87578701 152.93461458 139.38878295 158.77929688 144.92407227 C160.00006671 146.07876635 161.23055954 147.22316983 162.46337891 148.36499023 C196.21959783 180.59628756 216.20102184 230.84106922 217.47900391 277.01733398 C217.85532952 302.9227758 217.42011009 335.56905442 203.24072266 358.30639648 C199.99072266 359.36889648 199.99072266 359.36889648 197.24072266 359.30639648 C197.24072266 358.64639648 197.24072266 357.98639648 197.24072266 357.30639648 C196.58072266 357.30639648 195.92072266 357.30639648 195.24072266 357.30639648 C193.79992925 351.93080472 195.01076901 348.20591219 196.92822266 343.18139648 C199.32988129 336.46374403 201.17974059 329.80817637 202.55322266 322.80639648 C202.71201904 322.0070166 202.87081543 321.20763672 203.03442383 320.3840332 C205.15790512 309.11710501 205.48177086 297.9279212 205.49072266 286.49389648 C205.4913974 285.71771973 205.49207214 284.94154297 205.49276733 284.1418457 C205.42340511 233.78616653 185.23290023 188.12195374 150.24072266 152.05639648 C123.13727728 125.88003073 88.37077768 108.32014625 51.24072266 102.30639648 C50.58676514 102.13938232 49.93280762 101.97236816 49.2590332 101.80029297 C40.13252931 99.56224274 30.76309136 99.95494391 21.42822266 99.99389648 C20.04987244 99.99712921 20.04987244 99.99712921 18.64367676 100.00042725 C5.33350937 100.05068389 -7.74158605 100.24583662 -20.75927734 103.30639648 C-21.6071582 103.50507324 -22.45503906 103.70375 -23.32861328 103.90844727 C-59.84444425 112.81393399 -99.53800578 133.80377102 -122.25927734 164.68139648 C-124.75927734 167.30639648 -124.75927734 167.30639648 -128.44677734 168.30639648 C-129.53990234 168.30639648 -130.63302734 168.30639648 -131.75927734 168.30639648 C-133.75927734 166.30639648 -133.75927734 166.30639648 -134.20849609 163.56030273 C-133.61702256 159.27597703 -131.5218981 157.17886899 -128.57177734 154.24389648 C-128.08902344 153.74051758 -127.60626953 153.23713867 -127.10888672 152.71850586 C-124.81782655 150.34133873 -122.47224038 148.0202138 -120.13427734 145.68920898 C-118.68852917 144.23870506 -117.26015923 142.77023043 -115.86474609 141.27124023 C-89.0520826 112.92954502 -48.83218407 95.8356568 -10.75927734 90.30639648 C-10.76975098 89.30261963 -10.78022461 88.29884277 -10.79101562 87.26464844 C-10.82731188 83.5280313 -10.85021274 79.79142965 -10.86914062 76.0546875 C-10.87917631 74.43975196 -10.89280786 72.82483448 -10.91015625 71.20996094 C-10.93451199 68.88398773 -10.94578482 66.55825553 -10.95458984 64.23217773 C-10.96491241 63.51427567 -10.97523499 62.7963736 -10.98587036 62.05671692 C-10.9870665 56.66976277 -10.32243966 53.06383327 -6.71630859 49.00952148 C-2.56828844 46.62043722 0.86153639 46.86384109 5.55322266 47.05639648 C6.38917969 47.07444336 7.22513672 47.09249023 8.08642578 47.11108398 C10.13835494 47.15798522 12.18969021 47.22972237 14.24072266 47.30639648 C14.24072266 42.68639648 14.24072266 38.06639648 14.24072266 33.30639648 C12.61263672 33.35860352 12.61263672 33.35860352 10.95166016 33.41186523 C9.50636323 33.44002037 8.06104944 33.46731867 6.61572266 33.49389648 C5.90287109 33.5190332 5.19001953 33.54416992 4.45556641 33.57006836 C-0.37650091 33.6365647 -3.54504727 32.91972534 -7.75927734 30.30639648 C-11.59304853 26.4726253 -10.97136447 21.59702605 -11.00927734 16.43139648 C-11.02990234 15.7365918 -11.05052734 15.04178711 -11.07177734 14.32592773 C-11.10771792 9.55481676 -10.32804879 6.32760413 -7.75927734 2.30639648 C-4.56023877 0.1737041 -3.68284731 0.04616833 0 0 Z " fill="#1F2023" transform="translate(179.75927734375,-0.306396484375)"/>
<path d="M0 0 C1.875 0.8125 1.875 0.8125 3.875 2.8125 C4.4979724 7.97101538 2.84682455 11.7850663 0.75 16.375 C-5.80869647 31.54240429 -9.81350911 47.47681436 -12.125 63.8125 C-12.25648437 64.73417969 -12.38796875 65.65585937 -12.5234375 66.60546875 C-15.11577664 89.20085719 -12.05198054 111.7775191 -7.125 133.8125 C-6.91230469 134.8025 -6.69960938 135.7925 -6.48046875 136.8125 C4.95489457 184.02948405 38.66710654 223.63828321 79.3125 248.5625 C97.45560961 259.34196727 118.19510033 266.80306631 138.875 270.8125 C139.7827417 270.99224365 140.6904834 271.1719873 141.62573242 271.35717773 C150.65593329 272.94798641 159.50156132 273.11891823 168.6394043 273.07324219 C171.17326018 273.06256003 173.70640041 273.0731763 176.24023438 273.0859375 C206.99871301 273.11325542 235.88170875 265.5876996 262.875 250.8125 C263.49342773 250.47718262 264.11185547 250.14186523 264.74902344 249.79638672 C270.87705692 246.4536774 276.74577041 242.98172204 282.3125 238.75 C285.38802476 236.5030877 287.16232029 235.33879725 291 235.875 C291.94875 236.184375 292.8975 236.49375 293.875 236.8125 C294.6875 238.9375 294.6875 238.9375 294.875 241.8125 C291.15501099 247.21248405 286.60359339 250.29864939 281.0625 253.6875 C280.21937256 254.20924805 279.37624512 254.73099609 278.50756836 255.26855469 C253.90128034 270.28758618 227.36406412 279.62126591 198.875 283.8125 C198.2348999 283.90821289 197.5947998 284.00392578 196.93530273 284.10253906 C160.66614895 288.87175971 122.79097816 282.3588658 89.875 266.8125 C89.17197754 266.48636719 88.46895508 266.16023438 87.74462891 265.82421875 C66.46579479 255.8898084 48.6641837 242.11765013 31.875 225.8125 C30.98022949 224.94951294 30.98022949 224.94951294 30.06738281 224.0690918 C26.18145367 220.26407544 22.68927436 216.30928695 19.375 212 C18.90143066 211.38890381 18.42786133 210.77780762 17.93994141 210.14819336 C-2.3895985 183.75722057 -16.35683377 153.74462793 -22.125 120.8125 C-22.30160156 119.82660889 -22.47820313 118.84071777 -22.66015625 117.82495117 C-24.275041 107.86817737 -24.52417065 98.06842035 -24.5 88 C-24.49945618 87.14488831 -24.49891235 86.28977661 -24.49835205 85.40875244 C-24.42299898 59.53974319 -19.81831544 35.16490807 -10 11.1875 C-9.67547852 10.38715332 -9.35095703 9.58680664 -9.01660156 8.76220703 C-5.05998387 -0.44646917 -5.05998387 -0.44646917 0 0 Z " fill="#1E1F23" transform="translate(26.125,198.1875)"/>
<path d="M0 0 C5.77756895 3.26962101 8.80559392 7.77468922 12 13.4375 C12.93798056 17.28322031 12.77941107 21.06251771 12.625 25 C12.18929687 24.61328125 11.75359375 24.2265625 11.3046875 23.828125 C3.21320461 16.46085225 3.21320461 16.46085225 -7.1953125 14.6171875 C-10.71459083 15.23526864 -12.74962502 16.62466073 -15.375 19 C-18.2911054 23.37415811 -19.0936857 26.78952867 -18.375 32 C-16.0731108 36.78646803 -12.78836354 40.9545321 -9.375 45 C-16.01144565 45.72135279 -20.89153732 43.74899013 -26.375 40 C-31.83909951 34.53590049 -34.39684219 28.77074506 -34.6875 21.0625 C-34.50691807 13.96669235 -31.84058684 8.7354109 -27.08984375 3.578125 C-19.48000134 -3.42501015 -9.33414438 -4.14694667 0 0 Z " fill="#A7AEB6" transform="translate(210.375,264)"/>
<path d="M0 0 C12.87 0 25.74 0 39 0 C39 3.96 39 7.92 39 12 C26.13 12 13.26 12 0 12 C0 8.04 0 4.08 0 0 Z " fill="#F6D97C" transform="translate(180,10)"/>
<path d="M0 0 C4.62 0 9.24 0 14 0 C14 10.56 14 21.12 14 32 C7.07 31.505 7.07 31.505 0 31 C0 20.77 0 10.54 0 0 Z " fill="#F5D87B" transform="translate(205,57)"/>
<path d="M0 0 C4.62 0 9.24 0 14 0 C14 9.9 14 19.8 14 30 C9.38 30.33 4.76 30.66 0 31 C0 20.77 0 10.54 0 0 Z " fill="#FCDE7E" transform="translate(180,58)"/>
<path d="M0 0 C1.2375 -0.01675781 2.475 -0.03351563 3.75 -0.05078125 C7 0.3125 7 0.3125 8.9140625 1.67578125 C10.47530004 4.02886949 10.41432006 5.55036624 10 8.3125 C8.91015625 9.94140625 8.91015625 9.94140625 7 11.3125 C3.78515625 11.74609375 3.78515625 11.74609375 0.0625 11.75 C-1.16339844 11.76933594 -2.38929688 11.78867187 -3.65234375 11.80859375 C-7 11.3125 -7 11.3125 -9.4453125 9.44921875 C-11 7.3125 -11 7.3125 -10.9375 4.6875 C-8.89840302 -0.47821235 -4.87773613 0.01524293 0 0 Z " fill="#2B2D31" transform="translate(353,279.6875)"/>
<path d="M0 0 C1.23492187 -0.01675781 2.46984375 -0.03351563 3.7421875 -0.05078125 C7.27561973 0.3286751 8.67950573 0.78870172 11.125 3.3125 C11.625 5.8125 11.625 5.8125 11.125 8.3125 C8.7758473 10.66729971 7.3531303 11.28052719 4.03125 11.74609375 C2.9071875 11.74738281 1.783125 11.74867188 0.625 11.75 C-1.06109375 11.77900391 -1.06109375 11.77900391 -2.78125 11.80859375 C-6.46926429 11.21720762 -7.67183057 10.28080955 -9.875 7.3125 C-9.54606113 0.4047838 -6.21111403 0.01936938 0 0 Z " fill="#282B2F" transform="translate(44.875,279.6875)"/>
<path d="M0 0 C4.99763558 1.6973102 8.13940098 4.96740725 11.3125 9.125 C12.3125 12.625 12.3125 12.625 12.3125 15.125 C10.625 16.6875 10.625 16.6875 8.3125 18.125 C2.99486515 17.71460782 0.53709209 15.03557147 -3.015625 11.3359375 C-5.40904331 8.17080955 -5.6875 6.04112012 -5.6875 2.125 C-2.6875 0.125 -2.6875 0.125 0 0 Z " fill="#22262A" transform="translate(87.6875,167.875)"/>
<path d="M0 0 C1.875 1.1875 1.875 1.1875 3 3 C2.62097715 7.07449564 1.36127078 9.20300212 -1.375 12.1875 C-1.98085937 12.86167969 -2.58671875 13.53585937 -3.2109375 14.23046875 C-5 16 -5 16 -8 18 C-11.1875 17.625 -11.1875 17.625 -14 17 C-14.7890625 13.83984375 -14.7890625 13.83984375 -15 10 C-13.0859375 7.12890625 -13.0859375 7.12890625 -10.375 4.5625 C-9.49585937 3.69753906 -8.61671875 2.83257812 -7.7109375 1.94140625 C-4.74918659 -0.1796171 -3.54674385 -0.55873362 0 0 Z " fill="#25272A" transform="translate(97,385)"/>
<path d="M0 0 C2.28515625 0.3671875 2.28515625 0.3671875 4.16015625 1.5546875 C5.28515625 3.3671875 5.28515625 3.3671875 5.06640625 5.71875 C4.17617223 8.73664332 3.02543727 10.2475139 0.91015625 12.5546875 C0.30429687 13.22886719 -0.3015625 13.90304688 -0.92578125 14.59765625 C-2.71484375 16.3671875 -2.71484375 16.3671875 -5.71484375 18.3671875 C-9.03724699 18.0430506 -10.32260678 17.75942447 -12.71484375 15.3671875 C-13.1328125 13.07421875 -13.1328125 13.07421875 -12.71484375 10.3671875 C-10.703125 7.69140625 -10.703125 7.69140625 -8.02734375 5.0546875 C-7.15722656 4.17167969 -6.28710938 3.28867188 -5.390625 2.37890625 C-2.71484375 0.3671875 -2.71484375 0.3671875 0 0 Z " fill="#25262A" transform="translate(311.71484375,167.6328125)"/>
<path d="M0 0 C1.423125 0.4021875 1.423125 0.4021875 2.875 0.8125 C4.45477708 3.97205417 4.05947084 7.34713817 4.0625 10.8125 C4.07474609 11.54984375 4.08699219 12.2871875 4.09960938 13.046875 C4.10487395 14.97020058 3.99703447 16.89304263 3.875 18.8125 C1.875 20.8125 1.875 20.8125 -1.125 21.125 C-2.115 21.021875 -3.105 20.91875 -4.125 20.8125 C-6.53475706 17.19786441 -6.45739432 14.4903074 -6.4375 10.3125 C-6.46166992 9.29736328 -6.46166992 9.29736328 -6.48632812 8.26171875 C-6.48920974 5.33976199 -6.44975343 3.29819318 -4.80078125 0.83203125 C-3.125 -0.1875 -3.125 -0.1875 0 0 Z " fill="#23262A" transform="translate(200.125,121.1875)"/>
<path d="M0 0 C3 0.25 3 0.25 5 2.25 C5.19852102 4.95922801 5.27839477 7.54303179 5.25 10.25 C5.25773438 10.98734375 5.26546875 11.7246875 5.2734375 12.484375 C5.2533196 17.9966804 5.2533196 17.9966804 3 20.25 C0 20.5625 0 20.5625 -3 20.25 C-5.42457025 16.61314463 -5.29768407 13.88767221 -5.25 9.6875 C-5.25773438 9.00236328 -5.26546875 8.31722656 -5.2734375 7.61132812 C-5.24527569 0.43710631 -5.24527569 0.43710631 0 0 Z " fill="#222327" transform="translate(199,428.75)"/>
<path d="M0 0 C1.47296137 7.1193133 1.47296137 7.1193133 -0.8125 11.375 C-3 14 -3 14 -5 16 C-8 15.9375 -8 15.9375 -11 15 C-12.625 12.9375 -12.625 12.9375 -13 10 C-10.6396241 2.87794091 -7.82439428 -0.34775086 0 0 Z " fill="#212226" transform="translate(42,175)"/>
<path d="M0 0 C3 0.1875 3 0.1875 6 1 C8.30019361 4.45029042 8.43132515 5.94554358 8 10 C5 12 5 12 2.5 11.875 C-0.57921269 10.79727556 -1.54512924 9.90974151 -3 7 C-2.75925978 3.62963689 -2.41201979 2.41201979 0 0 Z " fill="#2D2C28" transform="translate(291,316)"/>
<path d="M0 0 C2.625 0.375 2.625 0.375 5 2 C6.625 4.375 6.625 4.375 6.4375 7.5625 C5.625 10.375 5.625 10.375 4.625 11.375 C0.99983723 11.77779586 -0.77266602 11.79200045 -3.8125 9.6875 C-5.375 7.375 -5.375 7.375 -5.25 4.75 C-4.11010786 1.65600705 -3.31544909 0.52349196 0 0 Z " fill="#292927" transform="translate(270.375,338.625)"/>
<path d="M0 0 C3.0625 0.3125 3.0625 0.3125 4.9375 1.4375 C6.58399743 4.18166239 6.46214378 6.1819571 6.0625 9.3125 C3.0625 11.3125 3.0625 11.3125 0.5625 11.125 C-2.16895737 10.23727635 -3.32870004 9.68336309 -4.9375 7.3125 C-5.25 4.75 -5.25 4.75 -4.9375 2.3125 C-2.9375 0.3125 -2.9375 0.3125 0 0 Z " fill="#242425" transform="translate(281.9375,327.6875)"/>
</svg>
