<?xml version="1.0" encoding="UTF-8"?>
<svg version="1.1" xmlns="http://www.w3.org/2000/svg" width="512" height="512">
<path d="M0 0 C18.15 0 36.3 0 55 0 C55 3.3 55 6.6 55 10 C56.53140625 9.52820313 56.53140625 9.52820313 58.09375 9.046875 C76.85135361 3.45885045 96.52673224 -0.10582214 116.1328125 -0.203125 C117.55233467 -0.21371445 117.55233467 -0.21371445 119.00053406 -0.22451782 C158.51652112 -0.45241099 158.51652112 -0.45241099 175 3 C175.97485352 3.19867676 176.94970703 3.39735352 177.95410156 3.60205078 C194.42395198 7.04724826 211.96278479 11.12650227 227.15235901 18.53817749 C231.11862289 20.23590687 234.89320692 20.41430631 239.16333008 20.36889648 C239.94808212 20.37266296 240.73283417 20.37642944 241.54136658 20.38031006 C243.23440676 20.38671314 244.92748294 20.38644027 246.62052345 20.38012505 C249.30826709 20.37096169 251.99532091 20.38129893 254.68302917 20.39674377 C262.32065843 20.43669295 269.95823084 20.43805189 277.59594727 20.43579102 C282.27908061 20.43573968 286.96184159 20.45502341 291.64487267 20.48512459 C294.27829714 20.4958744 296.91098771 20.48386404 299.54438782 20.47129822 C311.15200873 20.49566071 320.39917033 21.65949735 329.2421875 29.9296875 C335.58114832 37.39557469 337.43369882 45.64012513 337.3359375 55.19140625 C336.79067424 61.37316991 334.60010567 66.41687523 332 72 C331.66274902 72.73347656 331.32549805 73.46695313 330.97802734 74.22265625 C328.700032 79.17207254 326.36821017 84.09316256 324 89 C324.43828125 89.45246094 324.8765625 89.90492187 325.328125 90.37109375 C336.31518736 102.18441893 345.07286757 116.00117507 353 130 C353.54237305 130.94117676 353.54237305 130.94117676 354.09570312 131.90136719 C375.70669318 169.6538992 385.47700596 212.42283072 385.3125 255.625 C385.31034485 256.64290619 385.3081897 257.66081238 385.30596924 258.70956421 C385.25629854 273.31863523 385.00540191 287.65075853 382 302 C381.70198486 303.46228027 381.70198486 303.46228027 381.39794922 304.95410156 C371.27732806 353.3359774 349.3608123 397.32428269 315 433 C314.36787598 433.65935547 313.73575195 434.31871094 313.08447266 434.99804688 C303.94002521 444.48630305 294.64265991 453.2262044 284 461 C282.84894983 461.85806152 281.69790823 462.71613451 280.546875 463.57421875 C272.35724019 469.61177396 263.85461724 474.99457302 255 480 C254.29278809 480.4021875 253.58557617 480.804375 252.85693359 481.21875 C229.72154164 494.2441741 204.55037591 502.99301461 178.5625 508.3125 C177.84360596 508.45985596 177.12471191 508.60721191 176.3840332 508.7590332 C160.90554085 511.70099807 145.59397313 512.37237337 129.875 512.3125 C128.88143494 512.31067719 127.88786987 512.30885437 126.86419678 512.30697632 C112.370308 512.26219978 98.25863903 511.80110213 84 509 C83.10442383 508.83902832 82.20884766 508.67805664 81.28613281 508.51220703 C32.59654168 499.70340196 -12.42879928 476.2601479 -48 442 C-48.65935547 441.36787598 -49.31871094 440.73575195 -49.99804688 440.08447266 C-59.48630305 430.94002521 -68.2262044 421.64265991 -76 411 C-76.85806152 409.84894983 -77.71613451 408.69790823 -78.57421875 407.546875 C-84.61177396 399.35724019 -89.99457302 390.85461724 -95 382 C-95.4021875 381.29278809 -95.804375 380.58557617 -96.21875 379.85693359 C-109.2441741 356.72154164 -117.99301461 331.55037591 -123.3125 305.5625 C-123.45985596 304.84360596 -123.60721191 304.12471191 -123.7590332 303.3840332 C-126.71015207 287.85737908 -127.40707988 272.45686592 -127.375 256.6875 C-127.37445618 255.67798279 -127.37391235 254.66846558 -127.37335205 253.62835693 C-127.33258601 237.11876461 -126.42529309 221.20217999 -123 205 C-122.78037598 203.95811523 -122.56075195 202.91623047 -122.33447266 201.84277344 C-112.23685215 155.54950689 -89.87771242 113.13586279 -57 79 C-56.36787598 78.34064453 -55.73575195 77.68128906 -55.08447266 77.00195312 C-33.72498102 54.83939713 -33.72498102 54.83939713 -24.08081055 50.04614258 C-21.91217824 48.86934185 -20.5456515 47.93638788 -19 46 C-17.99174423 41.73014343 -18.02086971 37.55868067 -18.0625 33.1875 C-18.04638672 32.01767578 -18.03027344 30.84785156 -18.01367188 29.64257812 C-17.97839865 26.7619311 -17.98511751 23.88082454 -18 21 C-12.06 21 -6.12 21 0 21 C0 14.07 0 7.14 0 0 Z " fill="#DC4361" transform="translate(127,0)"/>
<path d="M0 0 C4.39418986 1.56861151 6.78338018 5.0157149 9.5625 8.5625 C10.0869873 9.22725342 10.61147461 9.89200684 11.15185547 10.5769043 C36.06880602 42.69050488 52.55492677 81.14389226 60 121 C60.16226074 121.80501953 60.32452148 122.61003906 60.49169922 123.43945312 C65.96455505 151.43065384 65.8459259 185.08872396 60 213 C59.70198486 214.46228027 59.70198486 214.46228027 59.39794922 215.95410156 C49.27732806 264.3359774 27.3608123 308.32428269 -7 344 C-7.63212402 344.65935547 -8.26424805 345.31871094 -8.91552734 345.99804688 C-18.05997479 355.48630305 -27.35734009 364.2262044 -38 372 C-39.15105017 372.85806152 -40.30209177 373.71613451 -41.453125 374.57421875 C-49.64275981 380.61177396 -58.14538276 385.99457302 -67 391 C-67.70721191 391.4021875 -68.41442383 391.804375 -69.14306641 392.21875 C-92.27845836 405.2441741 -117.44962409 413.99301461 -143.4375 419.3125 C-144.15639404 419.45985596 -144.87528809 419.60721191 -145.6159668 419.7590332 C-161.09603249 422.70129711 -176.40490167 423.36657348 -192.125 423.3125 C-193.11191833 423.31200653 -194.09883667 423.31151306 -195.11566162 423.31100464 C-228.21908307 423.26030564 -228.21908307 423.26030564 -241 419 C-241.00879936 417.69573814 -241.00879936 417.69573814 -241.01777649 416.36512756 C-241.07585645 408.14142856 -241.14802014 399.91799674 -241.23571491 391.69455814 C-241.28030292 387.46753435 -241.31958397 383.24060436 -241.34643555 379.01342773 C-241.37258472 374.9283612 -241.41306763 370.84365794 -241.46318626 366.75881767 C-241.47977691 365.20608502 -241.49133951 363.65328964 -241.49761391 362.10048103 C-241.56577718 346.54081054 -241.56577718 346.54081054 -249.2734375 333.50390625 C-255.03119461 328.48866533 -260.25978101 327.86002433 -268 327 C-268 272.55 -268 218.1 -268 162 C-240.43662109 161.94392578 -240.43662109 161.94392578 -212.31640625 161.88671875 C-200.690748 161.85645094 -189.06509867 161.82545128 -177.43945312 161.79101562 C-171.33276432 161.77296599 -165.22607502 161.7551021 -159.11938477 161.73754883 C-157.97135434 161.7342373 -157.97135434 161.7342373 -156.80013138 161.73085886 C-144.45082841 161.69550759 -132.1015255 161.67063866 -119.75219072 161.64965298 C-107.0744977 161.62787556 -94.39687022 161.59480672 -81.71923298 161.55129844 C-73.89908075 161.52481513 -66.07901018 161.50709532 -58.25881534 161.50065396 C-52.25805104 161.4947668 -46.25744743 161.47315503 -40.25673866 161.44572449 C-37.79815713 161.43693586 -35.33955135 161.43322338 -32.88095474 161.43499184 C-29.52076917 161.43664557 -26.16114865 161.41993575 -22.80104065 161.39872742 C-21.83117346 161.40357499 -20.86130627 161.40842257 -19.86204916 161.41341704 C-10.1267251 161.31221262 -1.33861315 158.60751071 6 152 C12.33045955 143.68112688 15.18013493 135.42672282 14 125 C10.53122646 114.16756074 4.63645963 103.86618085 -0.375 93.6875 C-9.92804627 74.24102438 -9.92804627 74.24102438 -13.9765625 65.64453125 C-14.51619629 64.49960205 -15.05583008 63.35467285 -15.61181641 62.17504883 C-17.86757299 57.01568998 -19.31717365 52.52326036 -19.4375 46.875 C-19.47746094 45.86179688 -19.51742187 44.84859375 -19.55859375 43.8046875 C-18.08927666 33.7968914 -12.34884395 24.42689686 -7.8125 15.5 C-7.01295898 13.91445312 -7.01295898 13.91445312 -6.19726562 12.296875 C-5.21647618 10.35256787 -4.23402933 8.40909512 -3.24926758 6.46679688 C-2.15930174 4.31455634 -1.07663274 2.15893363 0 0 Z " fill="#F6E165" transform="translate(449,89)"/>
<path d="M0 0 C0 67.65 0 135.3 0 205 C6.27 205 12.54 205 19 205 C19 259.45 19 313.9 19 370 C15.04 370.66 11.08 371.32 7 372 C-0.01625715 376.15046198 -4.40722895 381.22168686 -7 389 C-7.14939774 390.91765594 -7.24810283 392.83946522 -7.31640625 394.76171875 C-7.35830078 395.87998047 -7.40019531 396.99824219 -7.44335938 398.15039062 C-7.48267578 399.31763672 -7.52199219 400.48488281 -7.5625 401.6875 C-7.62727539 403.45577148 -7.62727539 403.45577148 -7.69335938 405.25976562 C-7.79951176 408.17305883 -7.90156242 411.08643757 -8 414 C-27.53985899 402.48748074 -44.8443796 383.27685692 -58 365 C-58.85176801 363.85335128 -59.70465463 362.70753275 -60.55859375 361.5625 C-66.60603133 353.37089798 -71.99098412 344.86096602 -77 336 C-77.4021875 335.29278809 -77.804375 334.58557617 -78.21875 333.85693359 C-91.2441741 310.72154164 -99.99301461 285.55037591 -105.3125 259.5625 C-105.45985596 258.84360596 -105.60721191 258.12471191 -105.7590332 257.3840332 C-108.71015207 241.85737908 -109.40707988 226.45686592 -109.375 210.6875 C-109.37445618 209.67798279 -109.37391235 208.66846558 -109.37335205 207.62835693 C-109.33258601 191.11876461 -108.42529309 175.20217999 -105 159 C-104.78037598 157.95811523 -104.56075195 156.91623047 -104.33447266 155.84277344 C-94.23685215 109.54950689 -71.87771242 67.13586279 -39 33 C-38.36787598 32.34064453 -37.73575195 31.68128906 -37.08447266 31.00195312 C-27.94620243 21.52010642 -18.64410166 12.7651759 -8 5 C-7.36739258 4.53658203 -6.73478516 4.07316406 -6.08300781 3.59570312 C-1.12819951 0 -1.12819951 0 0 0 Z " fill="#F5E166" transform="translate(109,46)"/>
<path d="M0 0 C0.33 0 0.66 0 1 0 C1.33 37.95 1.66 75.9 2 115 C6.29 109.39 10.58 103.78 15 98 C23.47065434 88.31925218 23.47065434 88.31925218 28.68438721 87.66117859 C36.00516431 87.55959494 40.99664968 88.66473374 47.421875 92.08203125 C48.36238708 92.55566605 49.30289917 93.02930084 50.27191162 93.51728821 C52.51316008 94.64821178 54.74898213 95.78992268 56.98071289 96.93951416 C61.6517922 99.3431271 66.35241145 101.68694519 71.05273438 104.03271484 C78.75859403 107.88166138 86.4600349 111.73922416 94.15625 115.60742188 C95.14504906 116.10429945 96.13384811 116.60117702 97.15261078 117.1131115 C102.24943004 119.67482643 107.34511212 122.23878009 112.43945312 124.80541992 C117.43006212 127.31948893 122.42354155 129.82777288 127.41893768 132.33231544 C129.30993879 133.28184131 131.19982688 134.23358716 133.08856964 135.18759727 C135.70510585 136.50902891 138.32521419 137.82309766 140.94628906 139.13549805 C142.11020676 139.72672455 142.11020676 139.72672455 143.29763794 140.32989502 C147.44477756 142.4293626 147.44477756 142.4293626 152 143 C153.77295183 140.99896688 155.35428443 139.01898467 156.9375 136.875 C157.9230132 135.57862022 158.91138428 134.2844089 159.90234375 132.9921875 C160.41265137 132.32670898 160.92295898 131.66123047 161.44873047 130.97558594 C163.86636951 127.89665375 166.42715301 124.94937139 169 122 C173.45124833 116.87623 177.69032742 111.62956432 181.84448242 106.26318359 C185.21119531 101.93966656 188.72440241 97.7659683 192.3125 93.625 C198.47389062 86.55943398 198.47389062 86.55943398 204 79 C202.7607016 75.2821048 201.28718934 74.45770911 198.1875 72.125 C192.9453461 68.17596235 187.83351384 63.66767752 186.62890625 56.921875 C186.44114844 50.78109016 187.96084939 46.65748972 192 42 C196.57088598 37.67062967 201.92333733 35.738788 207.6796875 33.4453125 C208.72464386 33.02128143 209.76960022 32.59725037 210.84622192 32.16036987 C214.18600552 30.80731595 217.53037403 29.46603299 220.875 28.125 C223.08624779 27.23123606 225.2971886 26.3367122 227.5078125 25.44140625 C231.75897304 23.72118195 236.01305005 22.00853072 240.27001953 20.30273438 C243.76203623 18.90302062 247.24827986 17.49131433 250.72607422 16.05664062 C251.41597443 15.77408417 252.10587463 15.49152771 252.81668091 15.20040894 C254.57176336 14.48074106 256.32457584 13.75554375 258.07714844 13.02978516 C263.59019747 11.08741623 268.07616833 10.7231368 273.46875 13.078125 C278.9305946 16.30557863 282.2001231 19.90252579 284 26 C284.53855819 31.98335329 283.7240246 37.80623911 282.6875 43.6875 C282.40814788 45.36294762 282.13088704 47.03874497 281.85546875 48.71484375 C281.71286621 49.58093262 281.57026367 50.44702148 281.42333984 51.33935547 C280.7135634 55.80022266 280.10422088 60.27380038 279.5 64.75 C279.3764917 65.65387451 279.2529834 66.55774902 279.12573242 67.48901367 C278.45839859 72.42051965 277.83321971 77.35469544 277.25 82.296875 C277.06147461 83.85196777 277.06147461 83.85196777 276.86914062 85.43847656 C276.62914845 87.42888784 276.39817738 89.42041482 276.17773438 91.41308594 C275.19924302 99.44987605 273.16430264 104.62235647 266.7578125 109.7421875 C262.28058167 112.9458949 258.46291861 113.55555105 253 113 C246.47916048 110.77304663 241.25073671 106.32699599 236 102 C232.82595254 103.37159745 231.02374417 104.84226057 228.86328125 107.52734375 C228.2909375 108.23117187 227.71859375 108.935 227.12890625 109.66015625 C226.52949219 110.41167969 225.93007813 111.16320312 225.3125 111.9375 C224.68601562 112.7109375 224.05953125 113.484375 223.4140625 114.28125 C222.16463343 115.8243593 220.91798441 117.36972428 219.67431641 118.91748047 C217.63184817 121.4579083 215.56795293 123.98029087 213.5 126.5 C212.8090625 127.345625 212.118125 128.19125 211.40625 129.0625 C207.66454358 133.63029745 203.90737457 138.18534249 200.15234375 142.7421875 C196.23313891 147.49940806 192.32527727 152.26566813 188.42578125 157.0390625 C184.58509648 161.72704809 180.72836249 166.40182577 176.87109375 171.07617188 C176.29875 171.77033203 175.72640625 172.46449219 175.13671875 173.1796875 C174.31820435 174.16980835 174.31820435 174.16980835 173.4831543 175.17993164 C172.23017954 176.71753276 171.01664211 178.28714524 169.8125 179.86328125 C168.05171837 181.93903029 166.71806923 183.08702134 164.3125 184.3125 C163.71050781 184.63863281 163.10851562 184.96476563 162.48828125 185.30078125 C153.59079413 187.80101703 147.33397327 184.80026122 139.51342773 180.76757812 C138.40020645 180.2116246 137.28698517 179.65567108 136.14002991 179.08287048 C133.10900408 177.5647713 130.08682803 176.03121589 127.06753802 174.49004173 C123.90302449 172.87953262 120.72820891 171.28959333 117.55445862 169.6973877 C111.55503332 166.68372411 105.56501726 163.65183639 99.5782128 160.61319208 C92.75822826 157.15279051 85.92793189 153.71298328 79.09671867 150.27481556 C65.05292998 143.20596521 51.02222849 136.11153244 37 129 C36.5397216 129.93885796 36.5397216 129.93885796 36.07014465 130.89668274 C35.06300675 132.87616329 33.97406814 134.52571008 32.63671875 136.29296875 C32.16862793 136.9156665 31.70053711 137.53836426 31.21826172 138.17993164 C30.17626579 139.54649185 29.1322397 140.91150592 28.08642578 142.27514648 C25.17667425 146.07767241 22.35734107 149.90481921 19.66796875 153.8671875 C19.11729736 154.65198486 18.56662598 155.43678223 17.99926758 156.24536133 C16.9358796 157.76236348 15.8991551 159.2984954 14.89331055 160.85424805 C13.3984375 162.94140625 13.3984375 162.94140625 10 166 C6.7 165.67 3.4 165.34 0 165 C0 110.55 0 56.1 0 0 Z " fill="#FEC250" transform="translate(181,251)"/>
<path d="M0 0 C17.49 0 34.98 0 53 0 C53 54.45 53 108.9 53 165 C55.97 165 58.94 165 62 165 C68.42565756 167.06572991 73.33756656 171.43030119 77 177 C81.07422564 184.93823934 80.38386668 193.74242791 80.29296875 202.41015625 C80.28736389 203.98912653 80.28309801 205.56810208 80.28010559 207.14707947 C80.26872672 211.27516433 80.23932076 215.40292557 80.20599365 219.53088379 C80.1751415 223.75426864 80.16156809 227.97770648 80.14648438 232.20117188 C80.11444329 240.46759536 80.06333277 248.73375727 80 257 C78.11502346 256.69814053 76.23061131 256.39275567 74.34643555 256.0859375 C73.29699265 255.91626465 72.24754974 255.7465918 71.16630554 255.57177734 C37.07381486 249.41529197 4.99869426 232.83365971 -23 213 C-23.73589355 212.55986572 -24.47178711 212.11973145 -25.22998047 211.66625977 C-27 210 -27 210 -27.53344727 207.43139648 C-27.5693402 204.09867117 -27.59371722 200.7703969 -27.5625 197.4375 C-27.58634766 196.29474609 -27.61019531 195.15199219 -27.63476562 193.97460938 C-27.61944582 185.04316105 -25.75405232 178.43660728 -19.9375 171.5625 C-12.68442021 165.71324211 -9.98773325 165 0 165 C0 110.55 0 56.1 0 0 Z " fill="#524798" transform="translate(128,251)"/>
<path d="M0 0 C16.48462293 -0.63259275 32.68891235 4.37880726 45.0234375 15.4921875 C56.27993471 26.1385228 65.34171184 40.97345407 66.01171875 56.79296875 C66.12193409 65.62764685 66.1335293 73.96321544 62.7109375 82.2421875 C62.3396875 83.1403418 62.3396875 83.1403418 61.9609375 84.05664062 C55.00772434 100.39347248 44.26459894 113.02785175 27.546875 120.0625 C14.26621709 125.20161929 0.51900414 126.31708069 -13.2890625 122.2421875 C-14.16691406 121.98566406 -15.04476562 121.72914063 -15.94921875 121.46484375 C-32.05258804 116.18764959 -44.95853586 104.94314473 -52.62890625 89.89453125 C-59.33571674 75.68004042 -60.93975943 58.2329968 -56.38671875 43.0703125 C-52.45149933 32.93117066 -46.99554993 24.86755401 -39.2890625 17.2421875 C-38.69867188 16.61828125 -38.10828125 15.994375 -37.5 15.3515625 C-27.30927101 5.3852989 -13.86975495 1.02128837 0 0 Z " fill="#F5F3F3" transform="translate(339.2890625,68.7578125)"/>
<path d="M0 0 C13.53 0 27.06 0 41 0 C41 75.9 41 151.8 41 230 C27.47 230 13.94 230 0 230 C0 154.1 0 78.2 0 0 Z " fill="#D80A61" transform="translate(109,21)"/>
<path d="M0 0 C1.71346619 -0.00143509 1.71346619 -0.00143509 3.46154785 -0.00289917 C5.86515356 -0.00357653 8.26876114 -0.00175336 10.67236328 0.00244141 C14.33239893 0.00779589 17.99231188 0.00248124 21.65234375 -0.00390625 C23.9973961 -0.00324539 26.34244838 -0.00196406 28.6875 0 C30.31443787 -0.00303635 30.31443787 -0.00303635 31.97424316 -0.00613403 C42.85609646 0.02712398 52.10013759 0.22664215 60.63671875 7.703125 C68.87016282 16.44480636 68.25527236 27.23808489 68.13671875 38.54296875 C68.13111389 40.12193903 68.12684801 41.70091458 68.12385559 43.27989197 C68.11247672 47.40797683 68.08307076 51.53573807 68.04974365 55.66369629 C68.0188915 59.88708114 68.00531809 64.11051898 67.99023438 68.33398438 C67.95819329 76.60040786 67.90708277 84.86656977 67.84375 93.1328125 C65.95877346 92.83095303 64.07436131 92.52556817 62.19018555 92.21875 C61.14074265 92.04907715 60.09129974 91.8794043 59.01005554 91.70458984 C24.91756486 85.54810447 -7.15755574 68.96647221 -35.15625 49.1328125 C-35.89214355 48.69267822 -36.62803711 48.25254395 -37.38623047 47.79907227 C-39.15625 46.1328125 -39.15625 46.1328125 -39.68969727 43.56420898 C-39.7255902 40.23148367 -39.74996722 36.9032094 -39.71875 33.5703125 C-39.74259766 32.42755859 -39.76644531 31.28480469 -39.79101562 30.10742188 C-39.77569582 21.17597355 -37.91030232 14.56941978 -32.09375 7.6953125 C-22.20702829 -0.27785017 -12.30988433 -0.02297388 0 0 Z " fill="#AC80DC" transform="translate(140.15625,414.8671875)"/>
<path d="M0 0 C1.20264244 -0.0236412 1.20264244 -0.0236412 2.42958069 -0.04776001 C3.28482834 -0.03763885 4.14007599 -0.0275177 5.02124023 -0.01708984 C5.9179393 -0.02187347 6.81463837 -0.0266571 7.73851013 -0.03158569 C9.63558709 -0.03498272 11.53272275 -0.02579398 13.4296875 -0.00488281 C16.2968656 0.02166737 19.16004999 -0.00452081 22.02709961 -0.03662109 C36.35232056 -0.06535399 46.95248869 1.94375211 57.57592773 12.26025391 C65.93308066 21.36225112 69.53429921 30.88265483 69.16967773 43.27978516 C67.73279654 55.3049462 61.70091305 63.91553777 52.53686523 71.49072266 C42.93763905 78.42255324 33.20909624 79.07596287 21.64233398 78.83447266 C19.77834961 78.81416992 19.77834961 78.81416992 17.87670898 78.79345703 C14.83978567 78.75841561 11.80379931 78.70928698 8.76733398 78.64697266 C8.78828125 79.83250732 8.80922852 81.01804199 8.83081055 82.23950195 C8.90332729 86.64693069 8.94917614 91.05430691 8.98706055 95.4621582 C9.00714944 97.36817296 9.03442592 99.27412628 9.0690918 101.17993164 C9.1177304 103.92300591 9.14032978 106.6652639 9.15795898 109.40869141 C9.17860413 110.25783615 9.19924927 111.1069809 9.22052002 111.9818573 C9.22206443 116.07363378 9.09992915 118.11905265 6.86791992 121.66186523 C4.15724727 124.2235202 3.21162006 124.59667612 -0.54516602 125.02197266 C-4.23266602 124.64697266 -4.23266602 124.64697266 -6.92269897 122.80810547 C-10.29304345 118.19587234 -9.93393664 114.27405826 -9.87963867 108.69384766 C-9.88840027 107.58924194 -9.89716187 106.48463623 -9.90618896 105.34655762 C-9.92819032 101.69629606 -9.91362615 98.04724647 -9.89672852 94.39697266 C-9.9000964 91.86018644 -9.90494878 89.32340179 -9.91122437 86.78662109 C-9.91859678 81.47036892 -9.90835493 76.15455085 -9.88452148 70.83837891 C-9.85731107 64.6981762 -9.86612586 58.55880366 -9.89365351 52.41862106 C-9.91910468 46.50414895 -9.9163764 40.58993408 -9.90174484 34.67541504 C-9.89840797 32.16198612 -9.90250771 29.64853604 -9.91414261 27.13513184 C-9.92683296 23.62288183 -9.90749646 20.11222863 -9.87963867 16.60009766 C-9.88975983 15.55994507 -9.89988098 14.51979248 -9.91030884 13.44812012 C-9.84122964 8.75014273 -9.77068942 6.39024886 -6.95677185 2.50283813 C-4.29526381 0.68961897 -3.14821736 0.01792072 0 0 Z " fill="#F5F4F4" transform="translate(207.232666015625,68.35302734375)"/>
<path d="M0 0 C7.90506503 6.51633739 15.22229142 16.51508504 16.38183594 26.98608398 C17.19356268 41.65251033 14.87666804 53.51667851 5.1640625 65.01953125 C-1.5836336 72.26057306 -12.04695098 77.87870347 -22.0078125 78.3203125 C-36.72669837 78.51053268 -47.11650173 76.39319629 -58.1015625 65.84375 C-62.35018941 61.28827782 -65.51073982 56.79321051 -67.8359375 51.01953125 C-68.13371094 50.35695312 -68.43148438 49.694375 -68.73828125 49.01171875 C-72.64396389 39.25651141 -71.84060768 28.51957312 -68.15625 18.83203125 C-62.5435406 6.87596389 -53.19655353 -2.21221786 -40.8359375 -6.98046875 C-26.54361695 -10.82168579 -12.03085752 -8.40171455 0 0 Z " fill="#DC4361" transform="translate(369.8359375,95.98046875)"/>
<path d="M0 0 C7.26 0 14.52 0 22 0 C22 54.12 22 108.24 22 164 C14.74 164 7.48 164 0 164 C0 109.88 0 55.76 0 0 Z " fill="#453D81" transform="translate(128,251)"/>
<path d="M0 0 C1.0054184 0.00465271 2.01083679 0.00930542 3.04672241 0.01409912 C17.55398411 0.09270742 31.81520628 0.39095071 46.0625 3.375 C47.03735352 3.57367676 48.01220703 3.77235352 49.01660156 3.97705078 C67.0737041 7.75427295 85.19051838 12.82700822 102.0625 20.375 C102.0625 20.705 102.0625 21.035 102.0625 21.375 C43.6525 21.375 -14.7575 21.375 -74.9375 21.375 C-74.9375 18.075 -74.9375 14.775 -74.9375 11.375 C-69.21105865 8.66537713 -63.55938962 7.19082758 -57.375 5.875 C-56.49392578 5.67519531 -55.61285156 5.47539063 -54.70507812 5.26953125 C-36.53782906 1.33809348 -18.55429232 -0.15407367 0 0 Z " fill="#F5E165" transform="translate(255.9375,-0.375)"/>
<path d="M0 0 C2.75329021 1.79562405 4.52627461 3.05254922 6 6 C6.0983591 7.47107638 6.13502889 8.94650164 6.14044189 10.42085266 C6.14900711 11.8150946 6.14900711 11.8150946 6.15774536 13.23750305 C6.15886322 14.26038925 6.15998108 15.28327545 6.16113281 16.3371582 C6.16609772 17.41206512 6.17106262 18.48697205 6.17617798 19.5944519 C6.19082608 23.16323478 6.19760614 26.7319732 6.203125 30.30078125 C6.20887442 32.7745921 6.21463218 35.24840293 6.22039795 37.72221375 C6.23091558 42.91499032 6.23675321 48.10775138 6.24023438 53.30053711 C6.24493339 59.95884081 6.26974531 66.616911 6.29820633 73.27515888 C6.31681807 78.38720806 6.32203754 83.49920787 6.32357025 88.61128807 C6.32660078 91.06611435 6.3346427 93.52093968 6.34775543 95.9757328 C6.36478439 99.40886667 6.36294308 102.8414994 6.35644531 106.2746582 C6.3656601 107.29147171 6.37487488 108.30828522 6.3843689 109.35591125 C6.33252028 118.08823095 6.33252028 118.08823095 3 122 C-0.75047482 124.50031654 -2.55856266 124.53603554 -7 124 C-9.96599334 121.96522862 -11.72644908 120.34395605 -12.46132278 116.73352051 C-12.6532283 113.82719375 -12.67531384 110.95950251 -12.64697266 108.046875 C-12.65573425 106.94226929 -12.66449585 105.83766357 -12.67352295 104.69958496 C-12.6955243 101.0493234 -12.68096013 97.40027382 -12.6640625 93.75 C-12.66743038 91.21321378 -12.67228277 88.67642913 -12.67855835 86.13964844 C-12.68593076 80.82339626 -12.67568892 75.5075782 -12.65185547 70.19140625 C-12.62464506 64.05120355 -12.63345985 57.911831 -12.6609875 51.77164841 C-12.68643867 45.85717629 -12.68371039 39.94296142 -12.66907883 34.02844238 C-12.66574195 31.51501347 -12.66984169 29.00156338 -12.68147659 26.48815918 C-12.69416694 22.97590918 -12.67483045 19.46525598 -12.64697266 15.953125 C-12.65709381 14.91297241 -12.66721497 13.87281982 -12.67764282 12.80114746 C-12.60807228 8.06975419 -12.54916709 5.74495634 -9.67831421 1.85058594 C-6.14197142 -0.59285637 -4.21793403 -0.67788225 0 0 Z " fill="#F5F5F5" transform="translate(163,69)"/>
<path d="M0 0 C1.16365585 0.00141495 2.32731171 0.0028299 3.52622986 0.00428772 C7.21412818 0.00984997 10.90196402 0.02239542 14.58984375 0.03515625 C17.10221266 0.04017613 19.61458253 0.04473818 22.12695312 0.04882812 C28.2604377 0.05980702 34.39388626 0.07650722 40.52734375 0.09765625 C40.52734375 0.42765625 40.52734375 0.75765625 40.52734375 1.09765625 C39.69074219 1.11223877 38.85414063 1.12682129 37.9921875 1.1418457 C34.85330932 1.20332844 31.71504959 1.2775579 28.57666016 1.36010742 C26.56434064 1.4092527 24.55168643 1.44401913 22.5390625 1.47851562 C10.8005762 1.79139192 10.8005762 1.79139192 0.77734375 7.41015625 C-4.01876157 13.13883761 -6.53491932 17.33533572 -6.67797852 24.77441406 C-6.70789635 26.15539276 -6.70789635 26.15539276 -6.73841858 27.56427002 C-6.76348732 29.04259308 -6.76348732 29.04259308 -6.7890625 30.55078125 C-6.8098436 31.56613953 -6.83062469 32.5814978 -6.85203552 33.62762451 C-6.91736222 36.86756698 -6.97633762 40.10758973 -7.03515625 43.34765625 C-7.07835751 45.54558118 -7.12197232 47.74349803 -7.16601562 49.94140625 C-7.27302632 55.32673831 -7.37482398 60.71215005 -7.47265625 66.09765625 C-14.67624824 62.65236147 -21.4749686 59.05600292 -27.97265625 54.41015625 C-28.648125 53.93771484 -29.32359375 53.46527344 -30.01953125 52.97851562 C-31.8462396 51.69658349 -33.66546953 50.40694979 -35.47265625 49.09765625 C-36.19251709 48.66743164 -36.91237793 48.23720703 -37.65405273 47.79394531 C-39.47265625 46.09765625 -39.47265625 46.09765625 -40.00610352 43.52905273 C-40.04199645 40.19632742 -40.06637347 36.86805315 -40.03515625 33.53515625 C-40.05900391 32.39240234 -40.08285156 31.24964844 -40.10742188 30.07226562 C-40.09210207 21.1408173 -38.22670857 14.53426353 -32.41015625 7.66015625 C-22.42832088 -0.38971098 -12.42374267 -0.05761961 0 0 Z " fill="#9C66D3" transform="translate(140.47265625,414.90234375)"/>
<path d="M0 0 C3.58875 -0.0825 7.1775 -0.165 10.875 -0.25 C11.98472168 -0.28641602 13.09444336 -0.32283203 14.23779297 -0.36035156 C21.78057122 -0.44325393 29.17229507 0.49615562 34.94482422 5.78027344 C39.94790549 11.31272312 41.47133835 15.7341399 41.3125 23.1796875 C40.66354309 29.0365236 38.29926158 32.70073842 34.1875 36.8125 C26.52270902 42.07265067 20.69528726 42.3972429 11.5625 42.1875 C5.8390625 42.0946875 5.8390625 42.0946875 0 42 C0 28.14 0 14.28 0 0 Z " fill="#DC4563" transform="translate(216,87)"/>
<path d="M0 0 C18.15 0 36.3 0 55 0 C55 11 55 11 54 21 C36.18 21 18.36 21 0 21 C0 14.07 0 7.14 0 0 Z " fill="#524797" transform="translate(127,0)"/>
<path d="M0 0 C7.59 0 15.18 0 23 0 C23 6.93 23 13.86 23 21 C15.41 21 7.82 21 0 21 C0 14.07 0 7.14 0 0 Z " fill="#453D81" transform="translate(127,0)"/>
</svg>
