<?xml version="1.0" encoding="UTF-8"?>
<svg version="1.1" xmlns="http://www.w3.org/2000/svg" width="132" height="151">
<path d="M0 0 C0.84578613 -0.00189835 1.69157227 -0.00379669 2.56298828 -0.00575256 C5.36166623 -0.00946053 8.1600853 0.00124354 10.95874023 0.01245117 C12.90022247 0.013643 14.84170528 0.01409613 16.78318787 0.01383972 C20.85272835 0.01540459 24.92218086 0.02369505 28.99169922 0.03710938 C34.2164347 0.05411048 39.44107357 0.05792339 44.66583347 0.05716419 C48.67458524 0.05743568 52.68331576 0.06291328 56.69206047 0.07016563 C58.6190468 0.07335467 60.54603554 0.07532026 62.47302437 0.07605934 C65.16174579 0.07821978 67.85036329 0.08695727 70.5390625 0.09765625 C71.34067307 0.09720306 72.14228363 0.09674988 72.96818542 0.09628296 C78.4758776 0.12844173 78.4758776 0.12844173 80.70483398 1.24291992 C80.70483398 1.90291992 80.70483398 2.56291992 80.70483398 3.24291992 C81.36483398 3.24291992 82.02483398 3.24291992 82.70483398 3.24291992 C83.32552364 11.31188544 83.32552364 11.31188544 81.07983398 14.68041992 C78.70483398 16.24291992 78.70483398 16.24291992 75.67358398 16.92651367 C72.40940342 17.96370919 72.40940342 17.96370919 71.46264648 21.28198242 C71.25381836 22.4653418 71.04499023 23.64870117 70.82983398 24.86791992 C70.60553711 26.05643555 70.38124023 27.24495117 70.15014648 28.46948242 C70.00319336 29.3847168 69.85624023 30.29995117 69.70483398 31.24291992 C70.30811523 30.47206055 70.91139648 29.70120117 71.53295898 28.90698242 C72.33217773 27.9040918 73.13139648 26.90120117 73.95483398 25.86791992 C74.74374023 24.87018555 75.53264648 23.87245117 76.34545898 22.84448242 C78.46080363 20.51199975 79.81174634 19.34441659 82.70483398 18.24291992 C84.77735481 20.22725636 86.49997919 22.22804188 88.13061523 24.58666992 C88.82078735 25.57703247 88.82078735 25.57703247 89.52490234 26.58740234 C90.01740479 27.29872314 90.50990723 28.01004395 91.01733398 28.74291992 C95.64708389 35.36436302 100.35305776 41.92336875 105.14233398 48.43041992 C105.72088135 49.21932617 106.29942871 50.00823242 106.89550781 50.82104492 C109.36851907 54.1725267 111.84336054 57.43328429 114.61499023 60.54370117 C116.70483398 63.24291992 116.70483398 63.24291992 116.70483398 67.24291992 C113.83018489 67.43878176 110.95545115 67.62485791 108.07983398 67.80541992 C106.8674707 67.88953125 106.8674707 67.88953125 105.63061523 67.9753418 C101.14320883 68.24896414 97.13620899 68.21093873 92.70483398 67.24291992 C92.76506663 68.84811996 92.85391997 70.45226319 92.95483398 72.05541992 C93.00124023 72.94874023 93.04764648 73.84206055 93.09545898 74.76245117 C93.86373464 77.88972707 95.09291034 78.50337877 97.70483398 80.24291992 C97.70483398 80.90291992 97.70483398 81.56291992 97.70483398 82.24291992 C98.36483398 82.24291992 99.02483398 82.24291992 99.70483398 82.24291992 C105.80825105 89.92744503 109.49357757 100.24939391 108.98217773 110.12963867 C107.56660628 120.9158944 104.02035308 130.38961988 95.82983398 137.86791992 C93.05572992 140.96838917 93.0707909 143.29355274 92.94311523 147.35229492 C92.86448242 147.97620117 92.78584961 148.60010742 92.70483398 149.24291992 C89.27535732 150.95765825 85.33593655 150.40866031 81.56103516 150.41992188 C80.1388694 150.42977867 80.1388694 150.42977867 78.68797302 150.43983459 C75.54124885 150.45959255 72.39457244 150.47123541 69.24780273 150.48120117 C67.63812842 150.48731446 67.63812842 150.48731446 65.99593544 150.49355125 C60.31679094 150.51442209 54.63767067 150.52871975 48.95849609 150.53808594 C43.08706214 150.54915588 37.21600661 150.58355988 31.34470654 150.62325764 C26.83485704 150.64937895 22.32509833 150.65777377 17.81517982 150.66136742 C15.65061193 150.66624453 13.48604839 150.67789034 11.32155418 150.69640541 C8.29300154 150.72070233 5.26543627 150.719849 2.23681641 150.71289062 C0.89393555 150.73210571 0.89393555 150.73210571 -0.47607422 150.75170898 C-4.60493458 150.71710714 -6.75977151 150.57109682 -10.35380554 148.36808777 C-12.70733291 145.7917292 -12.91987347 144.62546324 -12.79516602 141.18041992 C-12.78485352 140.32319336 -12.77454102 139.4659668 -12.76391602 138.58276367 C-12.21026721 135.81913338 -11.54187667 134.90559104 -9.29516602 133.24291992 C-6.10766602 132.55541992 -6.10766602 132.55541992 -3.29516602 132.24291992 C-1.84307552 124.64927696 -1.84307552 124.64927696 -0.79516602 116.99291992 C1.57486843 99.21766158 9.61365683 86.81024075 23.17358398 75.61791992 C24.82873053 74.30071237 24.82873053 74.30071237 25.70483398 72.24291992 C25.11573242 71.96706055 24.52663086 71.69120117 23.91967773 71.40698242 C17.45808121 68.01094051 12.89244004 62.76502632 9.70483398 56.24291992 C9.70483398 55.58291992 9.70483398 54.92291992 9.70483398 54.24291992 C9.04483398 53.91291992 8.38483398 53.58291992 7.70483398 53.24291992 C6.65417069 50.68830718 5.71564178 48.16722956 4.82983398 45.55541992 C4.56734863 44.79390625 4.30486328 44.03239258 4.03442383 43.24780273 C-2.60794695 23.73913943 -2.60794695 23.73913943 -2.29516602 17.24291992 C-3.38829102 17.13979492 -4.48141602 17.03666992 -5.60766602 16.93041992 C-9.29516602 16.24291992 -9.29516602 16.24291992 -11.17016602 15.05541992 C-12.79768023 12.43331369 -13.11093906 10.31336919 -13.29516602 7.24291992 C-11.29223035 -0.10117751 -6.74940788 -0.04743496 0 0 Z M46.70483398 70.24291992 C46.04483398 71.23291992 45.38483398 72.22291992 44.70483398 73.24291992 C45.52983398 72.95416992 46.35483398 72.66541992 47.20483398 72.36791992 C53.31788555 70.40301049 59.33491364 69.03915997 65.70483398 68.24291992 C65.70483398 67.58291992 65.70483398 66.92291992 65.70483398 66.24291992 C58.18923117 65.79864783 52.82982909 65.58259756 46.70483398 70.24291992 Z M37.26733398 89.11791992 C32.31660216 99.01938356 31.15838053 108.8609135 34.39233398 119.43041992 C37.78749417 128.66951437 42.83099931 134.60049619 51.59936523 139.24682617 C60.85337385 143.42020261 70.91496065 143.42467427 80.43139648 140.13745117 C89.41884269 136.60115361 95.63449165 130.3454253 99.64233398 121.43041992 C102.90830195 111.63251601 102.68365645 101.79525164 98.70483398 92.24291992 C96.37332754 87.60322209 94.60977365 84.32569685 89.70483398 82.24291992 C89.70483398 81.58291992 89.70483398 80.92291992 89.70483398 80.24291992 C70.18772052 68.20044566 51.95118126 71.79851032 37.26733398 89.11791992 Z " fill="#DEF2F9" transform="translate(14.295166015625,-0.242919921875)"/>
<path d="M0 0 C1.8125 0.21484375 1.8125 0.21484375 4 1 C5.5 2.94140625 5.5 2.94140625 7 5.5625 C10.03522417 10.57778457 13.33327222 15.26673525 16.875 19.9375 C17.390625 20.61796387 17.90625 21.29842773 18.4375 21.99951172 C19.46604952 23.35400548 20.49565595 24.70769737 21.52636719 26.06054688 C23.70158024 28.92335212 25.84955502 31.80604567 28 34.6875 C30.02292912 37.39623275 32.02838486 40.03257359 34.25 42.58203125 C36 45 36 45 36 49 C33.1253509 49.19586184 30.25061717 49.38193799 27.375 49.5625 C26.16263672 49.64661133 26.16263672 49.64661133 24.92578125 49.73242188 C20.43837484 50.00604422 16.43137501 49.96801881 12 49 C12.06023265 50.60520004 12.14908599 52.20934327 12.25 53.8125 C12.29640625 54.70582031 12.3428125 55.59914062 12.390625 56.51953125 C13.15890065 59.64680715 14.38807635 60.26045885 17 62 C17 62.66 17 63.32 17 64 C17.66 64 18.32 64 19 64 C25.10341706 71.68452511 28.78874358 82.00647399 28.27734375 91.88671875 C26.8617723 102.67297448 23.31551909 112.14669996 15.125 119.625 C12.35089593 122.72546925 12.36595691 125.05063282 12.23828125 129.109375 C12.15964844 129.73328125 12.08101563 130.3571875 12 131 C8.57052334 132.71473833 4.63110256 132.16574039 0.85620117 132.17700195 C-0.56596458 132.18685875 -0.56596458 132.18685875 -2.01686096 132.19691467 C-5.16358513 132.21667263 -8.31026154 132.22831549 -11.45703125 132.23828125 C-13.06670556 132.24439454 -13.06670556 132.24439454 -14.70889854 132.25063133 C-20.38804305 132.27150216 -26.06716331 132.28579982 -31.74633789 132.29516602 C-37.61777184 132.30623595 -43.48882738 132.34063995 -49.36012745 132.38033772 C-53.86997695 132.40645903 -58.37973566 132.41485385 -62.88965416 132.41844749 C-65.05422205 132.42332461 -67.2187856 132.43497042 -69.3832798 132.45348549 C-72.41183244 132.47778241 -75.43939771 132.47692908 -78.46801758 132.4699707 C-79.81089844 132.48918579 -79.81089844 132.48918579 -81.1809082 132.50878906 C-85.30976857 132.47418722 -87.4646055 132.3281769 -91.05863953 130.12516785 C-93.4121669 127.54880928 -93.62470745 126.38254332 -93.5 122.9375 C-93.4896875 122.08027344 -93.479375 121.22304687 -93.46875 120.33984375 C-92.9134072 117.5677576 -92.27501485 116.64597849 -90 115 C-87.67085177 114.63858045 -85.33746522 114.30300475 -83 114 C-82.505 113.01 -82.505 113.01 -82 112 C-82 113.32 -82 114.64 -82 116 C-80.515 115.505 -80.515 115.505 -79 115 C-76.48945095 114.8470353 -74.00111475 114.74304822 -71.48828125 114.68359375 C-70.76005661 114.66281265 -70.03183197 114.64203156 -69.28153992 114.62062073 C-66.95862125 114.55531254 -64.63559094 114.49632763 -62.3125 114.4375 C-60.73631665 114.39429695 -59.16014452 114.35068208 -57.58398438 114.30664062 C-53.72277025 114.1996504 -49.86144397 114.09833039 -46 114 C-46.47542236 113.06269043 -46.95084473 112.12538086 -47.44067383 111.15966797 C-48.76021946 108.48586812 -49.78631741 105.95728814 -50.6875 103.125 C-50.93886719 102.34382813 -51.19023438 101.56265625 -51.44921875 100.7578125 C-51.63097656 100.17773438 -51.81273437 99.59765625 -52 99 C-53.65 98.67 -55.3 98.34 -57 98 C-55.02 97.505 -55.02 97.505 -53 97 C-53.04640625 96.04480469 -53.0928125 95.08960937 -53.140625 94.10546875 C-53.40352967 84.68784804 -52.27612772 77.55225543 -48 69 C-47.34 69 -46.68 69 -46 69 C-45.896875 68.39800781 -45.79375 67.79601562 -45.6875 67.17578125 C-44.8883172 64.64654933 -44.01051923 63.86454368 -42 62.1875 C-39.33067887 59.70571899 -39.03182335 59.35642147 -38.6875 55.5 C-38 52 -38 52 -36.1640625 50.57421875 C-35.00003906 49.88779297 -35.00003906 49.88779297 -33.8125 49.1875 C-25.7515009 44.35856551 -22.71819906 35.76894852 -19.078125 27.4453125 C-18.1143027 25.25925179 -17.08793543 23.12641925 -16 21 C-15.34 21 -14.68 21 -14 21 C-13.88914062 20.42765625 -13.77828125 19.8553125 -13.6640625 19.265625 C-11.49064819 11.85044677 -5.12333626 5.56291245 0 0 Z M-34 52 C-34.66 52.99 -35.32 53.98 -36 55 C-35.175 54.71125 -34.35 54.4225 -33.5 54.125 C-27.38694843 52.16009057 -21.36992035 50.79624004 -15 50 C-15 49.34 -15 48.68 -15 48 C-22.51560282 47.55572791 -27.8750049 47.33967764 -34 52 Z M-43.4375 70.875 C-48.38823182 80.77646364 -49.54645346 90.61799358 -46.3125 101.1875 C-42.91733981 110.42659445 -37.87383468 116.35757626 -29.10546875 121.00390625 C-19.85146013 125.17728268 -9.78987333 125.18175435 -0.2734375 121.89453125 C8.7140087 118.35823369 14.92965767 112.10250538 18.9375 103.1875 C22.20346797 93.38959609 21.97882247 83.55233172 18 74 C15.66849355 69.36030217 13.90493966 66.08277693 9 64 C9 63.34 9 62.68 9 62 C-10.51711347 49.95752573 -28.75365272 53.55559039 -43.4375 70.875 Z " fill="#0A5476" transform="translate(95,18)"/>
<path d="M0 0 C-0.47191393 6.06072317 -1.78948738 10.46423214 -4.625 15.8125 C-4.98400391 16.504646 -5.34300781 17.19679199 -5.71289062 17.90991211 C-10.29088007 26.61475315 -14.56105141 34.07692077 -22.26953125 40.32421875 C-26.07926264 44.01355231 -26.82203223 48.66524169 -27.5 53.75 C-28.02901789 57.18861627 -28.85697632 58.37821571 -31 61 C-31.08636719 59.83082031 -31.17273438 58.66164062 -31.26171875 57.45703125 C-31.40247186 55.90874699 -31.54446445 54.36057507 -31.6875 52.8125 C-31.74099609 52.04357422 -31.79449219 51.27464844 -31.84960938 50.48242188 C-32.24965155 46.42982066 -32.6266538 44.45846139 -35.26171875 41.22265625 C-36.61716797 40.12244141 -36.61716797 40.12244141 -38 39 C-48.96882823 29.87639521 -55.09893129 18.36368575 -60 5 C-60 4.01 -60 3.02 -60 2 C-59.19175781 2.01160156 -58.38351563 2.02320313 -57.55078125 2.03515625 C-56.48214844 2.04417969 -55.41351563 2.05320312 -54.3125 2.0625 C-52.72888672 2.07990234 -52.72888672 2.07990234 -51.11328125 2.09765625 C-48.26070584 2.00817772 -45.77671534 1.61298164 -43 1 C-36.24382013 0.02602516 -32.40244805 1.44334499 -26.9453125 5.4921875 C-25.98238281 6.23855469 -25.98238281 6.23855469 -25 7 C-21.28974626 9.4735025 -18.3028925 9.66261272 -14 9 C-10.4653206 7.12869914 -8.10555495 5.10800972 -5.3125 2.25 C-3 0 -3 0 0 0 Z " fill="#FBAAA8" transform="translate(79,26)"/>
<path d="M0 0 C6.75 -0.125 6.75 -0.125 9 1 C9.12632813 1.63164063 9.25265625 2.26328125 9.3828125 2.9140625 C9.80934453 5.13093669 9.80934453 5.13093669 11.7421875 6.2734375 C12.44601563 6.63695313 13.14984375 7.00046875 13.875 7.375 C17.7828156 9.66215958 19.608507 11.54722241 21 16 C20.6875 18.875 20.6875 18.875 20 21 C13.375 22.125 13.375 22.125 10 21 C10.15982161 23.43404514 10.15982161 23.43404514 11 26 C12.96276427 27.39034179 12.96276427 27.39034179 15.375 28.3125 C18.74945652 30.03734163 20.63854674 31.20915616 22.125 34.75 C23.78086668 40.72013158 23.07734454 45.9222641 20.25 51.375 C17.97169763 54.03301943 16.16712903 55.53824814 13 57 C12.01 57 11.02 57 10 57 C9.67 58.98 9.34 60.96 9 63 C6.04452467 63.84442152 4.2614612 64.0653653 1.25 63.3125 C0.5075 62.879375 -0.235 62.44625 -1 62 C-1.144375 61.34 -1.28875 60.68 -1.4375 60 C-1.623125 59.34 -1.80875 58.68 -2 58 C-4.99615946 56.6954344 -4.99615946 56.6954344 -8 56 C-8 55.34 -8 54.68 -8 54 C-8.66 54 -9.32 54 -10 54 C-12.94647086 50.48209236 -14.87599592 47.1367041 -15.375 42.5625 C-15 40 -15 40 -14 39 C-12.31391034 38.92794489 -10.62499341 38.91613932 -8.9375 38.9375 C-8.01839844 38.94652344 -7.09929687 38.95554688 -6.15234375 38.96484375 C-5.44207031 38.97644531 -4.73179688 38.98804688 -4 39 C-3.34 41.31 -2.68 43.62 -2 46 C-1.34 46 -0.68 46 0 46 C-0.33 42.37 -0.66 38.74 -1 35 C-2.299375 34.7215625 -2.299375 34.7215625 -3.625 34.4375 C-8.07611313 32.54165552 -10.56547096 30.17347836 -13 26 C-14.38343184 21.5730181 -14.37673491 18.1523656 -12.9375 13.75 C-10.03570644 9.63132527 -7.12333116 6.60007185 -2.125 5.1875 C-1.073125 5.0946875 -1.073125 5.0946875 0 5 C0 3.35 0 1.7 0 0 Z M-2 17 C-2 19.31 -2 21.62 -2 24 C-1.67 24 -1.34 24 -1 24 C-1 21.69 -1 19.38 -1 17 C-1.33 17 -1.66 17 -2 17 Z M9 37 C9 39.97 9 42.94 9 46 C12.0589579 44.35993538 12.0589579 44.35993538 12.8125 42.0625 C13.24586971 39.68873941 13.24586971 39.68873941 11 37 C10.34 37 9.68 37 9 37 Z " fill="#A18F95" transform="translate(77,76)"/>
<path d="M0 0 C0.84578613 -0.00189835 1.69157227 -0.00379669 2.56298828 -0.00575256 C5.36166623 -0.00946053 8.1600853 0.00124354 10.95874023 0.01245117 C12.90022247 0.013643 14.84170528 0.01409613 16.78318787 0.01383972 C20.85272835 0.01540459 24.92218086 0.02369505 28.99169922 0.03710938 C34.2164347 0.05411048 39.44107357 0.05792339 44.66583347 0.05716419 C48.67458524 0.05743568 52.68331576 0.06291328 56.69206047 0.07016563 C58.6190468 0.07335467 60.54603554 0.07532026 62.47302437 0.07605934 C65.16174579 0.07821978 67.85036329 0.08695727 70.5390625 0.09765625 C71.34067307 0.09720306 72.14228363 0.09674988 72.96818542 0.09628296 C78.4758776 0.12844173 78.4758776 0.12844173 80.70483398 1.24291992 C80.70483398 1.90291992 80.70483398 2.56291992 80.70483398 3.24291992 C81.36483398 3.24291992 82.02483398 3.24291992 82.70483398 3.24291992 C82.78614862 4.67947846 82.84416957 6.11736822 82.89233398 7.55541992 C82.94454102 8.75618164 82.94454102 8.75618164 82.99780273 9.98120117 C82.70483398 12.24291992 82.70483398 12.24291992 81.69311523 13.97338867 C76.65895314 17.18773579 68.99872699 16.36548728 63.17749023 16.26464844 C62.36677567 16.25504089 61.5560611 16.24543335 60.72077942 16.23553467 C58.06953431 16.20283464 55.41846935 16.16239419 52.76733398 16.12182617 C50.91789362 16.09749662 49.06844679 16.07365453 47.21899414 16.05027771 C42.37254412 15.98771866 37.52620999 15.91857354 32.67987061 15.84802246 C27.72600542 15.77708309 22.77205866 15.71241981 17.81811523 15.6472168 C8.11359848 15.51856817 -1.59080737 15.38295651 -11.29516602 15.24291992 C-13.38110352 7.60229492 -13.38110352 7.60229492 -12.60766602 4.36791992 C-9.51340773 -0.64183158 -5.25302273 -0.03691834 0 0 Z " fill="#105676" transform="translate(14.295166015625,-0.242919921875)"/>
<path d="M0 0 C3.59059847 3.44494809 6.60909106 6.97309111 9.5625 11 C11.73707113 13.95470324 13.87269632 16.85326231 16.27734375 19.625 C18 22 18 22 18 26 C15.1253509 26.19586184 12.25061717 26.38193799 9.375 26.5625 C8.56675781 26.61857422 7.75851563 26.67464844 6.92578125 26.73242188 C2.43837484 27.00604422 -1.56862499 26.96801881 -6 26 C-5.93976735 27.60520004 -5.85091401 29.20934327 -5.75 30.8125 C-5.70359375 31.70582031 -5.6571875 32.59914062 -5.609375 33.51953125 C-4.84109935 36.64680715 -3.61192365 37.26045885 -1 39 C-1 39.66 -1 40.32 -1 41 C-0.34 41 0.32 41 1 41 C7.10341706 48.68452511 10.78874358 59.00647399 10.27734375 68.88671875 C8.8617723 79.67297448 5.31551909 89.14669996 -2.875 96.625 C-5.64910407 99.72546925 -5.63404309 102.05063282 -5.76171875 106.109375 C-5.84035156 106.73328125 -5.91898437 107.3571875 -6 108 C-9.43326727 109.71663364 -13.38047389 109.1657472 -17.15966797 109.17700195 C-18.10938477 109.18357315 -19.05910156 109.19014435 -20.03759766 109.19691467 C-23.18912834 109.2166707 -26.34061137 109.22831435 -29.4921875 109.23828125 C-31.10373404 109.24439454 -31.10373404 109.24439454 -32.74783707 109.25063133 C-38.43231261 109.27150019 -44.11676394 109.28579936 -49.80126953 109.29516602 C-55.68176953 109.30624251 -61.56189237 109.34065458 -67.44225883 109.38033772 C-71.95635701 109.40644022 -76.47036438 109.4148521 -80.9845314 109.41844749 C-83.15271685 109.42332859 -85.32089784 109.43498559 -87.48900986 109.45348549 C-90.52016148 109.47774517 -93.55032468 109.47693611 -96.58154297 109.4699707 C-97.92981674 109.48918579 -97.92981674 109.48918579 -99.30532837 109.50878906 C-105.41642913 109.45748998 -105.41642913 109.45748998 -108.58865356 106.97062683 C-109.05439789 106.32031998 -109.52014221 105.67001312 -110 105 C-109.01 105.33 -108.02 105.66 -107 106 C-105.61222594 106.11327631 -104.21996083 106.17596697 -102.82788086 106.20532227 C-101.9812085 106.22526245 -101.13453613 106.24520264 -100.26220703 106.26574707 C-98.87751221 106.29082336 -98.87751221 106.29082336 -97.46484375 106.31640625 C-96.49409912 106.33723267 -95.52335449 106.35805908 -94.52319336 106.3795166 C-91.32804481 106.44591357 -88.13281347 106.50462238 -84.9375 106.5625 C-83.85252228 106.58367889 -82.76754456 106.60485779 -81.64968872 106.62667847 C-59.7657495 107.05205691 -37.88713727 107.11284714 -16 107 C-16.165 106.360625 -16.33 105.72125 -16.5 105.0625 C-17 103 -17 103 -17 102 C-17.61520508 102.01047363 -18.23041016 102.02094727 -18.86425781 102.03173828 C-21.65946343 102.07338695 -24.45460366 102.09935416 -27.25 102.125 C-28.70212891 102.15013672 -28.70212891 102.15013672 -30.18359375 102.17578125 C-31.58544922 102.18544922 -31.58544922 102.18544922 -33.015625 102.1953125 C-33.87446289 102.20578613 -34.73330078 102.21625977 -35.61816406 102.22705078 C-38.17903596 101.98293323 -39.79511029 101.28990512 -42 100 C-40.96101563 100.03480469 -39.92203125 100.06960937 -38.8515625 100.10546875 C-28.53332275 100.34698318 -19.89561607 99.83774804 -11 94 C-10.34 94 -9.68 94 -9 94 C-8.505 92.515 -8.505 92.515 -8 91 C-7.34 91 -6.68 91 -6 91 C-5.58427734 90.16275391 -5.58427734 90.16275391 -5.16015625 89.30859375 C-4.36785548 87.73199525 -3.56254477 86.16188483 -2.74609375 84.59765625 C-2.31425781 83.76105469 -1.88242188 82.92445312 -1.4375 82.0625 C-0.78587891 80.81146484 -0.78587891 80.81146484 -0.12109375 79.53515625 C3.35170633 71.68202993 3.02298372 61.91733831 0 54 C-2.37174233 48.54415457 -4.12274289 44.52822855 -9 41 C-9 40.34 -9 39.68 -9 39 C-10.485 38.505 -10.485 38.505 -12 38 C-12 37.01 -12 36.02 -12 35 C-11.34 35 -10.68 35 -10 35 C-9.67 31.7 -9.34 28.4 -9 25 C-9.66 24.67 -10.32 24.34 -11 24 C-11.495 22.515 -11.495 22.515 -12 21 C-13.65 20.67 -15.3 20.34 -17 20 C-17 19.01 -17 18.02 -17 17 C-16.34 17 -15.68 17 -15 17 C-15 16.34 -15 15.68 -15 15 C-10.125 13 -10.125 13 -9 13 C-9 11.68 -9 10.36 -9 9 C-3.25 6 -3.25 6 -1 6 C-1 5.34 -1 4.68 -1 4 C-0.34 4 0.32 4 1 4 C0.505 2.02 0.505 2.02 0 0 Z " fill="#0B5274" transform="translate(113,41)"/>
<path d="M0 0 C23.1 0 46.2 0 70 0 C69.08787011 8.20916898 67.42263995 14.66846569 64.8125 22.375 C64.43802734 23.53 64.06355469 24.685 63.67773438 25.875 C60.37690554 35.73852224 56.92105149 45.98798704 48 52 C47.236875 52.28875 46.47375 52.5775 45.6875 52.875 C45.130625 53.24625 44.57375 53.6175 44 54 C43.814375 55.6396875 43.814375 55.6396875 43.625 57.3125 C42.96751161 61.19168149 42.77748239 61.62049805 39.9375 63.9375 C38.968125 64.618125 37.99875 65.29875 37 66 C37.25284004 59.60314704 37.66468031 55.01984385 42 50 C43.07966378 49.14271524 44.1676395 48.2958409 45.26171875 47.45703125 C49.74923177 43.64615105 52.36434161 39.043611 55.1875 33.9375 C55.70924805 33.01171143 56.23099609 32.08592285 56.76855469 31.13208008 C60.52859712 24.28615627 63.34932235 17.66995906 65 10 C61.83556858 11.81913958 59.03234896 13.69241599 56.3125 16.125 C52.73796245 19.31117316 50.34099481 20.50520329 45.3671875 20.49609375 C40.51650453 19.47953148 36.83971552 15.97613638 33 13 C29.04328559 11.02164279 23.75651604 11.64869679 19.5 12.5 C14.66118112 13.46776378 9.6868608 13.56228693 5 12 C5.33 14.31 5.66 16.62 6 19 C3.29259338 16.29259338 2.8989446 13.7373234 1.875 10.0625 C1.52179687 8.81597656 1.16859375 7.56945312 0.8046875 6.28515625 C0 3 0 3 0 0 Z " fill="#DFF2F9" transform="translate(14,16)"/>
<path d="M0 0 C2.39580627 2.00038194 4.16698957 2.9102067 7.25 3.5 C7.25 4.16 7.25 4.82 7.25 5.5 C16.16 5.5 25.07 5.5 34.25 5.5 C33.92 7.48 33.59 9.46 33.25 11.5 C29.08117395 12.6639626 25.04590874 12.64332385 20.74609375 12.6328125 C19.89084106 12.63426773 19.03558838 12.63572296 18.15441895 12.63722229 C15.3320692 12.63948389 12.50983795 12.63314737 9.6875 12.625 C8.24227463 12.62217514 8.24227463 12.62217514 6.76785278 12.61929321 C-7.47547306 12.58682887 -21.71966908 12.48703357 -35.96090698 12.23553467 C-37.8588827 12.20356354 -39.75694576 12.17640736 -41.65505981 12.15411377 C-44.3030903 12.12115884 -46.9500587 12.06915604 -49.59765625 12.01171875 C-50.38313843 12.00531876 -51.16862061 11.99891876 -51.97790527 11.99232483 C-57.22977566 11.84805922 -57.22977566 11.84805922 -59.75952148 10.15551758 C-60.75 8.5 -60.75 8.5 -60.75 5.5 C-60.151875 5.726875 -59.55375 5.95375 -58.9375 6.1875 C-58.215625 6.290625 -57.49375 6.39375 -56.75 6.5 C-55.2912312 5.20921589 -55.2912312 5.20921589 -53.75 3.5 C-52.739375 3.005 -51.72875 2.51 -50.6875 2 C-47.51974251 0.68410745 -47.51974251 0.68410745 -45.75 -2.5 C-43.2246847 -2.85140813 -40.93232459 -3.01279249 -38.3984375 -3.046875 C-37.66557526 -3.06719788 -36.93271301 -3.08752075 -36.17764282 -3.10845947 C-34.62266107 -3.14871456 -33.06748174 -3.18186358 -31.51220703 -3.20849609 C-29.15460882 -3.24948522 -26.79840178 -3.31218484 -24.44140625 -3.37890625 C-22.92711398 -3.4153585 -21.41279081 -3.45055339 -19.8984375 -3.484375 C-18.85422134 -3.51081085 -18.85422134 -3.51081085 -17.78890991 -3.53778076 C-4.39793719 -3.7447782 -4.39793719 -3.7447782 0 0 Z " fill="#0B5375" transform="translate(63.75,136.5)"/>
<path d="M0 0 C0.495 1.485 0.495 1.485 1 3 C0.34 3 -0.32 3 -1 3 C-1 2.34 -1 1.68 -1 1 C-8.40237027 1.24309919 -13.86895264 1.68039845 -20 6 C-19.484375 5.855625 -18.96875 5.71125 -18.4375 5.5625 C-15.31490429 4.84190099 -12.17449308 4.42733561 -9 4 C-9.99 4.33 -10.98 4.66 -12 5 C-12 5.66 -12 6.32 -12 7 C-11.12263184 6.98428955 -11.12263184 6.98428955 -10.22753906 6.96826172 C-7.56840337 6.92659736 -4.90933647 6.90064099 -2.25 6.875 C-0.86941406 6.84986328 -0.86941406 6.84986328 0.5390625 6.82421875 C1.87324219 6.81455078 1.87324219 6.81455078 3.234375 6.8046875 C4.05131836 6.79421387 4.86826172 6.78374023 5.70996094 6.77294922 C8.21887518 7.02170084 9.83395625 7.74299871 12 9 C10.74445313 8.95359375 9.48890625 8.9071875 8.1953125 8.859375 C-4.19625599 8.53129371 -12.56270384 9.02811943 -22.375 17.25 C-26.42938009 21.13279974 -29.17692255 24.68975695 -31 30 C-31.33257812 30.95326172 -31.33257812 30.95326172 -31.671875 31.92578125 C-34.58925929 41.7620972 -33.0655895 50.70133754 -29 60 C-26.93813456 63.00271913 -26.93813456 63.00271913 -25 65 C-25 65.66 -25 66.32 -25 67 C-24.01 67.33 -23.02 67.66 -22 68 C-23.8125 69.0625 -23.8125 69.0625 -26 70 C-26.99 69.67 -27.98 69.34 -29 69 C-31.53046237 68.92438203 -34.02579037 68.90503057 -36.5546875 68.9453125 C-37.66253098 68.96294144 -37.66253098 68.96294144 -38.79275513 68.98092651 C-40.35457802 69.00963505 -41.91634075 69.04179435 -43.47802734 69.07714844 C-45.07225113 69.10897446 -46.66672322 69.13018419 -48.26123047 69.140625 C-50.56846084 69.15590151 -52.87308842 69.20332146 -55.1796875 69.2578125 C-56.24242386 69.25661911 -56.24242386 69.25661911 -57.32662964 69.25540161 C-61.2983191 69.39084688 -62.81486239 69.83170775 -65.80126953 72.54638672 C-66.88964111 73.76092529 -66.88964111 73.76092529 -68 75 C-68.99 75 -69.98 75 -71 75 C-71.33 75.99 -71.66 76.98 -72 78 C-73.485 78.495 -73.485 78.495 -75 79 C-75.66 78.67 -76.32 78.34 -77 78 C-77.33 78.99 -77.66 79.98 -78 81 C-78.33 81 -78.66 81 -79 81 C-79.08121924 79.39667209 -79.13929134 77.79215974 -79.1875 76.1875 C-79.22230469 75.29417969 -79.25710937 74.40085937 -79.29296875 73.48046875 C-79 71 -79 71 -77.71484375 69.2109375 C-75.06775227 67.34169294 -72.16258234 67.40996438 -69 67 C-68.505 66.01 -68.505 66.01 -68 65 C-68 66.32 -68 67.64 -68 69 C-66.515 68.505 -66.515 68.505 -65 68 C-62.48945095 67.8470353 -60.00111475 67.74304822 -57.48828125 67.68359375 C-56.76005661 67.66281265 -56.03183197 67.64203156 -55.28153992 67.62062073 C-52.95862125 67.55531254 -50.63559094 67.49632763 -48.3125 67.4375 C-46.73631665 67.39429695 -45.16014452 67.35068208 -43.58398438 67.30664062 C-39.72277025 67.1996504 -35.86144397 67.09833039 -32 67 C-32.47542236 66.06269043 -32.95084473 65.12538086 -33.44067383 64.15966797 C-34.76021946 61.48586812 -35.78631741 58.95728814 -36.6875 56.125 C-36.93886719 55.34382813 -37.19023438 54.56265625 -37.44921875 53.7578125 C-37.63097656 53.17773438 -37.81273437 52.59765625 -38 52 C-39.65 51.67 -41.3 51.34 -43 51 C-41.02 50.505 -41.02 50.505 -39 50 C-39.04640625 49.04480469 -39.0928125 48.08960938 -39.140625 47.10546875 C-39.40352967 37.68784804 -38.27612772 30.55225543 -34 22 C-33.34 22 -32.68 22 -32 22 C-31.8453125 21.09701172 -31.8453125 21.09701172 -31.6875 20.17578125 C-30.8883172 17.64654933 -30.01051923 16.86454368 -28 15.1875 C-25.33067887 12.70571899 -25.03182335 12.35642147 -24.6875 8.5 C-23.91785911 4.5818282 -23.39024181 3.91666876 -20.375 1.5 C-13.99011693 -2.41164636 -7.0787467 -1.02590532 0 0 Z " fill="#5A7D90" transform="translate(81,65)"/>
<path d="M0 0 C0.33 0.33 0.66 0.66 1 1 C2.34747084 1.23075082 3.70377565 1.41153063 5.0625 1.5625 C6.361875 1.706875 7.66125 1.85125 9 2 C9 2.99 9 3.98 9 5 C8.07767578 4.96519531 8.07767578 4.96519531 7.13671875 4.9296875 C6.32847656 4.91164063 5.52023438 4.89359375 4.6875 4.875 C3.48673828 4.84019531 3.48673828 4.84019531 2.26171875 4.8046875 C-0.28388576 4.84182678 -0.28388576 4.84182678 -3 7 C-3.33 7.99 -3.66 8.98 -4 10 C-4.66 10 -5.32 10 -6 10 C-5.67 12.31 -5.34 14.62 -5 17 C-3.98679687 17.18175781 -2.97359375 17.36351563 -1.9296875 17.55078125 C-0.57803647 17.80421582 0.77352119 18.05814865 2.125 18.3125 C2.79015625 18.43044922 3.4553125 18.54839844 4.140625 18.66992188 C9.43178355 19.68146689 14.1756676 20.99323436 17.875 25.0625 C19.98336745 30.56768167 19.72274035 35.90785687 17.8125 41.4375 C14.95818959 45.47290437 11.73106866 47.01181006 7 48 C1.30608798 48.5383335 -3.11251597 48.29905172 -8 45 C-8.495 43.515 -8.495 43.515 -9 42 C-9.66 42 -10.32 42 -11 42 C-12.31626692 38.38026598 -13 35.90432869 -13 32 C-11.02 32 -9.04 32 -7 32 C-6.5875 33.11375 -6.175 34.2275 -5.75 35.375 C-4.76402645 37.61956651 -4.1616147 38.85634249 -2.3125 40.5 C1.26650486 41.27383889 4.4841838 41.0086358 8 40 C10.54645504 38.29039594 10.54645504 38.29039594 12 36 C12 35.01 12 34.02 12 33 C12 31.68 12 30.36 12 29 C8.487379 26.92912642 5.12268435 26.45298921 1.125 25.8125 C-4.41624573 24.66384594 -7.86510262 23.62390815 -11.15625 18.91796875 C-12.48912881 15.88813776 -12.39588684 13.23307589 -12 10 C-11.34 10 -10.68 10 -10 10 C-10.268125 9.46375 -10.53625 8.9275 -10.8125 8.375 C-11 6 -11 6 -8.75 2.8125 C-5.50712885 -0.50407277 -4.46163724 -1.48721241 0 0 Z " fill="#EEACAD" transform="translate(78,84)"/>
<path d="M0 0 C4.45406184 6.68109277 4.77022707 15.01453024 3.5703125 22.78125 C1.70750114 31.70434641 -2.08433014 39.42482317 -8.875 45.625 C-11.64910407 48.72546925 -11.63404309 51.05063282 -11.76171875 55.109375 C-11.84035156 55.73328125 -11.91898437 56.3571875 -12 57 C-15.43326727 58.71663364 -19.38047389 58.1657472 -23.15966797 58.17700195 C-24.10938477 58.18357315 -25.05910156 58.19014435 -26.03759766 58.19691467 C-29.18912834 58.2166707 -32.34061137 58.22831435 -35.4921875 58.23828125 C-37.10373404 58.24439454 -37.10373404 58.24439454 -38.74783707 58.25063133 C-44.43231261 58.27150019 -50.11676394 58.28579936 -55.80126953 58.29516602 C-61.68176953 58.30624251 -67.56189237 58.34065458 -73.44225883 58.38033772 C-77.95635701 58.40644022 -82.47036438 58.4148521 -86.9845314 58.41844749 C-89.15271685 58.42332859 -91.32089784 58.43498559 -93.48900986 58.45348549 C-96.52016148 58.47774517 -99.55032468 58.47693611 -102.58154297 58.4699707 C-103.48039215 58.48278076 -104.37924133 58.49559082 -105.30532837 58.50878906 C-111.41642913 58.45748998 -111.41642913 58.45748998 -114.58865356 55.97062683 C-115.05439789 55.32031998 -115.52014221 54.67001312 -116 54 C-115.01 54.33 -114.02 54.66 -113 55 C-111.61222594 55.11327631 -110.21996083 55.17596697 -108.82788086 55.20532227 C-107.9812085 55.22526245 -107.13453613 55.24520264 -106.26220703 55.26574707 C-104.87751221 55.29082336 -104.87751221 55.29082336 -103.46484375 55.31640625 C-102.49409912 55.33723267 -101.52335449 55.35805908 -100.52319336 55.3795166 C-97.32804481 55.44591357 -94.13281347 55.50462238 -90.9375 55.5625 C-89.85252228 55.58367889 -88.76754456 55.60485779 -87.64968872 55.62667847 C-65.7657495 56.05205691 -43.88713727 56.11284714 -22 56 C-22.165 55.360625 -22.33 54.72125 -22.5 54.0625 C-23 52 -23 52 -23 51 C-23.92280762 51.01571045 -23.92280762 51.01571045 -24.86425781 51.03173828 C-27.65946343 51.07338695 -30.45460366 51.09935416 -33.25 51.125 C-34.70212891 51.15013672 -34.70212891 51.15013672 -36.18359375 51.17578125 C-37.58544922 51.18544922 -37.58544922 51.18544922 -39.015625 51.1953125 C-39.87446289 51.20578613 -40.73330078 51.21625977 -41.61816406 51.22705078 C-44.17903596 50.98293323 -45.79511029 50.28990512 -48 49 C-46.96101563 49.03480469 -45.92203125 49.06960937 -44.8515625 49.10546875 C-34.53332275 49.34698318 -25.89561607 48.83774804 -17 43 C-16.34 43 -15.68 43 -15 43 C-14.67 42.01 -14.34 41.02 -14 40 C-13.34 40 -12.68 40 -12 40 C-11.72285156 39.44183594 -11.44570312 38.88367188 -11.16015625 38.30859375 C-10.36785548 36.73199525 -9.56254477 35.16188483 -8.74609375 33.59765625 C-8.31425781 32.76105469 -7.88242188 31.92445312 -7.4375 31.0625 C-7.00308594 30.22847656 -6.56867188 29.39445312 -6.12109375 28.53515625 C-3.8859646 23.48080497 -3.86965551 18.64115346 -3.9375 13.1875 C-3.94201172 12.49462891 -3.94652344 11.80175781 -3.95117188 11.08789062 C-3.96286844 9.39188932 -3.98080076 7.69593297 -4 6 C-1.86395692 9.20406462 -1.75791092 9.99600747 -1.8046875 13.66796875 C-1.81113281 14.56064453 -1.81757812 15.45332031 -1.82421875 16.37304688 C-1.84935547 17.76620117 -1.84935547 17.76620117 -1.875 19.1875 C-1.88402344 20.12787109 -1.89304687 21.06824219 -1.90234375 22.03710938 C-1.92590944 24.35832968 -1.95880884 26.67903644 -2 29 C0.32891212 25.50663182 0.23551143 24.13992135 0.1953125 20.01953125 C0.18886719 18.85615234 0.18242188 17.69277344 0.17578125 16.49414062 C0.15902344 15.27919922 0.14226562 14.06425781 0.125 12.8125 C0.11597656 11.58595703 0.10695313 10.35941406 0.09765625 9.09570312 C0.07406017 6.06360705 0.04113841 3.03190062 0 0 Z " fill="#859DAC" transform="translate(119,92)"/>
<path d="M0 0 C-0.47191393 6.06072317 -1.78948738 10.46423214 -4.625 15.8125 C-4.98400391 16.504646 -5.34300781 17.19679199 -5.71289062 17.90991211 C-10.26171358 26.55929438 -14.48459811 34.07375208 -22.19921875 40.23046875 C-25.26568814 43.24372392 -26.61840056 46.99154374 -28 51 C-28.33 51 -28.66 51 -29 51 C-28.50269348 46.02693484 -27.44697666 42.36200187 -25 38 C-24.01 38 -23.02 38 -22 38 C-21.67 36.68 -21.34 35.36 -21 34 C-20.34 34 -19.68 34 -19 34 C-18.938125 33.071875 -18.87625 32.14375 -18.8125 31.1875 C-18 28 -18 28 -15.4375 26.125 C-14.2309375 25.568125 -14.2309375 25.568125 -13 25 C-14.32 25 -15.64 25 -17 25 C-17.75 23.25 -17.75 23.25 -18 21 C-16.0625 18.75 -16.0625 18.75 -14 17 C-16.19797403 14.80202597 -17.17546145 14.54102483 -20.125 13.875 C-21.40375 13.58625 -22.6825 13.2975 -24 13 C-24 12.34 -24 11.68 -24 11 C-26.475 10.505 -26.475 10.505 -29 10 C-29 9.34 -29 8.68 -29 8 C-29.94875 7.71125 -30.8975 7.4225 -31.875 7.125 C-35 6 -35 6 -37 4 C-39.11164911 3.98050097 -39.11164911 3.98050097 -41.5 4.375 C-46.69774926 5.01903599 -51.77087426 5.07915242 -57 5 C-51.66691092 17.84097032 -46.97822013 27.81877948 -36.1875 36.9375 C-31.64972708 40.92279441 -29.7256617 43.65473569 -29.1484375 49.67578125 C-29.07496094 50.82626953 -29.07496094 50.82626953 -29 52 C-28.76539062 52.83917969 -28.53078125 53.67835937 -28.2890625 54.54296875 C-28 57 -28 57 -29.4375 59.3125 C-29.953125 59.869375 -30.46875 60.42625 -31 61 C-31.08636719 59.83082031 -31.17273438 58.66164062 -31.26171875 57.45703125 C-31.40247186 55.90874699 -31.54446445 54.36057507 -31.6875 52.8125 C-31.74099609 52.04357422 -31.79449219 51.27464844 -31.84960938 50.48242188 C-32.24965155 46.42982066 -32.6266538 44.45846139 -35.26171875 41.22265625 C-36.61716797 40.12244141 -36.61716797 40.12244141 -38 39 C-48.96882823 29.87639521 -55.09893129 18.36368575 -60 5 C-60 4.01 -60 3.02 -60 2 C-59.19175781 2.01160156 -58.38351563 2.02320313 -57.55078125 2.03515625 C-56.48214844 2.04417969 -55.41351563 2.05320312 -54.3125 2.0625 C-52.72888672 2.07990234 -52.72888672 2.07990234 -51.11328125 2.09765625 C-48.26070584 2.00817772 -45.77671534 1.61298164 -43 1 C-36.24382013 0.02602516 -32.40244805 1.44334499 -26.9453125 5.4921875 C-25.98238281 6.23855469 -25.98238281 6.23855469 -25 7 C-21.28974626 9.4735025 -18.3028925 9.66261272 -14 9 C-10.4653206 7.12869914 -8.10555495 5.10800972 -5.3125 2.25 C-3 0 -3 0 0 0 Z " fill="#F4A9A7" transform="translate(79,26)"/>
<path d="M0 0 C29.04 0 58.08 0 88 0 C85 2 85 2 82 3 C81.16554131 5.79439724 80.50635221 8.46355702 79.9375 11.3125 C77.98657913 20.70669326 77.98657913 20.70669326 76 24 C75.34 24 74.68 24 74 24 C73.67 25.32 73.34 26.64 73 28 C71.66785242 25.33570485 72.29704831 24.41167029 73.1796875 21.60546875 C73.44910156 20.73212891 73.71851562 19.85878906 73.99609375 18.95898438 C74.28613281 18.04439453 74.57617188 17.12980469 74.875 16.1875 C75.43696879 14.38996968 75.99692789 12.59180959 76.5546875 10.79296875 C76.80718262 9.9939917 77.05967773 9.19501465 77.31982422 8.37182617 C78.01457252 5.94918448 78.50573022 3.47134889 79 1 C55.9 1 32.8 1 9 1 C10.65 6.61 12.3 12.22 14 18 C14 19.98 14 21.96 14 24 C14.66 24 15.32 24 16 24 C16.21914063 24.72703125 16.43828125 25.4540625 16.6640625 26.203125 C21.08945729 41.30142457 21.08945729 41.30142457 31.875 51.9375 C32.84179688 52.42089844 33.80859375 52.90429688 34.8046875 53.40234375 C37 55 37 55 37.65625 57.359375 C36.73067435 61.08371511 34.45304476 62.92633724 31.625 65.3125 C30.86316406 65.9940918 30.86316406 65.9940918 30.0859375 66.68945312 C26.30245536 70 26.30245536 70 24 70 C23.34 71.65 22.68 73.3 22 75 C21.34 75 20.68 75 20 75 C19.731875 76.155 19.46375 77.31 19.1875 78.5 C17.94235517 83.4805793 16.40689768 88.41982233 13.94140625 92.94140625 C12.87876369 95.26511011 12.63476055 97.1482951 12.4375 99.6875 C12.09964413 103.90035587 12.09964413 103.90035587 11 105 C10.60430892 107.01311449 10.25747809 109.03597208 9.9375 111.0625 C9.76089844 112.16722656 9.58429687 113.27195312 9.40234375 114.41015625 C9.26957031 115.26480469 9.13679687 116.11945313 9 117 C8.01 117 7.02 117 6 117 C6.13277344 116.29875 6.26554688 115.5975 6.40234375 114.875 C7.21523369 110.50794161 8.02168802 106.16786339 8.5 101.75 C10.87003445 83.97474166 18.90882284 71.56732083 32.46875 60.375 C34.12389654 59.05779245 34.12389654 59.05779245 35 57 C34.41089844 56.72414062 33.82179687 56.44828125 33.21484375 56.1640625 C26.75324722 52.76802059 22.18760605 47.5221064 19 41 C19 40.34 19 39.68 19 39 C18.34 38.67 17.68 38.34 17 38 C15.94933671 35.44538726 15.0108078 32.92430963 14.125 30.3125 C13.86251465 29.55098633 13.6000293 28.78947266 13.32958984 28.00488281 C6.68721906 8.49621951 6.68721906 8.49621951 7 2 C4.69 1.67 2.38 1.34 0 1 C0 0.67 0 0.34 0 0 Z " fill="#9AABB5" transform="translate(5,15)"/>
<path d="M0 0 C4.07100907 2.48783888 4.5647432 4.05546547 5.671875 8.515625 C6.58021901 11.80584886 8.03043266 14.92517621 9.375 18.0625 C-1.515 18.0625 -12.405 18.0625 -23.625 18.0625 C-22.10282526 10.45162631 -17.38263411 5.19768718 -11.625 0.0625 C-7.21293628 -1.40818791 -4.51785415 -1.16841056 0 0 Z " fill="#F9ACAA" transform="translate(40.625,114.9375)"/>
<path d="M0 0 C0.94068999 2.82206997 1.09648255 4.40383384 1.02734375 7.30859375 C1.00897461 8.55286133 1.00897461 8.55286133 0.99023438 9.82226562 C0.95515518 11.56193384 0.91610999 13.30152673 0.87304688 15.04101562 C0.85661133 16.2872168 0.85661133 16.2872168 0.83984375 17.55859375 C0.81458618 18.69252563 0.81458618 18.69252563 0.78881836 19.84936523 C1.03230918 22.32903075 1.68423678 23.89368406 3 26 C3.66 26.33 4.32 26.66 5 27 C7.05164339 30.35723464 8.75781694 33.27345083 10 37 C10.99 37.33 11.98 37.66 13 38 C11.1875 39.0625 11.1875 39.0625 9 40 C8.01 39.67 7.02 39.34 6 39 C3.46953763 38.92438203 0.97420963 38.90503057 -1.5546875 38.9453125 C-2.29324982 38.95706512 -3.03181213 38.96881775 -3.79275513 38.98092651 C-5.35457802 39.00963505 -6.91634075 39.04179435 -8.47802734 39.07714844 C-10.07225113 39.10897446 -11.66672322 39.13018419 -13.26123047 39.140625 C-15.56846084 39.15590151 -17.87308842 39.20332146 -20.1796875 39.2578125 C-21.24242386 39.25661911 -21.24242386 39.25661911 -22.32662964 39.25540161 C-26.2983191 39.39084688 -27.81486239 39.83170775 -30.80126953 42.54638672 C-31.88964111 43.76092529 -31.88964111 43.76092529 -33 45 C-33.99 45 -34.98 45 -36 45 C-36.33 45.99 -36.66 46.98 -37 48 C-38.485 48.495 -38.485 48.495 -40 49 C-40.66 48.67 -41.32 48.34 -42 48 C-42.33 48.99 -42.66 49.98 -43 51 C-43.33 51 -43.66 51 -44 51 C-44.08121924 49.39667209 -44.13929134 47.79215974 -44.1875 46.1875 C-44.23970703 44.84751953 -44.23970703 44.84751953 -44.29296875 43.48046875 C-44 41 -44 41 -42.71484375 39.2109375 C-40.06775227 37.34169294 -37.16258234 37.40996438 -34 37 C-33.67 36.34 -33.34 35.68 -33 35 C-33 36.32 -33 37.64 -33 39 C-31.515 38.505 -31.515 38.505 -30 38 C-27.48945095 37.8470353 -25.00111475 37.74304822 -22.48828125 37.68359375 C-21.39594429 37.6524221 -21.39594429 37.6524221 -20.28153992 37.62062073 C-17.95862125 37.55531254 -15.63559094 37.49632763 -13.3125 37.4375 C-11.73631665 37.39429695 -10.16014452 37.35068208 -8.58398438 37.30664062 C-4.72277025 37.1996504 -0.86144397 37.09833039 3 37 C2.52457764 36.05181396 2.04915527 35.10362793 1.55932617 34.12670898 C-3.52931555 23.92313384 -4.65164356 13.20533245 -2 2 C-1.34 2 -0.68 2 0 2 C0 1.34 0 0.68 0 0 Z " fill="#4D687B" transform="translate(46,95)"/>
<path d="M0 0 C10.69917408 6.33640407 10.69917408 6.33640407 13.3125 11.6875 C14.51189596 17.4664078 13.97079291 22.12775652 11.25 27.375 C8.97169763 30.03301943 7.16712903 31.53824814 4 33 C3.01 33 2.02 33 1 33 C0.67 34.98 0.34 36.96 0 39 C-2.95547533 39.84442152 -4.7385388 40.0653653 -7.75 39.3125 C-8.4925 38.879375 -9.235 38.44625 -10 38 C-10.144375 37.34 -10.28875 36.68 -10.4375 36 C-10.623125 35.34 -10.80875 34.68 -11 34 C-13.99615946 32.6954344 -13.99615946 32.6954344 -17 32 C-17 31.34 -17 30.68 -17 30 C-17.66 30 -18.32 30 -19 30 C-21.94647086 26.48209236 -23.87599592 23.1367041 -24.375 18.5625 C-24 16 -24 16 -23 15 C-21.31391034 14.92794489 -19.62499341 14.91613932 -17.9375 14.9375 C-17.01839844 14.94652344 -16.09929687 14.95554687 -15.15234375 14.96484375 C-14.44207031 14.97644531 -13.73179688 14.98804687 -13 15 C-12.34 17.31 -11.68 19.62 -11 22 C-10.34 22 -9.68 22 -9 22 C-9 20.02 -9 18.04 -9 16 C-8.67 16 -8.34 16 -8 16 C-8 18.64 -8 21.28 -8 24 C-5.69 24 -3.38 24 -1 24 C-0.67 23.01 -0.34 22.02 0 21 C2.5625 19.8125 2.5625 19.8125 5 19 C3.44477264 22.28325775 2.49855135 23.75626379 -0.8125 25.375 C-4.36036793 26.07066038 -6.54318246 26.0520749 -10 25 C-13.01129759 22.63979378 -14.45564371 20.81049403 -15 17 C-16.98 16.67 -18.96 16.34 -21 16 C-20.34 19.3 -19.68 22.6 -19 26 C-18.34 26 -17.68 26 -17 26 C-15.66666667 27.33333333 -14.33333333 28.66666667 -13 30 C-7.74888416 31.75037195 -2.29364558 31.78794959 2.875 29.6875 C6.93876418 27.49306734 8.54062998 26.37811007 10 22 C10.39625344 17.50404751 10.46212957 13.35750562 9 9.0625 C6.05045778 6.02078459 3.02782582 5.2545687 -1 4 C-0.67 2.68 -0.34 1.36 0 0 Z " fill="#A29CA4" transform="translate(86,100)"/>
<path d="M0 0 C2.04257279 4.08514559 -1.08700431 9.65778318 -2.38525391 13.8269043 C-2.98439243 15.76208843 -3.56087301 17.70424178 -4.13671875 19.64648438 C-11.25655005 42.72088781 -11.25655005 42.72088781 -21 49 C-21.763125 49.28875 -22.52625 49.5775 -23.3125 49.875 C-23.869375 50.24625 -24.42625 50.6175 -25 51 C-25.185625 52.6396875 -25.185625 52.6396875 -25.375 54.3125 C-26.03248839 58.19168149 -26.22251761 58.62049805 -29.0625 60.9375 C-30.5165625 61.9584375 -30.5165625 61.9584375 -32 63 C-31.74715996 56.60314704 -31.33531969 52.01984385 -27 47 C-25.92033622 46.14271524 -24.8323605 45.2958409 -23.73828125 44.45703125 C-19.25076823 40.64615105 -16.63565839 36.043611 -13.8125 30.9375 C-13.02987793 29.54881714 -13.02987793 29.54881714 -12.23144531 28.13208008 C-8.47140288 21.28615627 -5.65067765 14.66995906 -4 7 C-4.66 6.67 -5.32 6.34 -6 6 C-5.67 5.34 -5.34 4.68 -5 4 C-4.34 4 -3.68 4 -3 4 C-3.33 3.01 -3.66 2.02 -4 1 C-2.68 0.67 -1.36 0.34 0 0 Z " fill="#D8EBF1" transform="translate(83,19)"/>
<path d="M0 0 C2.04499819 2.04499819 2.71063116 3.37427 3.8125 6 C8.82848487 17.52493286 13.56926699 25.34408955 23.71484375 33.06640625 C26.78879851 35.6674449 27.51487929 38.1395324 28 42 C28.24160129 46.01469373 28.41327517 49.99487735 28 54 C27.34 54.66 26.68 55.32 26 56 C25.505 53.525 25.505 53.525 25 51 C25.66 51 26.32 51 27 51 C27 49.35 27 47.7 27 46 C26.236875 46.226875 25.47375 46.45375 24.6875 46.6875 C23.3571875 46.8421875 23.3571875 46.8421875 22 47 C20.1875 45.5625 20.1875 45.5625 19 44 C19.66 43.34 20.32 42.68 21 42 C21.64767793 39.42938689 21.64767793 39.42938689 22 37 C21.319375 36.773125 20.63875 36.54625 19.9375 36.3125 C9.92637878 31.83944584 6.82729416 25.28081392 2.9609375 15.32421875 C1.81010661 12.03843524 1 9.50429594 1 6 C0.34 6 -0.32 6 -1 6 C-0.67 4.02 -0.34 2.04 0 0 Z " fill="#D9ECF2" transform="translate(20,33)"/>
<path d="M0 0 C4.875 1.75 4.875 1.75 6 4 C26.46 4 46.92 4 68 4 C68 3.01 68 2.02 68 1 C76.91 0.67 85.82 0.34 95 0 C94.67 1.98 94.34 3.96 94 6 C89.83117395 7.1639626 85.79590874 7.14332385 81.49609375 7.1328125 C80.64084106 7.13426773 79.78558838 7.13572296 78.90441895 7.13722229 C76.0820692 7.13948389 73.25983795 7.13314737 70.4375 7.125 C68.99227463 7.12217514 68.99227463 7.12217514 67.51785278 7.11929321 C53.27452694 7.08682887 39.03033092 6.98703357 24.78909302 6.73553467 C22.8911173 6.70356354 20.99305424 6.67640736 19.09494019 6.65411377 C16.4469097 6.62115884 13.7999413 6.56915604 11.15234375 6.51171875 C10.36686157 6.50531876 9.58137939 6.49891876 8.77209473 6.49232483 C3.52022434 6.34805922 3.52022434 6.34805922 0.99047852 4.65551758 C0 3 0 3 0 0 Z " fill="#124C68" transform="translate(3,142)"/>
<path d="M0 0 C-0.47191393 6.06072317 -1.78948738 10.46423214 -4.625 15.8125 C-4.98400391 16.504646 -5.34300781 17.19679199 -5.71289062 17.90991211 C-10.26171358 26.55929438 -14.48459811 34.07375208 -22.19921875 40.23046875 C-25.26568814 43.24372392 -26.61840056 46.99154374 -28 51 C-28.33 51 -28.66 51 -29 51 C-28.50269348 46.02693484 -27.44697666 42.36200187 -25 38 C-24.01 38 -23.02 38 -22 38 C-21.67 36.68 -21.34 35.36 -21 34 C-20.34 34 -19.68 34 -19 34 C-18.9071875 32.6078125 -18.9071875 32.6078125 -18.8125 31.1875 C-18 28 -18 28 -15.4375 26.125 C-14.2309375 25.568125 -14.2309375 25.568125 -13 25 C-14.32 25 -15.64 25 -17 25 C-18.125 21.25 -18.125 21.25 -17 19 C-16.34 19 -15.68 19 -15 19 C-14.67 19.33 -14.34 19.66 -14 20 C-13.01 20 -12.02 20 -11 20 C-10.67 20.33 -10.34 20.66 -10 21 C-7.69 15.72 -5.38 10.44 -3 5 C-3.33 4.67 -3.66 4.34 -4 4 C-7.78034623 7.47736026 -7.78034623 7.47736026 -10 12 C-11.77007714 12.08114106 -13.54122098 12.13925505 -15.3125 12.1875 C-16.79169922 12.23970703 -16.79169922 12.23970703 -18.30078125 12.29296875 C-21 12 -21 12 -22.85546875 10.48828125 C-23.23316406 9.99714844 -23.61085938 9.50601563 -24 9 C-23.02160156 9.06960937 -23.02160156 9.06960937 -22.0234375 9.140625 C-16.05797761 9.38698618 -12.69964468 9.04388031 -8 5 C-6.6696875 3.63875 -6.6696875 3.63875 -5.3125 2.25 C-3 0 -3 0 0 0 Z " fill="#A7979C" transform="translate(79,26)"/>
<path d="M0 0 C1.20366211 0.00966797 1.20366211 0.00966797 2.43164062 0.01953125 C3.26501953 0.03628906 4.09839844 0.05304687 4.95703125 0.0703125 C6.22450195 0.08384766 6.22450195 0.08384766 7.51757812 0.09765625 C9.60168368 0.12120547 11.68564342 0.15707603 13.76953125 0.1953125 C13.43953125 0.8553125 13.10953125 1.5153125 12.76953125 2.1953125 C12.10953125 2.1953125 11.44953125 2.1953125 10.76953125 2.1953125 C10.43953125 2.8553125 10.10953125 3.5153125 9.76953125 4.1953125 C8.77953125 3.8653125 7.78953125 3.5353125 6.76953125 3.1953125 C7.09953125 4.1853125 7.42953125 5.1753125 7.76953125 6.1953125 C7.10953125 6.8553125 6.44953125 7.5153125 5.76953125 8.1953125 C5.43953125 8.8553125 5.10953125 9.5153125 4.76953125 10.1953125 C2.20703125 10.8203125 2.20703125 10.8203125 -0.23046875 11.1953125 C-0.56046875 12.1853125 -0.89046875 13.1753125 -1.23046875 14.1953125 C-3.21046875 14.5253125 -5.19046875 14.8553125 -7.23046875 15.1953125 C-9.4241045 8.00506199 -9.4241045 8.00506199 -8.54296875 4.3203125 C-6.29395363 0.67904992 -4.05054152 -0.05745449 0 0 Z " fill="#4A839F" transform="translate(10.23046875,-0.1953125)"/>
<path d="M0 0 C4.82992535 -0.96424769 9.01505406 -0.46561081 13.4375 1.625 C16.3109485 4.28819617 17.71639374 6.30019373 19 10 C18.6875 12.875 18.6875 12.875 18 15 C11.375 16.125 11.375 16.125 8 15 C7.19921875 13.22265625 7.19921875 13.22265625 6.6875 11.0625 C6.50574219 10.35222656 6.32398437 9.64195313 6.13671875 8.91015625 C6.09160156 8.27980469 6.04648438 7.64945312 6 7 C6.66 6.34 7.32 5.68 8 5 C4.7 4.34 1.4 3.68 -2 3 C-1.34 2.01 -0.68 1.02 0 0 Z " fill="#F0AFB1" transform="translate(79,82)"/>
<path d="M0 0 C4.45406184 6.68109277 4.77022707 15.01453024 3.5703125 22.78125 C1.93250657 30.62654263 -1.34803284 36.52548132 -6 43 C-7.125 39.25 -7.125 39.25 -6 37 C-5.34 37 -4.68 37 -4 37 C-4.33 36.34 -4.66 35.68 -5 35 C-5.99 35.66 -6.98 36.32 -8 37 C-7.51581831 33.32021919 -6.66926308 30.04281171 -5.4375 26.5625 C-3.31093986 19.82151082 -3.7485613 12.98440828 -4 6 C-1.86395692 9.20406462 -1.75791092 9.99600747 -1.8046875 13.66796875 C-1.81113281 14.56064453 -1.81757812 15.45332031 -1.82421875 16.37304688 C-1.84097656 17.30181641 -1.85773438 18.23058594 -1.875 19.1875 C-1.88402344 20.12787109 -1.89304687 21.06824219 -1.90234375 22.03710938 C-1.92590944 24.35832968 -1.95880884 26.67903644 -2 29 C0.32891212 25.50663182 0.23551143 24.13992135 0.1953125 20.01953125 C0.18886719 18.85615234 0.18242188 17.69277344 0.17578125 16.49414062 C0.15902344 15.27919922 0.14226562 14.06425781 0.125 12.8125 C0.11597656 11.58595703 0.10695313 10.35941406 0.09765625 9.09570312 C0.07406017 6.06360705 0.04113841 3.03190062 0 0 Z " fill="#5F7F91" transform="translate(119,92)"/>
<path d="M0 0 C0.68835938 0.06574219 1.37671875 0.13148437 2.0859375 0.19921875 C3.76769937 0.36272338 5.44676574 0.55356546 7.125 0.75 C7.455 1.74 7.785 2.73 8.125 3.75 C7.465 3.75 6.805 3.75 6.125 3.75 C6.125 3.09 6.125 2.43 6.125 1.75 C-1.27737027 1.99309919 -6.74395264 2.43039845 -12.875 6.75 C-12.359375 6.605625 -11.84375 6.46125 -11.3125 6.3125 C-8.18990429 5.59190099 -5.04949308 5.17733561 -1.875 4.75 C-2.865 5.08 -3.855 5.41 -4.875 5.75 C-4.875 6.41 -4.875 7.07 -4.875 7.75 C-3.99763184 7.73428955 -3.99763184 7.73428955 -3.10253906 7.71826172 C-0.44340337 7.67659736 2.21566353 7.65064099 4.875 7.625 C5.79539062 7.60824219 6.71578125 7.59148437 7.6640625 7.57421875 C8.99824219 7.56455078 8.99824219 7.56455078 10.359375 7.5546875 C11.17631836 7.54421387 11.99326172 7.53374023 12.83496094 7.52294922 C15.34387518 7.77170084 16.95895625 8.49299871 19.125 9.75 C17.86945313 9.70359375 16.61390625 9.6571875 15.3203125 9.609375 C2.25042472 9.25947281 2.25042472 9.25947281 -9.875 13.75 C-11.20694542 14.41943531 -12.53987938 15.08691996 -13.875 15.75 C-14.205 14.1 -14.535 12.45 -14.875 10.75 C-15.535 11.41 -16.195 12.07 -16.875 12.75 C-17.625 10.5 -17.625 10.5 -17.875 7.75 C-16.3125 5.6875 -16.3125 5.6875 -13.875 3.75 C-12.55822266 2.69232422 -12.55822266 2.69232422 -11.21484375 1.61328125 C-7.22726996 -0.61136518 -4.37312542 -0.5339281 0 0 Z " fill="#678799" transform="translate(73.875,64.25)"/>
<path d="M0 0 C26.07 0 52.14 0 79 0 C76 2 76 2 73 3 C72.16554131 5.79439724 71.50635221 8.46355702 70.9375 11.3125 C68.98657913 20.70669326 68.98657913 20.70669326 67 24 C66.34 24 65.68 24 65 24 C64.67 25.32 64.34 26.64 64 28 C62.66785242 25.33570485 63.29704831 24.41167029 64.1796875 21.60546875 C64.44910156 20.73212891 64.71851562 19.85878906 64.99609375 18.95898438 C65.28613281 18.04439453 65.57617188 17.12980469 65.875 16.1875 C66.43696879 14.38996968 66.99692789 12.59180959 67.5546875 10.79296875 C67.80718262 9.9939917 68.05967773 9.19501465 68.31982422 8.37182617 C69.01457252 5.94918448 69.50573022 3.47134889 70 1 C46.9 1 23.8 1 0 1 C0 0.67 0 0.34 0 0 Z " fill="#C1E6EF" transform="translate(14,15)"/>
<path d="M0 0 C0.99 0 1.98 0 3 0 C3.103125 0.69867188 3.20625 1.39734375 3.3125 2.1171875 C4.10576206 5.44347955 5.4205286 8.09514862 7 11.125 C8.5383075 14.09067936 9.94322352 16.82967056 11 20 C13.01508358 20.73323796 13.01508358 20.73323796 15 21 C15 21.66 15 22.32 15 23 C16.1446875 23.433125 16.1446875 23.433125 17.3125 23.875 C20 25 20 25 23 27 C24.32 27 25.64 27 27 27 C27 27.66 27 28.32 27 29 C28.32 29 29.64 29 31 29 C30.7834375 29.56847656 30.566875 30.13695313 30.34375 30.72265625 C28.54018042 35.7242219 27.6610396 39.68962036 28 45 C27.34 44.67 26.68 44.34 26 44 C25.86463226 42.56510191 25.76782857 41.12652893 25.6875 39.6875 C24.57910268 33.27528408 20.65313143 30.44073251 15.96166992 26.39550781 C8.15074371 19.64187065 3.71335274 11.61199713 0 2 C0 1.34 0 0.68 0 0 Z " fill="#EEAEAF" transform="translate(23,34)"/>
<path d="M0 0 C5.61 0 11.22 0 17 0 C15.68 0.33 14.36 0.66 13 1 C13 1.66 13 2.32 13 3 C9.7 3 6.4 3 3 3 C8.33308908 15.84097032 13.02177987 25.81877948 23.8125 34.9375 C28.35027292 38.92279441 30.2743383 41.65473569 30.8515625 47.67578125 C30.92503906 48.82626953 30.92503906 48.82626953 31 50 C31.23460938 50.83917969 31.46921875 51.67835937 31.7109375 52.54296875 C32 55 32 55 30.5625 57.3125 C30.046875 57.869375 29.53125 58.42625 29 59 C28.91363281 57.83082031 28.82726562 56.66164062 28.73828125 55.45703125 C28.59752814 53.90874699 28.45553555 52.36057507 28.3125 50.8125 C28.25900391 50.04357422 28.20550781 49.27464844 28.15039062 48.48242188 C27.75034845 44.42982066 27.3733462 42.45846139 24.73828125 39.22265625 C23.38283203 38.12244141 23.38283203 38.12244141 22 37 C11.03117177 27.87639521 4.90106871 16.36368575 0 3 C0 2.01 0 1.02 0 0 Z " fill="#A8989E" transform="translate(19,28)"/>
<path d="M0 0 C0.33 1.32 0.66 2.64 1 4 C2.65 3.67 4.3 3.34 6 3 C4.75023244 6.65316671 4.32901247 7.78065836 1 10 C0.01 10 -0.98 10 -2 10 C-2.33 10.99 -2.66 11.98 -3 13 C-3.99 13.33 -4.98 13.66 -6 14 C-6.66 13.67 -7.32 13.34 -8 13 C-8.33 13.99 -8.66 14.98 -9 16 C-9.33 16 -9.66 16 -10 16 C-10.08121924 14.39667209 -10.13929134 12.79215974 -10.1875 11.1875 C-10.22230469 10.29417969 -10.25710938 9.40085938 -10.29296875 8.48046875 C-10 6 -10 6 -8.71875 4.21875 C-6.03352984 2.3146848 -3.21344905 2.30315557 0 2 C0 1.34 0 0.68 0 0 Z " fill="#56859D" transform="translate(12,130)"/>
<path d="M0 0 C1.37478516 0.01740234 1.37478516 0.01740234 2.77734375 0.03515625 C3.69644531 0.04417969 4.61554688 0.05320312 5.5625 0.0625 C6.27277344 0.07410156 6.98304687 0.08570312 7.71484375 0.09765625 C8.37484375 2.40765625 9.03484375 4.71765625 9.71484375 7.09765625 C10.37484375 7.09765625 11.03484375 7.09765625 11.71484375 7.09765625 C11.71484375 5.11765625 11.71484375 3.13765625 11.71484375 1.09765625 C12.04484375 1.09765625 12.37484375 1.09765625 12.71484375 1.09765625 C12.71484375 3.73765625 12.71484375 6.37765625 12.71484375 9.09765625 C15.02484375 9.09765625 17.33484375 9.09765625 19.71484375 9.09765625 C20.04484375 8.10765625 20.37484375 7.11765625 20.71484375 6.09765625 C23.27734375 4.91015625 23.27734375 4.91015625 25.71484375 4.09765625 C24.15961639 7.380914 23.2133951 8.85392004 19.90234375 10.47265625 C16.35447582 11.16831663 14.17166129 11.14973115 10.71484375 10.09765625 C7.70354616 7.73745003 6.25920004 5.90815028 5.71484375 2.09765625 C2.74484375 1.60265625 2.74484375 1.60265625 -0.28515625 1.09765625 C0.37484375 4.39765625 1.03484375 7.69765625 1.71484375 11.09765625 C2.37484375 11.09765625 3.03484375 11.09765625 3.71484375 11.09765625 C5.06985294 12.40895547 6.40155718 13.74457312 7.71484375 15.09765625 C8.70484375 15.75765625 9.69484375 16.41765625 10.71484375 17.09765625 C8.40484375 17.09765625 6.09484375 17.09765625 3.71484375 17.09765625 C3.71484375 16.43765625 3.71484375 15.77765625 3.71484375 15.09765625 C3.05484375 15.09765625 2.39484375 15.09765625 1.71484375 15.09765625 C-1.23162711 11.57974861 -3.16115217 8.23436035 -3.66015625 3.66015625 C-3.14418709 0.13436697 -3.14418709 0.13436697 0 0 Z " fill="#97858B" transform="translate(65.28515625,114.90234375)"/>
<path d="M0 0 C2.96404505 2.80804268 5.44499019 5.18315774 7 9 C6.34 9 5.68 9 5 9 C5 8.34 5 7.68 5 7 C4.01 7 3.02 7 2 7 C2 7.66 2 8.32 2 9 C-1.46153846 12 -1.46153846 12 -4 12 C-4.33 13.32 -4.66 14.64 -5 16 C-6.98 16.33 -8.96 16.66 -11 17 C-11.33 18.32 -11.66 19.64 -12 21 C-13.65 20.67 -15.3 20.34 -17 20 C-17 19.01 -17 18.02 -17 17 C-16.34 17 -15.68 17 -15 17 C-15 16.34 -15 15.68 -15 15 C-10.125 13 -10.125 13 -9 13 C-9 11.68 -9 10.36 -9 9 C-3.25 6 -3.25 6 -1 6 C-1 5.34 -1 4.68 -1 4 C-0.34 4 0.32 4 1 4 C0.67 2.68 0.34 1.36 0 0 Z " fill="#48829E" transform="translate(113,41)"/>
<path d="M0 0 C0.99 0.33 1.98 0.66 3 1 C2.34 1 1.68 1 1 1 C1 2.32 1 3.64 1 5 C1.66 5.33 2.32 5.66 3 6 C2.38125 6.061875 1.7625 6.12375 1.125 6.1875 C0.42375 6.455625 -0.2775 6.72375 -1 7 C-1.70211894 8.65204456 -2.36971413 10.31923769 -3 12 C-3.99 12.33 -4.98 12.66 -6 13 C-4.34920558 14.65079442 -2.36263821 14.22549447 -0.08984375 14.31640625 C0.89951172 14.35830078 1.88886719 14.40019531 2.90820312 14.44335938 C3.94912109 14.48267578 4.99003906 14.52199219 6.0625 14.5625 C7.10728516 14.60568359 8.15207031 14.64886719 9.22851562 14.69335938 C11.81886884 14.79981225 14.40932186 14.9018276 17 15 C17 14.01 17 13.02 17 12 C17.99 12.33 18.98 12.66 20 13 C20.495 14.485 20.495 14.485 21 16 C10.11 16 -0.78 16 -12 16 C-11 11 -11 11 -9 9 C-8.67 9.33 -8.34 9.66 -8 10 C-7.59007812 9.44570312 -7.18015625 8.89140625 -6.7578125 8.3203125 C-6.21898437 7.59585938 -5.68015625 6.87140625 -5.125 6.125 C-4.59132813 5.40570313 -4.05765625 4.68640625 -3.5078125 3.9453125 C-2 2 -2 2 0 0 Z " fill="#E3B6BA" transform="translate(29,117)"/>
<path d="M0 0 C6.75 -0.125 6.75 -0.125 9 1 C9.72693904 2.97888961 10.39816251 4.97954558 11 7 C10.443125 6.96519531 9.88625 6.93039063 9.3125 6.89453125 C3.67270469 6.69447094 -1.00204384 7.24291151 -6 10 C-8.07191119 11.78570874 -8.07191119 11.78570874 -9 14 C-9 15.32 -9 16.64 -9 18 C-9.66 18 -10.32 18 -11 18 C-11 19.98 -11 21.96 -11 24 C-11.33 24 -11.66 24 -12 24 C-13.82791473 15.74114891 -13.82791473 15.74114891 -11.9765625 11.84765625 C-8.53101474 7.53616394 -5.37386495 5.96729569 0 5 C0 3.35 0 1.7 0 0 Z " fill="#969098" transform="translate(77,76)"/>
<path d="M0 0 C2.77581023 2.70211615 5.32734946 5.47686343 7.75 8.5 C8.36359375 9.2528125 8.9771875 10.005625 9.609375 10.78125 C11 13 11 13 11 17 C8.1253509 17.19586184 5.25061717 17.38193799 2.375 17.5625 C1.56675781 17.61857422 0.75851563 17.67464844 -0.07421875 17.73242188 C-4.56162516 18.00604422 -8.56862499 17.96801881 -13 17 C-13 19.97 -13 22.94 -13 26 C-13.33 26 -13.66 26 -14 26 C-14 22.37 -14 18.74 -14 15 C-6.41 15 1.18 15 9 15 C8.01 14.01 7.02 13.02 6 12 C5 11 4 10 3 9 C2.443125 8.566875 1.88625 8.13375 1.3125 7.6875 C-0.62635078 5.19469185 -0.20379762 3.05696423 0 0 Z " fill="#688798" transform="translate(120,50)"/>
<path d="M0 0 C1.32 0.33 2.64 0.66 4 1 C5.11292128 6.39544235 5.18350949 11.64204484 5.1875 17.125 C5.19974609 18.01832031 5.21199219 18.91164063 5.22460938 19.83203125 C5.22654297 20.69441406 5.22847656 21.55679688 5.23046875 22.4453125 C5.23457764 23.22406738 5.23868652 24.00282227 5.24291992 24.80517578 C4.97214487 27.25167604 4.21866099 28.87904084 3 31 C2.34 30.67 1.68 30.34 1 30 C1.00523682 29.40985107 1.01047363 28.81970215 1.01586914 28.21166992 C1.03666047 25.53695745 1.04966701 22.86226199 1.0625 20.1875 C1.07087891 19.25873047 1.07925781 18.32996094 1.08789062 17.37304688 C1.09111328 16.48037109 1.09433594 15.58769531 1.09765625 14.66796875 C1.10289307 13.84578857 1.10812988 13.0236084 1.11352539 12.17651367 C1.08741524 9.81827404 1.08741524 9.81827404 0 7 C-0.03954234 4.66700175 -0.04401732 2.33291811 0 0 Z " fill="#194F6B" transform="translate(115,91)"/>
<path d="M0 0 C4.875 1.75 4.875 1.75 6 4 C29.43 4.33 52.86 4.66 77 5 C77 5.33 77 5.66 77 6 C59.87760333 6.85215855 42.80190303 7.12731681 25.66104126 6.80392456 C23.72035131 6.76797493 21.77956306 6.73698923 19.8387146 6.71096802 C17.09503267 6.67173777 14.35253899 6.6124383 11.609375 6.546875 C10.36916344 6.53251656 10.36916344 6.53251656 9.10389709 6.51786804 C3.45009548 6.34730868 3.45009548 6.34730868 1.26275635 4.65948486 C0 3 0 3 0 0 Z " fill="#1B4E67" transform="translate(3,142)"/>
<path d="M0 0 C0.33 0.66 0.66 1.32 1 2 C0.03863929 4.01885749 -0.97069953 6.01492052 -2 8 C-4.27715535 13.05443361 -5.39044447 17.6816459 -5.7890625 23.21484375 C-6 25 -6 25 -7 26 C-7.39569108 28.01311449 -7.74252191 30.03597208 -8.0625 32.0625 C-8.23910156 33.16722656 -8.41570313 34.27195313 -8.59765625 35.41015625 C-8.73042969 36.26480469 -8.86320313 37.11945313 -9 38 C-9.99 38 -10.98 38 -12 38 C-11.86722656 37.29875 -11.73445312 36.5975 -11.59765625 35.875 C-10.78476631 31.50794161 -9.97831198 27.16786339 -9.5 22.75 C-8.99440875 18.95806561 -8.17246437 15.64081041 -7 12 C-6.69835937 11.06027344 -6.39671875 10.12054688 -6.0859375 9.15234375 C-5.74820312 8.15332031 -5.41046875 7.15429688 -5.0625 6.125 C-4.74410156 5.17882812 -4.42570312 4.23265625 -4.09765625 3.2578125 C-3.73542969 2.51273437 -3.37320312 1.76765625 -3 1 C-2.01 0.67 -1.02 0.34 0 0 Z " fill="#99A8B2" transform="translate(23,94)"/>
<path d="M0 0 C0.94361495 2.83084484 1.08673613 4.3649713 0.9921875 7.2734375 C0.97542969 8.0984375 0.95867188 8.9234375 0.94140625 9.7734375 C0.89732914 11.50022294 0.84531519 13.22682501 0.78515625 14.953125 C0.69950571 19.95200197 1.00306086 22.81056151 4 27 C4 27.99 4 28.98 4 30 C2.68 30.33 1.36 30.66 0 31 C-3.87926045 21.78675644 -4.3068371 11.74824708 -2 2 C-1.34 2 -0.68 2 0 2 C0 1.34 0 0.68 0 0 Z " fill="#144D69" transform="translate(46,95)"/>
<path d="M0 0 C1.23556641 0.01740234 1.23556641 0.01740234 2.49609375 0.03515625 C3.32238281 0.04417969 4.14867187 0.05320313 5 0.0625 C5.63808594 0.07410156 6.27617187 0.08570312 6.93359375 0.09765625 C6.93359375 0.75765625 6.93359375 1.41765625 6.93359375 2.09765625 C7.59359375 2.42765625 8.25359375 2.75765625 8.93359375 3.09765625 C4.18359375 6.09765625 4.18359375 6.09765625 1.93359375 6.09765625 C2.26359375 7.08765625 2.59359375 8.07765625 2.93359375 9.09765625 C2.27359375 9.75765625 1.61359375 10.41765625 0.93359375 11.09765625 C-1.69140625 10.72265625 -1.69140625 10.72265625 -4.06640625 10.09765625 C-5.07777566 7.36695884 -5.11198343 6.23764332 -4.19140625 3.41015625 C-2.5920037 0.12249545 -2.5920037 0.12249545 0 0 Z " fill="#265F7B" transform="translate(6.06640625,0.90234375)"/>
<path d="M0 0 C6.83356566 -0.65081578 10.43948836 0.18994766 15.98046875 4.265625 C18.72730184 6.62460738 20.8512867 9.08884005 23 12 C21.68 12 20.36 12 19 12 C19 11.34 19 10.68 19 10 C16.525 9.505 16.525 9.505 14 9 C14 8.34 14 7.68 14 7 C13.05125 6.71125 12.1025 6.4225 11.125 6.125 C8 5 8 5 6 3 C4.2984375 3.2475 4.2984375 3.2475 2.5625 3.5 C-1 4 -1 4 -4 2 C-2.68 2 -1.36 2 0 2 C0 1.34 0 0.68 0 0 Z " fill="#D2A8AC" transform="translate(36,27)"/>
<path d="M0 0 C4.15921531 2.54174269 4.66894622 4.35596666 5.8671875 8.90625 C6.03476562 9.6178125 6.20234375 10.329375 6.375 11.0625 C6.705 12.0525 7.035 13.0425 7.375 14.0625 C4.9 13.5675 4.9 13.5675 2.375 13.0625 C2.045 9.4325 1.715 5.8025 1.375 2.0625 C-0.006875 2.02125 -1.38875 1.98 -2.8125 1.9375 C-3.97845703 1.90269531 -3.97845703 1.90269531 -5.16796875 1.8671875 C-9.29036095 2.19488163 -11.80328961 3.18198248 -14.64453125 6.2265625 C-15.23621094 7.03867188 -15.82789063 7.85078125 -16.4375 8.6875 C-17.04207031 9.50476563 -17.64664062 10.32203125 -18.26953125 11.1640625 C-18.71683594 11.79054688 -19.16414063 12.41703125 -19.625 13.0625 C-19.955 12.0725 -20.285 11.0825 -20.625 10.0625 C-15.37774953 1.97977877 -9.59930892 -2.48257989 0 0 Z " fill="#B4979D" transform="translate(40.625,114.9375)"/>
<path d="M0 0 C1.78125 0.171875 1.78125 0.171875 4 1 C5.78125 3.328125 5.78125 3.328125 7.5 6.25 C9.28555138 9.25297278 11.01474189 12.01816783 13.21875 14.734375 C15 17 15 17 15 19 C13.35 18.34 11.7 17.68 10 17 C10 16.34 10 15.68 10 15 C9.34 15 8.68 15 8 15 C7.67 13.68 7.34 12.36 7 11 C6.01 11.33 5.02 11.66 4 12 C2.95994298 8.61981469 2.91995518 5.5219721 3 2 C1.02 2.66 -0.96 3.32 -3 4 C-2.01 2.68 -1.02 1.36 0 0 Z " fill="#456D82" transform="translate(95,18)"/>
<path d="M0 0 C1.95542188 2.98459129 2 4.26414791 2 8 C0.68 8 -0.64 8 -2 8 C-2.66 10.64 -3.32 13.28 -4 16 C-4.99 15.67 -5.98 15.34 -7 15 C-6.34 14.01 -5.68 13.02 -5 12 C-5 11.01 -5 10.02 -5 9 C-5 7.68 -5 6.36 -5 5 C-7.44496043 3.28288757 -7.44496043 3.28288757 -10 2 C-10 1.67 -10 1.34 -10 1 C-3.375 -1.125 -3.375 -1.125 0 0 Z " fill="#E5ACAD" transform="translate(95,108)"/>
<path d="M0 0 C2.64 0 5.28 0 8 0 C5 2 5 2 2 3 C1.16554131 5.79439724 0.50635221 8.46355702 -0.0625 11.3125 C-2.01342087 20.70669326 -2.01342087 20.70669326 -4 24 C-4.66 24 -5.32 24 -6 24 C-6.33 25.32 -6.66 26.64 -7 28 C-8.32569372 25.34861256 -7.7197569 24.43764076 -6.85546875 21.640625 C-6.59056641 20.77179687 -6.32566406 19.90296875 -6.05273438 19.0078125 C-5.62444336 17.64269531 -5.62444336 17.64269531 -5.1875 16.25 C-4.91357422 15.35539062 -4.63964844 14.46078125 -4.35742188 13.5390625 C-2.9633764 9.00590743 -1.52436543 4.49130108 0 0 Z " fill="#92A6B0" transform="translate(85,15)"/>
<path d="M0 0 C0.33 0 0.66 0 1 0 C1 3.3 1 6.6 1 10 C1.66 10 2.32 10 3 10 C3.56561146 15.65611463 1.71391278 19.22642128 -1 24 C-1.99 24 -2.98 24 -4 24 C-3.69257097 21.68682039 -3.37892298 19.37446648 -3.0625 17.0625 C-2.88847656 15.77472656 -2.71445313 14.48695312 -2.53515625 13.16015625 C-2 10 -2 10 -1 9 C-0.76807135 7.48530552 -0.58784762 5.96245438 -0.4375 4.4375 C-0.35371094 3.61121094 -0.26992188 2.78492187 -0.18359375 1.93359375 C-0.12300781 1.29550781 -0.06242187 0.65742187 0 0 Z " fill="#D1E6EC" transform="translate(17,110)"/>
<path d="M0 0 C1.65 0 3.3 0 5 0 C6.26237731 2.52475462 6.09856404 4.31200466 6.0625 7.125 C6.05347656 8.03507812 6.04445313 8.94515625 6.03515625 9.8828125 C6.02355469 10.58148438 6.01195313 11.28015625 6 12 C4.33388095 12.042721 2.66617115 12.04063832 1 12 C0 11 0 11 -0.09765625 8.49609375 C-0.08605469 7.48675781 -0.07445313 6.47742188 -0.0625 5.4375 C-0.05347656 4.42558594 -0.04445313 3.41367188 -0.03515625 2.37109375 C-0.02355469 1.58863281 -0.01195313 0.80617188 0 0 Z " fill="#DDABAC" transform="translate(79,90)"/>
<path d="M0 0 C16.83 0.33 33.66 0.66 51 1 C51 1.33 51 1.66 51 2 C41.18536249 3.06592912 31.47866612 3.08890526 21.625 3 C18.61719094 2.97324127 15.60944649 2.9533694 12.6015625 2.9375 C10.62663818 2.92009766 10.62663818 2.92009766 8.61181641 2.90234375 C5.30061223 2.99187205 2.24518532 3.36238478 -1 4 C-0.67 2.68 -0.34 1.36 0 0 Z " fill="#144D69" transform="translate(24,0)"/>
<path d="M0 0 C0.99 0.33 1.98 0.66 3 1 C2.38511719 1.90492187 2.38511719 1.90492187 1.7578125 2.828125 C0.94957031 4.02695312 0.94957031 4.02695312 0.125 5.25 C-0.40867187 6.03890625 -0.94234375 6.8278125 -1.4921875 7.640625 C-3.01240773 9.9230151 -3.01240773 9.9230151 -4.07421875 12.18359375 C-5 14 -5 14 -6.9375 15.8125 C-9.62252868 18.66025769 -10.59936433 21.35834727 -12 25 C-12.33 25 -12.66 25 -13 25 C-12.50269348 20.02693484 -11.44697666 16.36200187 -9 12 C-8.01 12 -7.02 12 -6 12 C-5.67 10.68 -5.34 9.36 -5 8 C-4.34 8 -3.68 8 -3 8 C-2.87625 7.05125 -2.7525 6.1025 -2.625 5.125 C-2 2 -2 2 0 0 Z " fill="#CDA4A7" transform="translate(63,52)"/>
<path d="M0 0 C2.475 0.495 2.475 0.495 5 1 C5 4.96 5 8.92 5 13 C3.35 13 1.7 13 0 13 C0 8.71 0 4.42 0 0 Z " fill="#F0B0B1" transform="translate(79,111)"/>
<path d="M0 0 C0.99 0.33 1.98 0.66 3 1 C3 1.66 3 2.32 3 3 C3.66 3 4.32 3 5 3 C6.32421875 4.6796875 6.32421875 4.6796875 7.6875 6.875 C8.14511719 7.59429687 8.60273437 8.31359375 9.07421875 9.0546875 C9.53248047 10.01761719 9.53248047 10.01761719 10 11 C9.67 11.66 9.34 12.32 9 13 C8.01 12.67 7.02 12.34 6 12 C6 13.98 6 15.96 6 18 C2.19015156 15.22920113 1.93159248 11.37131855 1 7 C1.99 7 2.98 7 4 7 C3.01 5.824375 3.01 5.824375 2 4.625 C0 2 0 2 0 0 Z " fill="#628193" transform="translate(109,79)"/>
<path d="M0 0 C6.6 0 13.2 0 20 0 C20 0.66 20 1.32 20 2 C20.66 2 21.32 2 22 2 C22 4.97 22 7.94 22 11 C21.01 11.33 20.02 11.66 19 12 C18.77213542 9.94921875 18.54427083 7.8984375 18.31640625 5.84765625 C18.18113386 3.98859771 18.18113386 3.98859771 17 3 C15.00041636 2.95919217 12.99954746 2.95745644 11 3 C11 2.34 11 1.68 11 1 C10.01 1.33 9.02 1.66 8 2 C5.95703125 1.87890625 5.95703125 1.87890625 3.8125 1.5625 C2.554375 1.376875 1.29625 1.19125 0 1 C0 0.67 0 0.34 0 0 Z " fill="#346178" transform="translate(75,1)"/>
<path d="M0 0 C0.68835938 0.06574219 1.37671875 0.13148437 2.0859375 0.19921875 C3.76769937 0.36272338 5.44676574 0.55356546 7.125 0.75 C7.455 1.74 7.785 2.73 8.125 3.75 C7.465 3.75 6.805 3.75 6.125 3.75 C6.125 3.09 6.125 2.43 6.125 1.75 C-1.27737027 1.99309919 -6.74395264 2.43039845 -12.875 6.75 C-12.875 7.08 -12.875 7.41 -12.875 7.75 C-11.885 8.08 -10.895 8.41 -9.875 8.75 C-10.65875 9.03875 -11.4425 9.3275 -12.25 9.625 C-14.97171632 10.59912254 -14.97171632 10.59912254 -16.875 12.75 C-17.625 10.5 -17.625 10.5 -17.875 7.75 C-16.3125 5.6875 -16.3125 5.6875 -13.875 3.75 C-12.55822266 2.69232422 -12.55822266 2.69232422 -11.21484375 1.61328125 C-7.22726996 -0.61136518 -4.37312542 -0.5339281 0 0 Z " fill="#99AAB4" transform="translate(73.875,64.25)"/>
<path d="M0 0 C0.33 0 0.66 0 1 0 C1.03738281 0.66386719 1.07476562 1.32773438 1.11328125 2.01171875 C1.49526105 7.14223169 1.92177048 10.71724589 5 15 C5 15.66 5 16.32 5 17 C5.99 17.33 6.98 17.66 8 18 C8 18.66 8 19.32 8 20 C4.21213403 19.4739075 1.82847776 18.61896089 -1 16 C-1 15.34 -1 14.68 -1 14 C-1.99 13.67 -2.98 13.34 -4 13 C-3.01 12.67 -2.02 12.34 -1 12 C-0.67 8.04 -0.34 4.08 0 0 Z " fill="#39647A" transform="translate(105,66)"/>
<path d="M0 0 C1.91924787 0.22934409 3.8354406 0.48434343 5.75 0.75 C7.35101563 0.95882812 7.35101563 0.95882812 8.984375 1.171875 C12.39974598 2.1097748 13.75507663 3.31916918 16 6 C15.67 6.99 15.34 7.98 15 9 C12.69 8.01 10.38 7.02 8 6 C8 5.34 8 4.68 8 4 C2.06 3.67 -3.88 3.34 -10 3 C-10 2.67 -10 2.34 -10 2 C-6.7 2 -3.4 2 0 2 C0 1.34 0 0.68 0 0 Z " fill="#265770" transform="translate(85,69)"/>
<path d="M0 0 C1.43658464 4.30975393 -0.47559446 7.12749478 -2.25 11.0625 C-2.56324219 11.79533203 -2.87648438 12.52816406 -3.19921875 13.28320312 C-5.61629871 18.74419914 -5.61629871 18.74419914 -9 21 C-7.25 14.25 -7.25 14.25 -5 12 C-4.3574765 9.93125966 -4.3574765 9.93125966 -4 8 C-4.99 8.33 -5.98 8.66 -7 9 C-5.44499019 5.18315774 -2.96404505 2.80804268 0 0 Z " fill="#E8B0B2" transform="translate(76,28)"/>
<path d="M0 0 C0.33 1.32 0.66 2.64 1 4 C0.01 3.67 -0.98 3.34 -2 3 C-2 3.66 -2 4.32 -2 5 C-1.34 5 -0.68 5 0 5 C-1 7 -1 7 -3 8 C-3.556875 8.845625 -4.11375 9.69125 -4.6875 10.5625 C-7 13 -7 13 -10.75 13.3125 C-11.8225 13.209375 -12.895 13.10625 -14 13 C-11.6875 10.5 -11.6875 10.5 -9 8 C-8.01 8 -7.02 8 -6 8 C-6 6.68 -6 5.36 -6 4 C-5.34 3.67 -4.68 3.34 -4 3 C-4 2.34 -4 1.68 -4 1 C-2.68 0.67 -1.36 0.34 0 0 Z " fill="#11516F" transform="translate(21,2)"/>
<path d="M0 0 C3.3 0.33 6.6 0.66 10 1 C10.33 2.32 10.66 3.64 11 5 C11.66 5 12.32 5 13 5 C13 5.66 13 6.32 13 7 C10.04452467 7.84442152 8.2614612 8.0653653 5.25 7.3125 C3 6 3 6 2.3125 4 C2.209375 3.34 2.10625 2.68 2 2 C1.34 1.34 0.68 0.68 0 0 Z " fill="#B6A9B1" transform="translate(73,132)"/>
<path d="M0 0 C0.33 0.99 0.66 1.98 1 3 C-1.57784846 5.64752004 -3.91648098 7.94432065 -7 10 C-7.99 10 -8.98 10 -10 10 C-10.33 11.32 -10.66 12.64 -11 14 C-11.66 14 -12.32 14 -13 14 C-13.33 13.01 -13.66 12.02 -14 11 C-15.98 11 -17.96 11 -20 11 C-20.33 10.34 -20.66 9.68 -21 9 C-20.11957031 8.89042969 -19.23914063 8.78085938 -18.33203125 8.66796875 C-17.17058594 8.50941406 -16.00914063 8.35085937 -14.8125 8.1875 C-13.66394531 8.03667969 -12.51539062 7.88585937 -11.33203125 7.73046875 C-7.95076723 6.98920688 -5.78746384 6.02307705 -3 4 C-2.67 3.34 -2.34 2.68 -2 2 C-1.34 2 -0.68 2 0 2 C0 1.34 0 0.68 0 0 Z " fill="#A09EA6" transform="translate(97,123)"/>
<path d="M0 0 C0 2.33333333 0 4.66666667 0 7 C3.63 7 7.26 7 11 7 C11 8.98 11 10.96 11 13 C7.7 12.67 4.4 12.34 1 12 C1 11.67 1 11.34 1 11 C3.97 11 6.94 11 10 11 C9.67 10.34 9.34 9.68 9 9 C5.72444392 8.52998967 5.72444392 8.52998967 1.9375 8.375 C0.00197266 8.26285156 0.00197266 8.26285156 -1.97265625 8.1484375 C-3.47119141 8.07496094 -3.47119141 8.07496094 -5 8 C-3.7367158 4.64405806 -2.74084921 2.36709704 0 0 Z " fill="#2E5E76" transform="translate(72,57)"/>
<path d="M0 0 C0.99 0.33 1.98 0.66 3 1 C3 4.63 3 8.26 3 12 C1.35 11.67 -0.3 11.34 -2 11 C-2.33 8.69 -2.66 6.38 -3 4 C-2.34 4 -1.68 4 -1 4 C-0.67 2.68 -0.34 1.36 0 0 Z M0 3 C0 5.31 0 7.62 0 10 C0.33 10 0.66 10 1 10 C1 7.69 1 5.38 1 3 C0.67 3 0.34 3 0 3 Z " fill="#91929A" transform="translate(75,90)"/>
<path d="M0 0 C0.99 0.33 1.98 0.66 3 1 C2.34 1 1.68 1 1 1 C1 2.32 1 3.64 1 5 C1.66 5.33 2.32 5.66 3 6 C2.38125 6.061875 1.7625 6.12375 1.125 6.1875 C-1.27761141 6.828919 -1.27761141 6.828919 -2.25 9.5625 C-2.4975 10.366875 -2.745 11.17125 -3 12 C-3.99 12 -4.98 12 -6 12 C-6.71484375 10.265625 -6.71484375 10.265625 -7 8 C-5.56640625 5.859375 -5.56640625 5.859375 -3.5625 3.75 C-2.57443359 2.69039063 -2.57443359 2.69039063 -1.56640625 1.609375 C-1.04949219 1.07828125 -0.53257813 0.5471875 0 0 Z " fill="#F0B7BA" transform="translate(29,117)"/>
<path d="M0 0 C2.96404505 2.80804268 5.44499019 5.18315774 7 9 C6.34 9 5.68 9 5 9 C5 8.34 5 7.68 5 7 C4.01 7 3.02 7 2 7 C2 7.66 2 8.32 2 9 C-4.75 10 -4.75 10 -7 10 C-7 9.34 -7 8.68 -7 8 C-5.02 7.34 -3.04 6.68 -1 6 C-1 5.34 -1 4.68 -1 4 C-0.34 4 0.32 4 1 4 C0.67 2.68 0.34 1.36 0 0 Z " fill="#6792A9" transform="translate(113,41)"/>
<path d="M0 0 C0.99 0.33 1.98 0.66 3 1 C2.34 1 1.68 1 1 1 C0.67 2.32 0.34 3.64 0 5 C-4.50813526 6.27955991 -8.84422274 6.18398886 -13.5 6.1875 C-14.78197266 6.20586914 -14.78197266 6.20586914 -16.08984375 6.22460938 C-17.32927734 6.22750977 -17.32927734 6.22750977 -18.59375 6.23046875 C-19.34333984 6.23457764 -20.09292969 6.23868652 -20.86523438 6.24291992 C-23.27798857 5.96836704 -24.90459178 5.19750325 -27 4 C-25.96101563 4.03480469 -24.92203125 4.06960937 -23.8515625 4.10546875 C-15.81862128 4.29147447 -8.51789978 4.29014661 -1 1 C-0.67 0.67 -0.34 0.34 0 0 Z " fill="#7994A4" transform="translate(98,137)"/>
<path d="M0 0 C1.88391785 3.26545761 2.49287967 6.28111761 3 10 C3.66 10 4.32 10 5 10 C6.35500919 11.31129922 7.68671343 12.64691687 9 14 C9.99 14.66 10.98 15.32 12 16 C9.69 16 7.38 16 5 16 C5 15.34 5 14.68 5 14 C4.34 14 3.68 14 3 14 C1.67578125 12.35546875 1.67578125 12.35546875 0.3125 10.1875 C-0.14511719 9.47980469 -0.60273437 8.77210937 -1.07421875 8.04296875 C-2.4519395 5.00268204 -1.02494113 3.07482338 0 0 Z " fill="#A19AA2" transform="translate(64,116)"/>
<path d="M0 0 C1.65 0.33 3.3 0.66 5 1 C4.01 4.3 3.02 7.6 2 11 C0.02 11.33 -1.96 11.66 -4 12 C-4.33 11.34 -4.66 10.68 -5 10 C-3.68 9.67 -2.36 9.34 -1 9 C-0.67 6.03 -0.34 3.06 0 0 Z " fill="#F9AAA8" transform="translate(92,115)"/>
<path d="M0 0 C0.66 0 1.32 0 2 0 C2.33 0.33 2.66 0.66 3 1 C3.99 1 4.98 1 6 1 C5.96996749 7.48702307 4.54422524 11.44425239 0.5703125 16.56640625 C-1 18 -1 18 -4 18 C-3.25943359 17.07767578 -3.25943359 17.07767578 -2.50390625 16.13671875 C-1.54291016 14.92435547 -1.54291016 14.92435547 -0.5625 13.6875 C0.07558594 12.88699219 0.71367188 12.08648437 1.37109375 11.26171875 C3.16111355 9.01302723 3.16111355 9.01302723 4 6 C2.68 6 1.36 6 0 6 C-1.125 2.25 -1.125 2.25 0 0 Z " fill="#C5989A" transform="translate(62,45)"/>
<path d="M0 0 C2.31 0 4.62 0 7 0 C6.67 1.65 6.34 3.3 6 5 C1.05 5 -3.9 5 -9 5 C-9 4.34 -9 3.68 -9 3 C-6.36 3 -3.72 3 -1 3 C-0.67 2.01 -0.34 1.02 0 0 Z " fill="#0B5071" transform="translate(91,142)"/>
<path d="M0 0 C0.66 0.33 1.32 0.66 2 1 C1.67 1.66 1.34 2.32 1 3 C0.01 3 -0.98 3 -2 3 C-2.12375 3.61875 -2.2475 4.2375 -2.375 4.875 C-3 7 -3 7 -5 9 C-5.66 7.35 -6.32 5.7 -7 4 C-9.97 4 -12.94 4 -16 4 C-16 3.34 -16 2.68 -16 2 C-14.92878906 1.93941406 -13.85757812 1.87882812 -12.75390625 1.81640625 C-11.35675609 1.73201463 -9.95962143 1.64736594 -8.5625 1.5625 C-7.50192383 1.50352539 -7.50192383 1.50352539 -6.41992188 1.44335938 C-2.91309581 1.52375562 -2.91309581 1.52375562 0 0 Z " fill="#F6B4B6" transform="translate(38,29)"/>
<path d="M0 0 C1.670625 0.061875 1.670625 0.061875 3.375 0.125 C3.375 0.785 3.375 1.445 3.375 2.125 C2.4159375 2.2796875 2.4159375 2.2796875 1.4375 2.4375 C0.756875 2.664375 0.07625 2.89125 -0.625 3.125 C-0.955 4.115 -1.285 5.105 -1.625 6.125 C-3.6875 7.3125 -3.6875 7.3125 -5.625 8.125 C-5.75 5.25 -5.75 5.25 -5.625 2.125 C-3.625 0.125 -3.625 0.125 0 0 Z " fill="#4B7389" transform="translate(8.625,132.875)"/>
<path d="M0 0 C0.33 0.99 0.66 1.98 1 3 C0.34 3 -0.32 3 -1 3 C-1.33 4.98 -1.66 6.96 -2 9 C-4.97 8.505 -4.97 8.505 -8 8 C-6.75023244 4.34683329 -6.32901247 3.21934164 -3 1 C-2.34 1 -1.68 1 -1 1 C-0.67 0.67 -0.34 0.34 0 0 Z " fill="#36647C" transform="translate(114,126)"/>
<path d="M0 0 C0.33 0.66 0.66 1.32 1 2 C0.01873444 4.00925805 -0.9849911 6.00757511 -2 8 C-2.77068925 10.31671045 -3.38503124 12.63473553 -4 15 C-4.33 14.01 -4.66 13.02 -5 12 C-5.66 11.67 -6.32 11.34 -7 11 C-6.40975852 9.34912153 -5.80233994 7.70437593 -5.1875 6.0625 C-4.85105469 5.14597656 -4.51460937 4.22945313 -4.16796875 3.28515625 C-3 1 -3 1 0 0 Z " fill="#9FB2BA" transform="translate(23,94)"/>
<path d="M0 0 C1.37478516 0.01740234 1.37478516 0.01740234 2.77734375 0.03515625 C3.69644531 0.04417969 4.61554688 0.05320312 5.5625 0.0625 C6.27277344 0.07410156 6.98304687 0.08570312 7.71484375 0.09765625 C8.37484375 2.40765625 9.03484375 4.71765625 9.71484375 7.09765625 C10.37484375 7.09765625 11.03484375 7.09765625 11.71484375 7.09765625 C11.71484375 7.75765625 11.71484375 8.41765625 11.71484375 9.09765625 C9.83984375 8.97265625 9.83984375 8.97265625 7.71484375 8.09765625 C6.46484375 5.03515625 6.46484375 5.03515625 5.71484375 2.09765625 C3.40484375 1.76765625 1.09484375 1.43765625 -1.28515625 1.09765625 C-1.61515625 2.41765625 -1.94515625 3.73765625 -2.28515625 5.09765625 C-2.84765625 3.16015625 -2.84765625 3.16015625 -3.28515625 1.09765625 C-2.28515625 0.09765625 -2.28515625 0.09765625 0 0 Z " fill="#939198" transform="translate(65.28515625,114.90234375)"/>
<path d="M0 0 C1.32 0.66 2.64 1.32 4 2 C2.35 3.98 0.7 5.96 -1 8 C-2.65 7.67 -4.3 7.34 -6 7 C-5 4 -5 4 -3 2.9375 C-2.34 2.628125 -1.68 2.31875 -1 2 C-0.67 1.34 -0.34 0.68 0 0 Z " fill="#F4A8A5" transform="translate(73,85)"/>
<path d="M0 0 C0.66 1.32 1.32 2.64 2 4 C1.01 4.495 1.01 4.495 0 5 C-0.33 5.99 -0.66 6.98 -1 8 C-2.98 8.33 -4.96 8.66 -7 9 C-7.33 7.68 -7.66 6.36 -8 5 C-6.35 5 -4.7 5 -3 5 C-2.814375 4.0409375 -2.814375 4.0409375 -2.625 3.0625 C-2.41875 2.381875 -2.2125 1.70125 -2 1 C-1.34 0.67 -0.68 0.34 0 0 Z " fill="#648FA5" transform="translate(10,6)"/>
<path d="M0 0 C1.98 0.66 3.96 1.32 6 2 C6 2.99 6 3.98 6 5 C5 6 5 6 2.4375 6.0625 C1.2309375 6.0315625 1.2309375 6.0315625 0 6 C0 5.34 0 4.68 0 4 C-1.32 4.33 -2.64 4.66 -4 5 C-3.67 4.34 -3.34 3.68 -3 3 C-2.34 3 -1.68 3 -1 3 C-0.67 2.01 -0.34 1.02 0 0 Z " fill="#63889C" transform="translate(105,132)"/>
<path d="M0 0 C1.32 0.33 2.64 0.66 4 1 C2.68 3.64 1.36 6.28 0 9 C-0.99 9 -1.98 9 -3 9 C-2.25 2.25 -2.25 2.25 0 0 Z " fill="#D8ECF4" transform="translate(16,125)"/>
<path d="M0 0 C2.875 -0.125 2.875 -0.125 6 0 C6.66 0.66 7.32 1.32 8 2 C7.01 2.33 6.02 2.66 5 3 C4.26676204 5.01508358 4.26676204 5.01508358 4 7 C3.01 7 2.02 7 1 7 C0.67 4.69 0.34 2.38 0 0 Z " fill="#3D7794" transform="translate(104,50)"/>
<path d="M0 0 C0.33 0.66 0.66 1.32 1 2 C1.66 2 2.32 2 3 2 C3.66 5.96 4.32 9.92 5 14 C1.57245724 11.71497149 1.11558883 10.86165366 0 7 C-0.07646165 4.6679198 -0.09143299 2.33154122 0 0 Z " fill="#94A5AF" transform="translate(15,27)"/>
<path d="M0 0 C0.66 0 1.32 0 2 0 C2 0.66 2 1.32 2 2 C3.32 1.67 4.64 1.34 6 1 C6 2.65 6 4.3 6 6 C2.25 7.125 2.25 7.125 0 6 C0 5.34 0 4.68 0 4 C-0.66 3.34 -1.32 2.68 -2 2 C-1.34 2 -0.68 2 0 2 C0 1.34 0 0.68 0 0 Z " fill="#255973" transform="translate(100,142)"/>
<path d="M0 0 C0 0.33 0 0.66 0 1 C-7.92 1.495 -7.92 1.495 -16 2 C-16 1.34 -16 0.68 -16 0 C-10.75881575 -1.74706142 -5.31166864 -1.32791716 0 0 Z " fill="#174C66" transform="translate(85,70)"/>
<path d="M0 0 C2.475 0.495 2.475 0.495 5 1 C5 2.32 5 3.64 5 5 C5.99 5.33 6.98 5.66 8 6 C7.125 12.75 7.125 12.75 6 15 C3.9896446 12.9896446 4.13800534 9.26754198 3.6953125 6.54296875 C2.93897003 3.77679488 1.84735943 2.16534753 0 0 Z " fill="#E2B0B3" transform="translate(44,64)"/>
<path d="M0 0 C5.94 0 11.88 0 18 0 C17.67 0.66 17.34 1.32 17 2 C14.71484375 2.4140625 14.71484375 2.4140625 11.9375 2.625 C10.55884766 2.73714844 10.55884766 2.73714844 9.15234375 2.8515625 C8.44207031 2.90054687 7.73179688 2.94953125 7 3 C7 2.34 7 1.68 7 1 C4.69 1 2.38 1 0 1 C0 0.67 0 0.34 0 0 Z " fill="#547B8F" transform="translate(6,0)"/>
<path d="M0 0 C0 0.66 0 1.32 0 2 C0.66 2.33 1.32 2.66 2 3 C1.67 3.99 1.34 4.98 1 6 C0.34 6 -0.32 6 -1 6 C-1 5.34 -1 4.68 -1 4 C-2.98 4.33 -4.96 4.66 -7 5 C-6 2 -6 2 -4.0625 0.8125 C-2 0 -2 0 0 0 Z " fill="#225874" transform="translate(105,136)"/>
<path d="M0 0 C2.4375 0.375 2.4375 0.375 5 1 C5.33 1.66 5.66 2.32 6 3 C5.236875 3.45375 4.47375 3.9075 3.6875 4.375 C1.76367186 5.53824492 -0.12941224 6.7529415 -2 8 C-2.33 7.34 -2.66 6.68 -3 6 C-2.06553465 3.96855359 -1.06775224 1.96466413 0 0 Z " fill="#DAE9ED" transform="translate(26,112)"/>
<path d="M0 0 C0.66 0 1.32 0 2 0 C4.29013653 3.4352048 4.17842973 4.985331 4 9 C2.68 8.67 1.36 8.34 0 8 C0 5.36 0 2.72 0 0 Z " fill="#F3ACAC" transform="translate(80,93)"/>
<path d="M0 0 C-0.33 0.99 -0.66 1.98 -1 3 C-3.8125 3.6875 -3.8125 3.6875 -7 4 C-8.875 2.5625 -8.875 2.5625 -10 1 C-3.375 -1.125 -3.375 -1.125 0 0 Z " fill="#E9B8BB" transform="translate(95,108)"/>
<path d="M0 0 C0.598125 0.20625 1.19625 0.4125 1.8125 0.625 C1.4825 0.955 1.1525 1.285 0.8125 1.625 C1.8025 1.955 2.7925 2.285 3.8125 2.625 C3.8125 3.285 3.8125 3.945 3.8125 4.625 C0.4375 4.8125 0.4375 4.8125 -3.1875 4.625 C-3.8475 3.635 -4.5075 2.645 -5.1875 1.625 C-2.1875 -0.375 -2.1875 -0.375 0 0 Z " fill="#F4A8A4" transform="translate(83.1875,103.375)"/>
<path d="M0 0 C0.66 0 1.32 0 2 0 C2.0825 1.03125 2.165 2.0625 2.25 3.125 C3.10253301 7.52975387 4.34241489 9.48512937 7 13 C4 13 4 13 2.375 11.5625 C0.38503812 7.85393467 0.25738387 4.15364317 0 0 Z " fill="#9396A0" transform="translate(63,93)"/>
<path d="M0 0 C4.62 0 9.24 0 14 0 C14 0.99 14 1.98 14 3 C12.22992286 3.08114106 10.45877902 3.13925505 8.6875 3.1875 C7.70136719 3.22230469 6.71523438 3.25710937 5.69921875 3.29296875 C3 3 3 3 0 0 Z " fill="#BF9CA0" transform="translate(55,35)"/>
<path d="M0 0 C0.99 0.33 1.98 0.66 3 1 C2.54109375 1.36351563 2.0821875 1.72703125 1.609375 2.1015625 C-2.43493987 5.41518183 -5.32533314 8.50655967 -8 13 C-8.33 12.01 -8.66 11.02 -9 10 C-7.63671875 8.02734375 -7.63671875 8.02734375 -5.6875 5.9375 C-5.05199219 5.24527344 -4.41648437 4.55304688 -3.76171875 3.83984375 C-2.52249988 2.5456706 -1.26699399 1.26699399 0 0 Z " fill="#A8969B" transform="translate(29,115)"/>
<path d="M0 0 C0.99 0.33 1.98 0.66 3 1 C3 1.66 3 2.32 3 3 C3.66 3 4.32 3 5 3 C5.66 4.65 6.32 6.3 7 8 C6.01 8 5.02 8 4 8 C3.67 8.66 3.34 9.32 3 10 C2.34 9.67 1.68 9.34 1 9 C1 8.34 1 7.68 1 7 C1.99 7 2.98 7 4 7 C3.01 5.824375 3.01 5.824375 2 4.625 C0 2 0 2 0 0 Z " fill="#4F7386" transform="translate(109,79)"/>
<path d="M0 0 C1.37310488 0.11940042 2.74443526 0.26083429 4.11328125 0.421875 C4.81517578 0.48761719 5.51707031 0.55335937 6.24023438 0.62109375 C7.97064289 0.78589456 9.69856649 0.97642142 11.42578125 1.171875 C11.75578125 2.161875 12.08578125 3.151875 12.42578125 4.171875 C11.76578125 4.171875 11.10578125 4.171875 10.42578125 4.171875 C10.42578125 3.511875 10.42578125 2.851875 10.42578125 2.171875 C8.52966691 2.31400797 6.63389731 2.46074407 4.73828125 2.609375 C3.68253906 2.69058594 2.62679687 2.77179688 1.5390625 2.85546875 C-1.22508172 3.13639181 -3.86367616 3.57344352 -6.57421875 4.171875 C-4.77817574 0.62107732 -4.0754105 0.19597602 0 0 Z " fill="#8B9EAB" transform="translate(69.57421875,63.828125)"/>
<path d="M0 0 C1.32 0.33 2.64 0.66 4 1 C4 2.32 4 3.64 4 5 C1 7 1 7 -2 7 C-1.125 2.25 -1.125 2.25 0 0 Z " fill="#D2BDC0" transform="translate(19,126)"/>
<path d="M0 0 C1.54897985 3.0979597 0.83239539 6.26216552 0.5625 9.625 C0.51029297 10.33140625 0.45808594 11.0378125 0.40429688 11.765625 C0.27458793 13.51079987 0.13795046 15.25545725 0 17 C-1.65 17 -3.3 17 -5 17 C-4.27683594 16.46246094 -4.27683594 16.46246094 -3.5390625 15.9140625 C-1.32225539 13.15711965 -1.52210273 10.86675439 -1.375 7.375 C-1.08333333 1.08333333 -1.08333333 1.08333333 0 0 Z " fill="#C2DDE6" transform="translate(42,98)"/>
<path d="M0 0 C-0.33 2.97 -0.66 5.94 -1 9 C-1.99 9 -2.98 9 -4 9 C-3.4140625 2.84765625 -3.4140625 2.84765625 -3 1 C-1 0 -1 0 0 0 Z " fill="#124C68" transform="translate(120,112)"/>
<path d="M0 0 C0.33 0.99 0.66 1.98 1 3 C3.97 3 6.94 3 10 3 C10 3.66 10 4.32 10 5 C3.375 6.125 3.375 6.125 0 5 C0 3.35 0 1.7 0 0 Z " fill="#9899A2" transform="translate(87,92)"/>
<path d="M0 0 C0.99 0.66 1.98 1.32 3 2 C2.67 3.65 2.34 5.3 2 7 C0.68 7.33 -0.64 7.66 -2 8 C-2.33 6.68 -2.66 5.36 -3 4 C-2.01 3.67 -1.02 3.34 0 3 C0 2.01 0 1.02 0 0 Z " fill="#2D5D76" transform="translate(58,74)"/>
<path d="M0 0 C2.69504819 2.69504819 5 6.08360477 5 10 C3.68 9.67 2.36 9.34 1 9 C1 8.01 1 7.02 1 6 C0.34 6 -0.32 6 -1 6 C-0.67 4.02 -0.34 2.04 0 0 Z " fill="#CFDFE4" transform="translate(20,33)"/>
<path d="M0 0 C1 3 1 3 0.375 5.125 C-1 7 -1 7 -3.625 7.75 C-4.800625 7.87375 -4.800625 7.87375 -6 8 C-6 6 -6 6 -4.6875 4.5625 C-4.130625 4.046875 -3.57375 3.53125 -3 3 C-2.1646875 2.1646875 -2.1646875 2.1646875 -1.3125 1.3125 C-0.879375 0.879375 -0.44625 0.44625 0 0 Z " fill="#D9EBF2" transform="translate(31,84)"/>
<path d="M0 0 C0.66 1.32 1.32 2.64 2 4 C0.35 5.65 -1.3 7.3 -3 9 C-3.33 8.01 -3.66 7.02 -4 6 C-2.0625 2.8125 -2.0625 2.8125 0 0 Z " fill="#2B5A72" transform="translate(85,30)"/>
<path d="M0 0 C1.98 0 3.96 0 6 0 C6 0.99 6 1.98 6 3 C5.01 3.33 4.02 3.66 3 4 C2.34 4.66 1.68 5.32 1 6 C0.67 4.02 0.34 2.04 0 0 Z " fill="#E3B0B4" transform="translate(65,116)"/>
<path d="M0 0 C3.84280285 1.24631444 6.07319896 2.36048692 8 6 C7.5703125 8.1328125 7.5703125 8.1328125 7 10 C6.01886757 8.70982586 5.04015801 7.41780894 4.0625 6.125 C3.24458984 5.04605469 3.24458984 5.04605469 2.41015625 3.9453125 C1 2 1 2 0 0 Z " fill="#979097" transform="translate(89,83)"/>
<path d="M0 0 C0.94875 0.04125 1.8975 0.0825 2.875 0.125 C2.545 1.115 2.215 2.105 1.875 3.125 C-0.5 3.75 -0.5 3.75 -3.125 4.125 C-3.785 3.465 -4.445 2.805 -5.125 2.125 C-3.125 0.125 -3.125 0.125 0 0 Z " fill="#ECA7A6" transform="translate(82.125,81.875)"/>
<path d="M0 0 C1.1055189 0.93590504 2.20935453 1.87379858 3.3125 2.8125 C3.92738281 3.33457031 4.54226562 3.85664062 5.17578125 4.39453125 C6.85424679 5.87172469 8.43882034 7.40039131 10 9 C7.33289346 8.84759391 5.5494129 8.50635081 3.5546875 6.66796875 C0 2.49375 0 2.49375 0 0 Z " fill="#8E9FAB" transform="translate(28,60)"/>
<path d="M0 0 C-0.33 1.32 -0.66 2.64 -1 4 C-2.32 4 -3.64 4 -5 4 C-5.33 4.99 -5.66 5.98 -6 7 C-6.66 6.67 -7.32 6.34 -8 6 C-6.24081631 1.94034532 -4.71412298 0 0 0 Z " fill="#164D67" transform="translate(98,20)"/>
<path d="M0 0 C1.32 0.33 2.64 0.66 4 1 C4 1.99 4 2.98 4 4 C3.01 4 2.02 4 1 4 C1.33 5.98 1.66 7.96 2 10 C-0.4294516 6.3558226 -0.16179575 4.28758728 0 0 Z " fill="#25546C" transform="translate(115,91)"/>
<path d="M0 0 C0.33 0.66 0.66 1.32 1 2 C3.02463255 2.65213292 3.02463255 2.65213292 5 3 C4.67 3.66 4.34 4.32 4 5 C3.34 5 2.68 5 2 5 C1.67 5.66 1.34 6.32 1 7 C0.34 6.67 -0.32 6.34 -1 6 C-1.625 3.4375 -1.625 3.4375 -2 1 C-1.34 0.67 -0.68 0.34 0 0 Z " fill="#D7A2A4" transform="translate(87,88)"/>
<path d="M0 0 C3.71599191 -0.20086443 4.77208445 -0.1519437 8 2 C7.67 2.99 7.34 3.98 7 5 C4.69 4.01 2.38 3.02 0 2 C0 1.34 0 0.68 0 0 Z " fill="#56788B" transform="translate(93,73)"/>
<path d="M0 0 C1.65 0 3.3 0 5 0 C5.66 1.32 6.32 2.64 7 4 C6.34 4 5.68 4 5 4 C5 3.34 5 2.68 5 2 C4.01 2 3.02 2 2 2 C2 2.66 2 3.32 2 4 C1.01 4.33 0.02 4.66 -1 5 C-1 2 -1 2 0 0 Z " fill="#4C7990" transform="translate(113,46)"/>
<path d="M0 0 C1.32 0.33 2.64 0.66 4 1 C3.67 2.32 3.34 3.64 3 5 C0.36 4.67 -2.28 4.34 -5 4 C-4.67 3.34 -4.34 2.68 -4 2 C-2.68 2 -1.36 2 0 2 C0 1.34 0 0.68 0 0 Z " fill="#D6AFB3" transform="translate(94,91)"/>
<path d="M0 0 C1.2065625 0.0309375 1.2065625 0.0309375 2.4375 0.0625 C1.4475 0.5575 1.4475 0.5575 0.4375 1.0625 C0.4375 2.3825 0.4375 3.7025 0.4375 5.0625 C-1.8725 5.0625 -4.1825 5.0625 -6.5625 5.0625 C-5.2425 4.7325 -3.9225 4.4025 -2.5625 4.0625 C-2.8925 3.0725 -3.2225 2.0825 -3.5625 1.0625 C-2.5625 0.0625 -2.5625 0.0625 0 0 Z " fill="#DBEBF1" transform="translate(48.5625,19.9375)"/>
<path d="M0 0 C3.3 0 6.6 0 10 0 C10 1.65 10 3.3 10 5 C9.34 5 8.68 5 8 5 C7.67 4.01 7.34 3.02 7 2 C5.02 2 3.04 2 1 2 C0.67 1.34 0.34 0.68 0 0 Z " fill="#95797D" transform="translate(76,132)"/>
<path d="M0 0 C0.33 0 0.66 0 1 0 C1.05389087 1.95803507 1.09274217 3.91648909 1.125 5.875 C1.14820313 6.96554688 1.17140625 8.05609375 1.1953125 9.1796875 C1 12 1 12 -1 14 C-1.33 12.35 -1.66 10.7 -2 9 C-1.34 9 -0.68 9 0 9 C0 6.03 0 3.06 0 0 Z " fill="#CFE1E8" transform="translate(47,75)"/>
<path d="M0 0 C2.31 0 4.62 0 7 0 C6.67 0.66 6.34 1.32 6 2 C4.1875 2.5625 4.1875 2.5625 2 3 C0.88625 3.2784375 0.88625 3.2784375 -0.25 3.5625 C-0.8275 3.706875 -1.405 3.85125 -2 4 C-1.34 2.68 -0.68 1.36 0 0 Z " fill="#154B66" transform="translate(6,1)"/>
<path d="M0 0 C0 3.99904969 -1.72586967 5.80200422 -4 9 C-5.125 5.25 -5.125 5.25 -4 3 C-3.34 3 -2.68 3 -2 3 C-2 2.34 -2 1.68 -2 1 C-1.34 0.67 -0.68 0.34 0 0 Z " fill="#7C97A7" transform="translate(117,126)"/>
<path d="M0 0 C2.25245881 2.68841859 3.88213958 4.64641875 5 8 C3.35 7.67 1.7 7.34 0 7 C0 4.69 0 2.38 0 0 Z " fill="#CCA4A8" transform="translate(43,121)"/>
<path d="M0 0 C1.0625 1.875 1.0625 1.875 2 4 C1.67 4.66 1.34 5.32 1 6 C0.34 6 -0.32 6 -1 6 C-0.67 7.32 -0.34 8.64 0 10 C-0.99 10.495 -0.99 10.495 -2 11 C-1.85892253 9.54119891 -1.71197585 8.08296449 -1.5625 6.625 C-1.48128906 5.81289062 -1.40007813 5.00078125 -1.31640625 4.1640625 C-1 2 -1 2 0 0 Z " fill="#326D88" transform="translate(45,91)"/>
<path d="M0 0 C2.97 0.495 2.97 0.495 6 1 C6.33 1.99 6.66 2.98 7 4 C4.69 4 2.38 4 0 4 C0.66 3.34 1.32 2.68 2 2 C1.34 1.34 0.68 0.68 0 0 Z " fill="#114D6A" transform="translate(122,61)"/>
<path d="M0 0 C1.32 0 2.64 0 4 0 C4 0.66 4 1.32 4 2 C3.0409375 2.433125 3.0409375 2.433125 2.0625 2.875 C-0.15206079 3.82823451 -0.15206079 3.82823451 -1 6 C-1.66 5.67 -2.32 5.34 -3 5 C-1.75 2.5 -1.75 2.5 0 0 Z " fill="#215670" transform="translate(51,82)"/>
<path d="M0 0 C-1.65 0.33 -3.3 0.66 -5 1 C-5.33 1.99 -5.66 2.98 -6 4 C-8.0625 4.6875 -8.0625 4.6875 -10 5 C-5.03424658 -1.67808219 -5.03424658 -1.67808219 0 0 Z " fill="#EAB1B4" transform="translate(78,84)"/>
<path d="M0 0 C1.98 0 3.96 0 6 0 C6 0.99 6 1.98 6 3 C4.02 3 2.04 3 0 3 C0 2.01 0 1.02 0 0 Z " fill="#DBAEB1" transform="translate(78,78)"/>
<path d="M0 0 C0.99 0 1.98 0 3 0 C3 0.66 3 1.32 3 2 C3.66 2 4.32 2 5 2 C5 3.98 5 5.96 5 8 C4.34 7.34 3.68 6.68 3 6 C3 5.01 3 4.02 3 3 C2.01 2.67 1.02 2.34 0 2 C0 1.34 0 0.68 0 0 Z " fill="#17506B" transform="translate(115,48)"/>
<path d="M0 0 C0 1.32 0 2.64 0 4 C-1.98 4.99 -1.98 4.99 -4 6 C-4 4.35 -4 2.7 -4 1 C-2 0 -2 0 0 0 Z " fill="#1A4E68" transform="translate(7,135)"/>
<path d="M0 0 C1.98 0.495 1.98 0.495 4 1 C4 1.99 4 2.98 4 4 C2.68 4.33 1.36 4.66 0 5 C-0.33 4.01 -0.66 3.02 -1 2 C-0.67 1.34 -0.34 0.68 0 0 Z " fill="#24556E" transform="translate(46,121)"/>
<path d="M0 0 C0.99 0 1.98 0 3 0 C2.67 2.31 2.34 4.62 2 7 C0 5 0 5 -0.125 2.375 C-0.08375 1.59125 -0.0425 0.8075 0 0 Z " fill="#A69BA2" transform="translate(72,94)"/>
<path d="M0 0 C1.98 0.99 1.98 0.99 4 2 C4 2.66 4 3.32 4 4 C3.34 4 2.68 4 2 4 C2 5.98 2 7.96 2 10 C1.67 10 1.34 10 1 10 C0.67 6.7 0.34 3.4 0 0 Z " fill="#BF9FA4" transform="translate(64,90)"/>
<path d="M0 0 C0.66 0.33 1.32 0.66 2 1 C0.68 3.31 -0.64 5.62 -2 8 C-2.66 7.67 -3.32 7.34 -4 7 C-2.68 4.69 -1.36 2.38 0 0 Z " fill="#8CA1AD" transform="translate(25,87)"/>
<path d="M0 0 C0.66 0.99 1.32 1.98 2 3 C-0.70879335 4.35439668 -3.00933268 4.06501451 -6 4 C-3.94766315 1.7522025 -2.99332739 0.9977758 0 0 Z " fill="#E1ABAE" transform="translate(88,82)"/>
<path d="M0 0 C0.66 0 1.32 0 2 0 C1.25 4.75 1.25 4.75 -1 7 C-1.625 5.1875 -1.625 5.1875 -2 3 C-1.34 2.01 -0.68 1.02 0 0 Z " fill="#3F697F" transform="translate(51,85)"/>
<path d="M0 0 C0.33 1.32 0.66 2.64 1 4 C0.01 3.67 -0.98 3.34 -2 3 C-2 3.66 -2 4.32 -2 5 C-2.99 5.33 -3.98 5.66 -5 6 C-5.33 5.34 -5.66 4.68 -6 4 C-5.34 3.67 -4.68 3.34 -4 3 C-4 2.34 -4 1.68 -4 1 C-2.68 0.67 -1.36 0.34 0 0 Z " fill="#286686" transform="translate(21,2)"/>
</svg>
